SplineFontDB: 3.0
FontName: Klaudia
FullName: Klaudia
FamilyName: Klaudia
Weight: Book
Copyright: Copyright (c) 2011, wmk69 (wmk69@o2.pl)\nwith Reserved Font Names 'Klaudia'.\n\nThis Font Software is licensed under the SIL Open Font License, Version 1.1.\nThis license is available with a FAQ at:\nhttp://scripts.sil.org/OFL
Version: 2.000
ItalicAngle: 0
UnderlinePosition: -81
UnderlineWidth: 122
Ascent: 1638
Descent: 410
LayerCount: 2
Layer: 0 1 "Warstwa t+AUIA-a"  1
Layer: 1 1 "Plan pierwszy"  0
XUID: [1021 783 23647091 10727182]
FSType: 0
OS2Version: 3
OS2_WeightWidthSlopeOnly: 0
OS2_UseTypoMetrics: 1
CreationTime: 1260698820
ModificationTime: 1314627468
PfmFamily: 33
TTFWeight: 400
TTFWidth: 5
LineGap: 0
VLineGap: 0
Panose: 2 13 5 3 2 4 4 6 2 4
OS2TypoAscent: 1991
OS2TypoAOffset: 0
OS2TypoDescent: -471
OS2TypoDOffset: 0
OS2TypoLinegap: 0
OS2WinAscent: 1991
OS2WinAOffset: 0
OS2WinDescent: 471
OS2WinDOffset: 0
HheadAscent: 1991
HheadAOffset: 0
HheadDescent: -471
HheadDOffset: 0
OS2SubXSize: 1434
OS2SubYSize: 1331
OS2SubXOff: 0
OS2SubYOff: 287
OS2SupXSize: 1434
OS2SupYSize: 1331
OS2SupXOff: 0
OS2SupYOff: 977
OS2StrikeYSize: 102
OS2StrikeYPos: 512
OS2Vendor: '    '
OS2CodePages: 20000093.00000000
OS2UnicodeRanges: 8000002f.4000204b.00000000.00000000
Lookup: 258 0 0 "'kern' Kerning poziomy w tablicy 0"  {"Podtablica 'kern' Kerning poziomy w tablicy 0"  } ['kern' ('DFLT' <'dflt' > 'grek' <'dflt' > 'latn' <'dflt' > ) ]
DEI: 91125
KernClass2: 21 16 "Podtablica 'kern' Kerning poziomy w tablicy 0" 
 90 A Agrave Aacute Acircumflex Atilde Adieresis Aring Amacron Abreve Aogonek Aringacute Delta
 9 F uni0191
 43 K R Kcommaaccent Racute Rcommaaccent Rcaron
 40 L Lacute Lcommaaccent Lcaron Ldot Lslash
 42 T Tcommaaccent Tcaron Tbar uni021A uni1E6A
 1 V
 37 Y Yacute Ycircumflex Ydieresis Ygrave
 140 a g h m n q u w y agrave ugrave aogonek hcircumflex ncommaaccent napostrophe eng uogonek wcircumflex uni01E5 uni1E41 wgrave wacute wdieresis

StartChar: .notdef
Encoding: 65536 -1 0
Width: 894
Flags: W
HStem: 0 118<268 626> 1393 118<268 626>
VStem: 150 118<118 1393> 626 118<118 1393>
LayerCount: 2
Fore
SplineSet
150 0 m 1,0,-1
 150 1511 l 1,1,-1
 744 1511 l 1,2,-1
 744 0 l 1,3,-1
 150 0 l 1,0,-1
268 1393 m 1,4,-1
 268 118 l 1,5,-1
 626 118 l 1,6,-1
 626 1393 l 1,7,-1
 268 1393 l 1,4,-1
EndSplineSet
Validated: 1
EndChar

StartChar: exclam
Encoding: 33 33 4
Width: 742
GlyphClass: 2
Flags: W
HStem: -20 255<282.16 458.871> 1491 20G<271 471>
VStem: 245 252<19.1599 195.84> 271 200<957.63 1511> 301 140<353 906.37>
LayerCount: 2
Fore
SplineSet
497 102 m 0,0,1
 497 52 497 52 460.5 16 c 128,-1,2
 424 -20 424 -20 371 -20 c 128,-1,3
 318 -20 318 -20 281 18 c 0,4,5
 245 55 245 55 245 107 c 0,6,7
 245 160 245 160 281 197 c 0,8,9
 317 235 317 235 371 235 c 0,10,11
 424 235 424 235 460 198 c 0,12,13
 497 160 497 160 497 102 c 0,0,1
301 353 m 1,14,-1
 271 1511 l 1,15,-1
 471 1511 l 1,16,-1
 441 353 l 1,17,-1
 301 353 l 1,14,-1
EndSplineSet
Validated: 1
EndChar

StartChar: quotedbl
Encoding: 34 34 5
Width: 816
GlyphClass: 2
Flags: W
HStem: 994 517<200 350 466 616>
VStem: 200 150<994 1511> 466 150<994 1511>
LayerCount: 2
Fore
SplineSet
466 994 m 1,0,-1
 466 1511 l 1,1,-1
 616 1511 l 1,2,-1
 616 994 l 1,3,-1
 466 994 l 1,0,-1
200 994 m 1,4,-1
 200 1511 l 1,5,-1
 350 1511 l 1,6,-1
 350 994 l 1,7,-1
 200 994 l 1,4,-1
EndSplineSet
Validated: 1
EndChar

StartChar: numbersign
Encoding: 35 35 6
Width: 1483
GlyphClass: 2
Flags: W
HStem: 516 150<150 490 640 844 994 1333> 870 150<150 490 640 844 994 1333>
VStem: 490 150<176 516 666 870 1020 1360> 844 150<176 516 666 870 1020 1360>
LayerCount: 2
Fore
SplineSet
490 176 m 1,0,-1
 490 516 l 1,1,-1
 150 516 l 1,2,-1
 150 666 l 1,3,-1
 490 666 l 1,4,-1
 490 870 l 1,5,-1
 150 870 l 1,6,-1
 150 1020 l 1,7,-1
 490 1020 l 1,8,-1
 490 1360 l 1,9,-1
 640 1360 l 1,10,-1
 640 1020 l 1,11,-1
 844 1020 l 1,12,-1
 844 1360 l 1,13,-1
 994 1360 l 1,14,-1
 994 1020 l 1,15,-1
 1333 1020 l 1,16,-1
 1333 870 l 1,17,-1
 994 870 l 1,18,-1
 994 666 l 1,19,-1
 1333 666 l 1,20,-1
 1333 516 l 1,21,-1
 994 516 l 1,22,-1
 994 176 l 1,23,-1
 844 176 l 1,24,-1
 844 516 l 1,25,-1
 640 516 l 1,26,-1
 640 176 l 1,27,-1
 490 176 l 1,0,-1
640 666 m 1,28,-1
 844 666 l 1,29,-1
 844 870 l 1,30,-1
 640 870 l 1,31,-1
 640 666 l 1,28,-1
EndSplineSet
Validated: 1
EndChar

StartChar: dollar
Encoding: 36 36 7
Width: 1511
GlyphClass: 2
Flags: W
HStem: -20 123<450.022 715> 1406 125<836 969.172>
VStem: 300 188<1039.32 1262.86> 715 121<-186 -17 138 759 989 1392 1531 1695> 1206 205<423.393 685.376>
DStem2: 609 1008 581 802 0.98486 -0.173351<-111.615 107.689 266.728 632.453>
LayerCount: 2
Fore
SplineSet
80 263 m 1,0,1
 237 350 l 1,2,3
 389 103 389 103 646 103 c 0,4,5
 681 103 681 103 715 107 c 1,6,-1
 715 780 l 1,7,-1
 581 802 l 1,8,9
 300 843 300 843 300 1083 c 0,10,11
 300 1263 300 1263 447 1388 c 0,12,13
 567 1490 567 1490 715 1519 c 1,14,-1
 715 1695 l 1,15,-1
 836 1695 l 1,16,-1
 836 1531 l 1,17,18
 1013 1531 1013 1531 1193 1391 c 1,19,-1
 1057 1290 l 1,20,21
 961 1398 961 1398 836 1406 c 1,22,-1
 836 968 l 1,23,-1
 1126 917 l 17,24,25
 1411 866 1411 866 1411 610 c 0,26,27
 1411 367 1411 367 1154 157 c 0,28,29
 1013 42 1013 42 835 2 c 1,30,-1
 835 -186 l 1,31,-1
 715 -186 l 1,32,-1
 715 -17 l 1,33,34
 675 -20 675 -20 633 -20 c 0,35,36
 294 -20 294 -20 80 263 c 1,0,1
836 759 m 1,37,-1
 835 138 l 1,38,39
 943 179 943 179 1040 270 c 0,40,41
 1206 426 1206 426 1206 584 c 0,42,43
 1206 694 1206 694 1090 717 c 1,44,-1
 836 759 l 1,37,-1
715 989 m 1,45,-1
 715 1392 l 1,46,47
 641 1369 641 1369 576 1311 c 0,48,49
 488 1232 488 1232 488 1132.5 c 128,-1,50
 488 1033 488 1033 609 1008 c 1,51,-1
 715 989 l 1,45,-1
EndSplineSet
Validated: 1
EndChar

StartChar: percent
Encoding: 37 37 8
Width: 1838
GlyphClass: 2
Flags: W
HStem: 0 118<1169.77 1411.93> 493 123<1217.11 1454.9> 895 118<383.774 625.927> 1388 123<431.106 668.903>
VStem: 150 188<1050.9 1293.08> 418 176<0 176> 715 187<1105.83 1349.05> 936 188<155.903 398.084> 1262 176<1335 1511> 1501 187<210.826 454.047>
DStem2: 418 0 594 0 0.487653 0.873038<85.8269 1730.74>
LayerCount: 2
Fore
SplineSet
1369 616 m 0,0,1
 1503 616 1503 616 1606 533 c 0,2,3
 1688 466 1688 466 1688 350 c 0,4,5
 1688 222 1688 222 1573 119 c 0,6,7
 1438 0 1438 0 1259 0 c 24,8,9
 1102 0 1102 0 1011 85 c 0,10,11
 936 154 936 154 936 253 c 0,12,13
 936 410 936 410 1082 517 c 0,14,15
 1219 616 1219 616 1369 616 c 0,0,1
1124 260 m 0,16,17
 1124 186 1124 186 1175 151 c 0,18,19
 1222 118 1222 118 1286 118 c 24,20,21
 1386 118 1386 118 1451 203 c 256,22,23
 1501 269 1501 269 1501 347 c 0,24,25
 1501 423 1501 423 1450 459 c 0,26,27
 1402 493 1402 493 1341 493 c 24,28,29
 1252 493 1252 493 1183 417 c 0,30,31
 1124 354 1124 354 1124 260 c 0,16,17
418 0 m 1,32,-1
 1262 1511 l 1,33,-1
 1438 1511 l 1,34,-1
 594 0 l 1,35,-1
 418 0 l 1,32,-1
583 1511 m 0,36,37
 717 1511 717 1511 820 1428 c 0,38,39
 902 1361 902 1361 902 1245 c 0,40,41
 902 1117 902 1117 787 1014 c 0,42,43
 652 895 652 895 473 895 c 24,44,45
 316 895 316 895 225 980 c 0,46,47
 150 1049 150 1049 150 1148 c 0,48,49
 150 1305 150 1305 296 1412 c 0,50,51
 433 1511 433 1511 583 1511 c 0,36,37
338 1155 m 0,52,53
 338 1081 338 1081 389 1046 c 0,54,55
 436 1013 436 1013 500 1013 c 24,56,57
 600 1013 600 1013 665 1098 c 256,58,59
 715 1164 715 1164 715 1242 c 0,60,61
 715 1318 715 1318 664 1354 c 0,62,63
 616 1388 616 1388 555 1388 c 24,64,65
 466 1388 466 1388 397 1312 c 0,66,67
 338 1249 338 1249 338 1155 c 0,52,53
EndSplineSet
Validated: 1
EndChar

StartChar: ampersand
Encoding: 38 38 9
Width: 1712
GlyphClass: 2
Flags: W
HStem: -20 116<491.103 866.745> 0 21G<1344.69 1612> 897 136<602.665 714> 1100 20G<1181.5 1231.5> 1408 123<647.451 902.318>
VStem: 150 210<242.378 644.422> 377 188<1072.45 1327.88> 1334 196<584.424 970.297>
DStem2: 850 1033 714 897 0.593624 -0.804742<3.76319 664.425 882.617 882.617>
LayerCount: 2
Fore
SplineSet
1612 0 m 1,0,-1
 1359 0 l 1,1,-1
 1213 204 l 1,2,3
 965 -20 965 -20 647 -20 c 0,4,5
 397 -20 397 -20 270 116 c 0,6,7
 150 245 150 245 150 444 c 0,8,9
 150 626 150 626 285 787 c 0,10,11
 378 898 378 898 503 956 c 1,12,13
 377 1026 377 1026 377 1165 c 0,14,15
 377 1345 377 1345 551 1457 c 0,16,17
 665 1531 665 1531 810 1531 c 0,18,19
 974 1531 974 1531 1077 1408 c 1,20,-1
 931 1324 l 1,21,22
 890 1408 890 1408 782 1408 c 0,23,24
 685 1408 685 1408 621 1341 c 0,25,26
 565 1283 565 1283 565 1178 c 0,27,28
 565 1104 565 1104 616 1066 c 0,29,30
 660 1033 660 1033 850 1033 c 1,31,-1
 1244 498 l 1,32,33
 1334 634 1334 634 1334 802 c 0,34,35
 1334 917 1334 917 1270 1000 c 0,36,37
 1214 1073 1214 1073 1149 1120 c 1,38,39
 1314 1120 1314 1120 1400 1062 c 0,40,41
 1530 974 1530 974 1530 808 c 0,42,43
 1530 566 1530 566 1352 352 c 1,44,-1
 1612 0 l 1,0,-1
714 897 m 1,45,46
 602 897 602 897 492 791 c 0,47,48
 360 664 360 664 360 487 c 0,49,50
 360 305 360 305 425 206 c 0,51,52
 498 96 498 96 662 96 c 0,53,54
 898 96 898 96 1126 325 c 1,55,-1
 714 897 l 1,45,46
EndSplineSet
Validated: 1
EndChar

StartChar: quotesingle
Encoding: 39 39 10
Width: 550
GlyphClass: 2
Flags: W
HStem: 994 517<200 350>
VStem: 200 150<994 1511>
LayerCount: 2
Fore
SplineSet
200 994 m 1,0,-1
 200 1511 l 1,1,-1
 350 1511 l 1,2,-1
 350 994 l 1,3,-1
 200 994 l 1,0,-1
EndSplineSet
Validated: 1
EndChar

StartChar: parenleft
Encoding: 40 40 11
Width: 850
GlyphClass: 2
Flags: W
VStem: 200 199<380.095 1130.92>
LayerCount: 2
Fore
SplineSet
542 1797 m 1,0,-1
 696 1797 l 1,1,2
 565 1562 565 1562 490 1350 c 0,3,4
 399 1092 399 1092 399 788 c 0,5,6
 399 444 399 444 480.5 207 c 128,-1,7
 562 -30 562 -30 700 -267 c 1,8,-1
 544 -267 l 1,9,10
 408 -61 408 -61 314 164 c 0,11,12
 200 434 200 434 200 783 c 0,13,14
 200 1067 200 1067 322 1376 c 0,15,16
 412 1604 412 1604 542 1797 c 1,0,-1
EndSplineSet
Validated: 1
EndChar

StartChar: parenright
Encoding: 41 41 12
Width: 850
GlyphClass: 2
Flags: W
VStem: 451 199<380.095 1130.92>
LayerCount: 2
Fore
SplineSet
308 1797 m 1,0,1
 438 1604 438 1604 528 1376 c 0,2,3
 650 1067 650 1067 650 783 c 0,4,5
 650 434 650 434 536 164 c 0,6,7
 442 -61 442 -61 306 -267 c 1,8,-1
 150 -267 l 1,9,10
 288 -30 288 -30 369.5 207 c 128,-1,11
 451 444 451 444 451 788 c 0,12,13
 451 1092 451 1092 360 1350 c 0,14,15
 285 1562 285 1562 154 1797 c 1,16,-1
 308 1797 l 1,0,1
EndSplineSet
Validated: 1
EndChar

StartChar: asterisk
Encoding: 42 42 13
Width: 1139
GlyphClass: 2
Flags: W
HStem: 1491 20G<495 645>
VStem: 495 150<678 990 1235 1511>
DStem2: 225 1373 150 1257 0.881617 -0.471965<0 303.168 551.042 861.823> 150 964 225 834 0.881617 0.471965<4.76581 316.429 564.303 735.267 769.52 866.589>
LayerCount: 2
Fore
SplineSet
495 1511 m 1,0,-1
 645 1511 l 1,1,-1
 645 1235 l 1,2,-1
 914 1373 l 1,3,-1
 989 1257 l 1,4,-1
 706 1114 l 1,5,-1
 989 964 l 1,6,-1
 914 834 l 1,7,-1
 645 990 l 1,8,-1
 645 678 l 1,9,-1
 495 678 l 1,10,-1
 495 990 l 1,11,-1
 225 834 l 1,12,-1
 150 964 l 1,13,-1
 432 1114 l 1,14,-1
 150 1257 l 1,15,-1
 225 1373 l 1,16,-1
 495 1235 l 1,17,-1
 495 1511 l 1,0,-1
EndSplineSet
Validated: 1
EndChar

StartChar: plus
Encoding: 43 43 14
Width: 1183
GlyphClass: 2
Flags: W
HStem: 693 150<150 516 666 1033>
VStem: 516 150<326 693 843 1185>
LayerCount: 2
Fore
SplineSet
516 326 m 1,0,-1
 516 693 l 1,1,-1
 150 693 l 1,2,-1
 150 843 l 1,3,-1
 516 843 l 1,4,-1
 516 1185 l 1,5,-1
 666 1185 l 1,6,-1
 666 843 l 1,7,-1
 1033 843 l 1,8,-1
 1033 693 l 1,9,-1
 666 693 l 1,10,-1
 666 326 l 1,11,-1
 516 326 l 1,0,-1
EndSplineSet
Validated: 1
EndChar

StartChar: comma
Encoding: 44 44 15
Width: 610
GlyphClass: 2
Flags: W
HStem: -366 656
VStem: 275 185<-193.871 93.6787>
LayerCount: 2
Fore
SplineSet
314 290 m 1,0,1
 460 153 460 153 460 -38 c 0,2,3
 460 -246 460 -246 243 -366 c 1,4,-1
 150 -265 l 1,5,6
 275 -194 275 -194 275 -50 c 128,-1,7
 275 94 275 94 158 156 c 1,8,-1
 314 290 l 1,0,1
EndSplineSet
Validated: 1
EndChar

StartChar: hyphen
Encoding: 45 45 16
Width: 1183
GlyphClass: 2
Flags: W
HStem: 693 150<150 1033>
LayerCount: 2
Fore
SplineSet
1033 693 m 1,0,-1
 150 693 l 1,1,-1
 150 843 l 1,2,-1
 1033 843 l 1,3,-1
 1033 693 l 1,0,-1
EndSplineSet
Validated: 1
EndChar

StartChar: period
Encoding: 46 46 17
Width: 552
GlyphClass: 2
Flags: W
HStem: -20 255<187.129 363.809>
VStem: 150 252<19.1599 195.84>
LayerCount: 2
Fore
SplineSet
402 102 m 0,0,1
 402 54 402 54 366 16 c 0,2,3
 333 -20 333 -20 276 -20 c 0,4,5
 222 -20 222 -20 186 18 c 0,6,7
 150 55 150 55 150 107 c 0,8,9
 150 160 150 160 186 197 c 0,10,11
 222 235 222 235 276 235 c 0,12,13
 327 235 327 235 365 198 c 1,14,15
 402 160 402 160 402 102 c 0,0,1
EndSplineSet
Validated: 1
EndChar

StartChar: slash
Encoding: 47 47 18
Width: 1171
GlyphClass: 2
Flags: W
VStem: 10 176<-183 -7> 985 176<1511 1687>
DStem2: 10 -183 186 -183 0.462323 0.886712<81.3688 2108.92>
LayerCount: 2
Fore
SplineSet
1161 1687 m 1,0,-1
 186 -183 l 1,1,-1
 10 -183 l 1,2,-1
 985 1687 l 1,3,-1
 1161 1687 l 1,0,-1
EndSplineSet
Validated: 1
EndChar

StartChar: zero
Encoding: 48 48 19
Width: 1759
GlyphClass: 2
Flags: W
HStem: -20 123<581.989 1026.78> 1408 123<732.219 1177.01>
VStem: 100 210<415.995 948.509> 1449 210<562.491 1095.01>
LayerCount: 2
Fore
SplineSet
788 -20 m 0,0,1
 469 -20 469 -20 271 185 c 0,2,3
 100 362 100 362 100 668 c 0,4,5
 100 1061 100 1061 401 1327 c 0,6,7
 632 1531 632 1531 971 1531 c 0,8,9
 1290 1531 1290 1531 1488 1326 c 0,10,11
 1659 1149 1659 1149 1659 843 c 0,12,13
 1659 450 1659 450 1358 184 c 0,14,15
 1127 -20 1127 -20 788 -20 c 0,0,1
788 103 m 0,16,17
 1040 104 1040 104 1238 280 c 0,18,19
 1449 468 1449 468 1449 840 c 0,20,21
 1449 1078 1449 1078 1325 1241 c 0,22,23
 1197 1408 1197 1408 971 1408 c 0,24,25
 719 1407 719 1407 521 1231 c 0,26,27
 310 1043 310 1043 310 671 c 0,28,29
 310 433 310 433 434 270 c 0,30,31
 562 103 562 103 788 103 c 0,16,17
EndSplineSet
Validated: 1
EndChar

StartChar: one
Encoding: 49 49 20
Width: 705
GlyphClass: 2
Flags: W
HStem: 0 21G<255 455> 1361 150<5 255>
VStem: 255 200<0 1361>
LayerCount: 2
Fore
SplineSet
255 0 m 1,0,-1
 255 1361 l 1,1,-1
 5 1361 l 1,2,-1
 5 1511 l 1,3,-1
 455 1511 l 1,4,-1
 455 0 l 1,5,-1
 255 0 l 1,0,-1
EndSplineSet
Validated: 1
EndChar

StartChar: two
Encoding: 50 50 21
Width: 1363
GlyphClass: 2
Flags: W
HStem: 0 150<294 1212> 1407 124<526.721 848.276>
VStem: 1007 206<895.777 1243.02>
LayerCount: 2
Fore
SplineSet
140 1169 m 1,0,1
 226 1316 226 1316 352 1408 c 24,2,3
 520 1531 520 1531 697 1531 c 0,4,5
 940 1531 940 1531 1081 1377 c 24,6,7
 1213 1233 1213 1233 1213 1043 c 0,8,9
 1213 786 1213 786 1003 653 c 24,10,11
 550 368 550 368 294 150 c 1,12,-1
 1212 150 l 1,13,-1
 1212 0 l 1,14,-1
 161 0 l 1,15,16
 120 44 120 44 120 103 c 0,17,18
 120 201 120 201 197 262 c 0,19,20
 519 513 519 513 854 776 c 0,21,22
 1007 896 1007 896 1007 1055 c 0,23,24
 1007 1195 1007 1195 934 1286 c 0,25,26
 838 1407 838 1407 690 1407 c 0,27,28
 558 1407 558 1407 438 1300 c 0,29,30
 353 1225 353 1225 295 1084 c 1,31,-1
 140 1169 l 1,0,1
EndSplineSet
Validated: 1
EndChar

StartChar: three
Encoding: 51 51 22
Width: 1376
GlyphClass: 2
Flags: W
HStem: -20 116<431.698 781.17> 906 128<620 790.693> 1408 123<587.071 827.215>
VStem: 874 188<1112.37 1368.3> 1016 210<356.459 764.89>
LayerCount: 2
Fore
SplineSet
100 301 m 1,0,1
 287 370 l 1,2,3
 357 96 357 96 592 96 c 0,4,5
 785 96 785 96 910 242 c 0,6,7
 1016 366 1016 366 1016 544 c 0,8,9
 1016 736 1016 736 929 825 c 0,10,11
 850 906 850 906 620 906 c 1,12,-1
 620 1034 l 1,13,14
 753 1034 753 1034 821 1103 c 0,15,16
 874 1157 874 1157 874 1262 c 0,17,18
 874 1338 874 1338 823 1374 c 0,19,20
 775 1408 775 1408 714 1408 c 0,21,22
 573 1408 573 1408 505 1247 c 1,23,-1
 367 1330 l 1,24,25
 522 1531 522 1531 742 1531 c 0,26,27
 882 1531 882 1531 977 1449 c 0,28,29
 1062 1375 1062 1375 1062 1270 c 0,30,31
 1062 1089 1062 1089 890 1004 c 1,32,33
 1041 969 1041 969 1128 858 c 24,34,35
 1226 733 1226 733 1226 568 c 0,36,37
 1226 329 1226 329 1022 148 c 0,38,39
 833 -20 833 -20 593 -20 c 0,40,41
 240 -20 240 -20 100 301 c 1,0,1
EndSplineSet
Validated: 1
EndChar

StartChar: four
Encoding: 52 52 23
Width: 1349
GlyphClass: 2
Flags: W
HStem: 0 21G<899 1099> 293 150<320 899> 1491 20G<763 1099>
VStem: 899 200<0 293 443 1365>
LayerCount: 2
Fore
SplineSet
899 0 m 1,0,-1
 899 293 l 1,1,-1
 80 293 l 1,2,3
 179 722 179 722 416 1052 c 0,4,5
 609 1321 609 1321 917 1511 c 1,6,-1
 1099 1511 l 1,7,-1
 1099 0 l 1,8,-1
 899 0 l 1,0,-1
899 443 m 1,9,-1
 899 1365 l 1,10,11
 630 1155 630 1155 524 960 c 0,12,13
 382 699 382 699 320 443 c 1,14,-1
 899 443 l 1,9,-1
EndSplineSet
Validated: 1
EndChar

StartChar: five
Encoding: 53 53 24
Width: 1376
GlyphClass: 2
Flags: W
HStem: -20 116<431.698 785.086> 914 117<523.766 870.704> 1361 150<514 1089>
VStem: 1016 210<356.703 767.597>
DStem2: 231 787 459 970 0.158203 0.987407<216.766 611.543>
LayerCount: 2
Fore
SplineSet
100 301 m 1,0,-1
 287 370 l 1,1,2
 357 96 357 96 592 96 c 0,3,4
 787 96 787 96 910 242 c 0,5,6
 1016 367 1016 367 1016 544 c 0,7,8
 1016 738 1016 738 929 825 c 24,9,10
 838 914 838 914 709 914 c 0,11,12
 536 914 536 914 420 787 c 1,13,-1
 231 787 l 1,14,-1
 347 1511 l 1,15,-1
 1089 1511 l 1,16,-1
 1089 1361 l 1,17,-1
 514 1361 l 1,18,-1
 459 970 l 1,19,20
 587 1031 587 1031 729 1031 c 0,21,22
 982 1031 982 1031 1128 858 c 0,23,24
 1226 743 1226 743 1226 568 c 0,25,26
 1226 329 1226 329 1022 148 c 0,27,28
 833 -20 833 -20 593 -20 c 0,29,30
 240 -20 240 -20 100 301 c 1,0,-1
EndSplineSet
Validated: 1
EndChar

StartChar: six
Encoding: 54 54 25
Width: 1493
GlyphClass: 2
Flags: W
HStem: -20 120<542.396 902.592> 910 121<634.848 994.41> 1407 124<785.5 1130.9>
VStem: 150 224<335.653 786.471> 1133 210<363.355 772.666>
LayerCount: 2
Fore
SplineSet
1202 1512 m 1,0,-1
 1110 1398 l 1,1,2
 1057 1407 1057 1407 1010 1407 c 0,3,4
 880 1407 880 1407 768 1355 c 0,5,6
 570 1263 570 1263 464 1096 c 24,7,8
 384 970 384 970 352 776 c 1,9,10
 561 1031 561 1031 846 1031 c 0,11,12
 1075 1031 1075 1031 1216 892 c 0,13,14
 1343 767 1343 767 1343 564 c 0,15,16
 1343 386 1343 386 1209 218 c 0,17,18
 1018 -20 1018 -20 696 -20 c 0,19,20
 465 -20 465 -20 327 122 c 0,21,22
 150 304 150 304 150 616 c 0,23,24
 150 958 150 958 334 1178 c 0,25,26
 492 1368 492 1368 681 1458 c 0,27,28
 834 1531 834 1531 1024 1531 c 0,29,30
 1094 1531 1094 1531 1202 1512 c 1,0,-1
705 100 m 0,31,32
 915 100 915 100 1037 256 c 0,33,34
 1133 379 1133 379 1133 558 c 0,35,36
 1133 719 1133 719 1072 796 c 0,37,38
 982 910 982 910 830 910 c 0,39,40
 649 910 649 910 510 777 c 0,41,42
 374 647 374 647 374 470 c 0,43,44
 374 307 374 307 468 205 c 256,45,46
 564 100 564 100 705 100 c 0,31,32
EndSplineSet
Validated: 1
EndChar

StartChar: seven
Encoding: 55 55 26
Width: 1163
GlyphClass: 2
Flags: W
HStem: 0 21G<123 454.5> 1361 150<50 835.131>
VStem: 851 212<930.302 1359.39>
LayerCount: 2
Fore
SplineSet
123 0 m 1,0,1
 507 395 507 395 644 601 c 0,2,3
 851 912 851 912 851 1178 c 24,4,5
 851 1261 851 1261 825 1361 c 1,6,-1
 50 1361 l 1,7,-1
 50 1511 l 1,8,-1
 992 1511 l 1,9,10
 1063 1387 1063 1387 1063 1198 c 0,11,12
 1063 862 1063 862 785 509 c 0,13,14
 585 256 585 256 324 0 c 1,15,-1
 123 0 l 1,0,1
EndSplineSet
Validated: 1
EndChar

StartChar: eight
Encoding: 56 56 27
Width: 1344
GlyphClass: 2
Flags: W
HStem: -20 116<449.991 787.326> 902 131<567.381 809.366> 1408 123<597.603 847.156>
VStem: 100 199<245.962 643.092> 327 188<1072.45 1327.88> 892 187<1114.41 1372.91> 1045 199<346.31 754.037>
LayerCount: 2
Fore
SplineSet
760 1531 m 0,0,1
 888 1531 888 1531 980 1455 c 0,2,3
 1079 1375 1079 1375 1079 1263 c 0,4,5
 1079 1092 1079 1092 924 997 c 1,6,7
 1081 945 1081 945 1167 834 c 0,8,9
 1244 735 1244 735 1244 545 c 0,10,11
 1244 342 1244 342 1082 183 c 0,12,13
 876 -20 876 -20 597 -20 c 0,14,15
 347 -20 347 -20 220 116 c 0,16,17
 100 245 100 245 100 444 c 0,18,19
 100 626 100 626 235 787 c 0,20,21
 328 898 328 898 453 956 c 1,22,23
 327 1026 327 1026 327 1165 c 0,24,25
 327 1345 327 1345 501 1457 c 0,26,27
 615 1531 615 1531 760 1531 c 0,0,1
732 1408 m 0,28,29
 636 1408 636 1408 571 1341 c 0,30,31
 515 1283 515 1283 515 1178 c 0,32,33
 515 1104 515 1104 566 1066 c 0,34,35
 610 1033 610 1033 677 1033 c 0,36,37
 779 1033 779 1033 841 1106 c 0,38,39
 892 1166 892 1166 892 1262 c 0,40,41
 892 1338 892 1338 841 1378 c 0,42,43
 803 1408 803 1408 732 1408 c 0,28,29
734 902 m 0,44,45
 567 902 567 902 442 791 c 0,46,47
 299 664 299 664 299 477 c 0,48,49
 299 282 299 282 375 200 c 0,50,51
 473 96 473 96 612 96 c 0,52,53
 780 96 780 96 934 251 c 0,54,55
 1045 363 1045 363 1045 548 c 0,56,57
 1045 720 1045 720 961 810 c 0,58,59
 876 902 876 902 734 902 c 0,44,45
EndSplineSet
Validated: 1
EndChar

StartChar: nine
Encoding: 57 57 28
Width: 1493
GlyphClass: 2
Flags: W
HStem: -20 124<362.096 707.5> 480 121<498.59 858.152> 1411 120<590.408 950.604>
VStem: 150 210<738.334 1147.65> 1119 224<724.529 1175.35>
LayerCount: 2
Fore
SplineSet
291 -1 m 1,0,-1
 383 113 l 1,1,2
 436 104 436 104 483 104 c 0,3,4
 613 104 613 104 725 156 c 0,5,6
 923 248 923 248 1029 415 c 24,7,8
 1109 541 1109 541 1141 735 c 1,9,10
 932 480 932 480 647 480 c 0,11,12
 418 480 418 480 277 619 c 0,13,14
 150 744 150 744 150 947 c 0,15,16
 150 1125 150 1125 284 1293 c 0,17,18
 475 1531 475 1531 797 1531 c 0,19,20
 1028 1531 1028 1531 1166 1389 c 0,21,22
 1343 1207 1343 1207 1343 895 c 0,23,24
 1343 553 1343 553 1159 333 c 0,25,26
 1001 143 1001 143 812 53 c 0,27,28
 659 -20 659 -20 469 -20 c 0,29,30
 399 -20 399 -20 291 -1 c 1,0,-1
788 1411 m 0,31,32
 578 1411 578 1411 456 1255 c 0,33,34
 360 1132 360 1132 360 953 c 0,35,36
 360 792 360 792 421 715 c 0,37,38
 511 601 511 601 663 601 c 0,39,40
 844 601 844 601 983 734 c 0,41,42
 1119 864 1119 864 1119 1041 c 0,43,44
 1119 1204 1119 1204 1025 1306 c 256,45,46
 929 1411 929 1411 788 1411 c 0,31,32
EndSplineSet
Validated: 1
EndChar

StartChar: colon
Encoding: 58 58 29
Width: 552
GlyphClass: 2
Flags: W
HStem: -20 255<187.129 363.809> 636 255<187.129 363.809>
VStem: 150 252<19.1599 195.84 675.16 851.84>
LayerCount: 2
Fore
SplineSet
402 758 m 0,0,1
 402 710 402 710 366 672 c 0,2,3
 333 636 333 636 276 636 c 0,4,5
 222 636 222 636 186 674 c 0,6,7
 150 711 150 711 150 763 c 0,8,9
 150 816 150 816 186 853 c 0,10,11
 222 891 222 891 276 891 c 0,12,13
 327 891 327 891 365 854 c 1,14,15
 402 816 402 816 402 758 c 0,0,1
402 102 m 0,16,17
 402 54 402 54 366 16 c 0,18,19
 333 -20 333 -20 276 -20 c 0,20,21
 222 -20 222 -20 186 18 c 0,22,23
 150 55 150 55 150 107 c 0,24,25
 150 160 150 160 186 197 c 0,26,27
 222 235 222 235 276 235 c 0,28,29
 327 235 327 235 365 198 c 1,30,31
 402 160 402 160 402 102 c 0,16,17
EndSplineSet
Validated: 1
EndChar

StartChar: semicolon
Encoding: 59 59 30
Width: 610
GlyphClass: 2
Flags: W
HStem: 636 255<220.129 396.809>
VStem: 183 252<675.16 851.84> 275 185<-193.871 93.6787>
LayerCount: 2
Fore
SplineSet
314 290 m 1,0,1
 460 153 460 153 460 -38 c 0,2,3
 460 -246 460 -246 243 -366 c 1,4,-1
 150 -265 l 1,5,6
 275 -194 275 -194 275 -50 c 128,-1,7
 275 94 275 94 158 156 c 1,8,-1
 314 290 l 1,0,1
183 764 m 0,9,10
 183 816 183 816 219 853 c 0,11,12
 255 891 255 891 309 891 c 0,13,14
 360 891 360 891 398 854 c 0,15,16
 433 819 433 819 435 765 c 1,17,18
 435 711 435 711 398 673 c 1,19,20
 360 636 360 636 309 636 c 0,21,22
 255 636 255 636 219 674 c 0,23,24
 183 711 183 711 183 764 c 0,9,10
EndSplineSet
Validated: 1
EndChar

StartChar: less
Encoding: 60 60 31
Width: 1206
GlyphClass: 2
Flags: W
HStem: 149 220<786 1006> 1216 175<831 1006>
DStem2: 150 865 324 798 0.852 0.523542<113.171 913.075> 324 798 150 676 0.851556 -0.524264<0 805.67>
LayerCount: 2
Fore
SplineSet
150 676 m 1,0,-1
 150 865 l 1,1,-1
 1006 1391 l 1,2,-1
 1006 1216 l 1,3,-1
 324 798 l 1,4,-1
 1006 369 l 1,5,-1
 1006 149 l 1,6,-1
 150 676 l 1,0,-1
EndSplineSet
Validated: 1
EndChar

StartChar: equal
Encoding: 61 61 32
Width: 1183
GlyphClass: 2
Flags: W
HStem: 551 150<150 1033> 839 150<150 1033>
LayerCount: 2
Fore
SplineSet
1033 839 m 1,0,-1
 150 839 l 1,1,-1
 150 989 l 1,2,-1
 1033 989 l 1,3,-1
 1033 839 l 1,0,-1
1033 551 m 1,4,-1
 150 551 l 1,5,-1
 150 701 l 1,6,-1
 1033 701 l 1,7,-1
 1033 551 l 1,4,-1
EndSplineSet
Validated: 1
EndChar

StartChar: greater
Encoding: 62 62 33
Width: 1206
GlyphClass: 2
Flags: W
HStem: 150 175<200 375> 1172 220<200 420>
DStem2: 200 1392 200 1172 0.851556 -0.524264<115.338 921.008> 200 325 200 150 0.852 0.523542<0 799.904>
LayerCount: 2
Fore
SplineSet
1056 865 m 1,0,-1
 1056 676 l 1,1,-1
 200 150 l 1,2,-1
 200 325 l 1,3,-1
 882 743 l 1,4,-1
 200 1172 l 1,5,-1
 200 1392 l 1,6,-1
 1056 865 l 1,0,-1
EndSplineSet
Validated: 1
EndChar

StartChar: question
Encoding: 63 63 34
Width: 1372
GlyphClass: 2
Flags: W
HStem: -20 255<528.129 704.809> 1407 124<528.799 868.285>
VStem: 489 149<294.612 455.658> 491 252<19.1599 195.84> 1019 203<899.143 1254.96>
LayerCount: 2
Fore
SplineSet
743 102 m 0,0,1
 743 54 743 54 707 16 c 0,2,3
 674 -20 674 -20 617 -20 c 0,4,5
 563 -20 563 -20 527 18 c 0,6,7
 491 55 491 55 491 107 c 0,8,9
 491 160 491 160 527 197 c 0,10,11
 563 235 563 235 617 235 c 0,12,13
 668 235 668 235 706 198 c 1,14,15
 743 160 743 160 743 102 c 0,0,1
150 1169 m 1,16,17
 218 1308 218 1308 373 1421 c 0,18,19
 524 1531 524 1531 721 1531 c 0,20,21
 947 1531 947 1531 1094 1376 c 0,22,23
 1222 1240 1222 1240 1222 1056 c 0,24,25
 1222 816 1222 816 976 652 c 24,26,27
 952 636 952 636 674 452 c 0,28,29
 638 428 638 428 638 381 c 0,30,31
 638 327 638 327 690 288 c 1,32,-1
 539 288 l 1,33,34
 489 344 489 344 489 410 c 0,35,36
 489 485 489 485 578 553 c 0,37,38
 774 706 774 706 879 788 c 0,39,40
 1019 897 1019 897 1019 1084 c 0,41,42
 1019 1204 1019 1204 951 1291 c 0,43,44
 860 1407 860 1407 701 1407 c 0,45,46
 558 1407 558 1407 448 1303 c 0,47,48
 347 1208 347 1208 305 1084 c 1,49,-1
 150 1169 l 1,16,17
EndSplineSet
Validated: 1
EndChar

StartChar: at
Encoding: 64 64 35
Width: 1717
GlyphClass: 2
Flags: W
HStem: -410 123<624.677 1048.48> -20 124<821.964 1116.05> 0 21G<1316 1516.04> 687 47<1103.55 1162.11> 996 124<769.049 1158.93>
VStem: 150 202<19.1158 525.997> 530 199<193.375 499.304> 1316 200<0 171 330.22 828.013>
LayerCount: 2
Fore
SplineSet
1516 0 m 1,0,-1
 1316 0 l 1,1,-1
 1316 171 l 1,2,3
 1240 72 1240 72 1172 34 c 0,4,5
 1077 -20 1077 -20 960 -20 c 0,6,7
 780 -20 780 -20 657 75 c 24,8,9
 530 173 530 173 530 351 c 0,10,11
 530 528 530 528 696 645 c 24,12,13
 822 734 822 734 982 734 c 0,14,15
 1168 734 1168 734 1276 687 c 1,16,17
 1178 682 1178 682 1060 654 c 0,18,19
 909 618 909 618 816 543 c 24,20,21
 729 474 729 474 729 346 c 0,22,23
 729 222 729 222 808 158 c 0,24,25
 874 104 874 104 985 104 c 0,26,27
 1095 104 1095 104 1204 228 c 24,28,29
 1318 358 1318 358 1318 556 c 0,30,31
 1318 741 1318 741 1279 817 c 256,32,33
 1187 996 1187 996 992 996 c 0,34,35
 740 996 740 996 550 798 c 0,36,37
 352 590 352 590 352 294 c 0,38,39
 352 18 352 18 491 -144 c 0,40,41
 614 -287 614 -287 843 -287 c 0,42,43
 1045 -287 1045 -287 1197 -144 c 1,44,-1
 1328 -233 l 1,45,46
 1122 -410 1122 -410 838 -410 c 0,47,48
 519 -410 519 -410 327 -213 c 0,49,50
 150 -31 150 -31 150 260 c 0,51,52
 150 631 150 631 454 900 c 0,53,54
 703 1120 703 1120 1006 1120 c 0,55,56
 1239 1120 1239 1120 1391 964 c 0,57,58
 1517 835 1517 835 1517 564 c 2,59,-1
 1516 0 l 1,0,-1
EndSplineSet
Validated: 1
EndChar

StartChar: A
Encoding: 65 65 36
Width: 1537
GlyphClass: 2
Flags: W
HStem: 0 21G<5 183.448 1304.29 1532> 696 150<533 945> 1491 20G<662.185 874.815>
VStem: 5 170<0 170> 1313 219<0 219>
DStem2: 5 0 175 0 0.403327 0.915056<68.5656 824.023 987.094 987.094> 866 1511 736 1327 0.403327 -0.915056<115.938 640.375 803.85 1562.94>
LayerCount: 2
Fore
SplineSet
5 0 m 1,0,-1
 671 1511 l 1,1,-1
 866 1511 l 1,2,-1
 1532 0 l 1,3,-1
 1313 0 l 1,4,-1
 1010 696 l 1,5,-1
 469 696 l 1,6,-1
 175 0 l 1,7,-1
 5 0 l 1,0,-1
533 846 m 1,8,-1
 945 846 l 1,9,-1
 736 1327 l 1,10,-1
 533 846 l 1,8,-1
EndSplineSet
Validated: 1
EndChar

StartChar: B
Encoding: 66 66 37
Width: 1452
GlyphClass: 2
Flags: W
HStem: -20 108<537.738 866.022> 0 21G<200 400> 927 119<935 1003.68> 1408 123<541.751 806.829> 1491 20G<200 400>
VStem: 200 200<0 1256.08 1385 1511> 863 187<1127.1 1360.19> 1150 202<383.999 779.455>
LayerCount: 2
Fore
SplineSet
200 0 m 1,0,-1
 200 1511 l 1,1,-1
 400 1511 l 1,2,-1
 400 1385 l 1,3,4
 439 1430 439 1430 483 1459 c 0,5,6
 592 1531 592 1531 730 1531 c 0,7,8
 857 1531 857 1531 942 1471 c 0,9,10
 1050 1395 1050 1395 1050 1278 c 0,11,12
 1050 1148 1050 1148 935 1046 c 1,13,14
 1125 1046 1125 1046 1242 912 c 0,15,16
 1352 786 1352 786 1352 612 c 0,17,18
 1352 389 1352 389 1200 207 c 0,19,20
 1010 -20 1010 -20 703 -20 c 0,21,22
 522 -20 522 -20 448 130 c 1,23,24
 583 88 583 88 667 88 c 24,25,26
 873 88 873 88 1027 252 c 0,27,28
 1150 383 1150 383 1150 591 c 0,29,30
 1150 746 1150 746 1064 836 c 0,31,32
 978 927 978 927 845 927 c 0,33,34
 669 927 669 927 504 883 c 1,35,36
 659 956 659 956 766 1050 c 0,37,38
 863 1135 863 1135 863 1254 c 0,39,40
 863 1329 863 1329 799 1378 c 0,41,42
 761 1408 761 1408 676 1408 c 0,43,44
 573 1408 573 1408 489 1317 c 24,45,46
 400 1219 400 1219 400 1090 c 2,47,-1
 400 0 l 1,48,-1
 200 0 l 1,0,-1
EndSplineSet
Validated: 19457
EndChar

StartChar: C
Encoding: 67 67 38
Width: 1579
GlyphClass: 2
Flags: W
HStem: -20 123<581.989 1021.85> 1408 123<732.719 1175.49>
VStem: 100 210<415.995 948.509>
LayerCount: 2
Fore
SplineSet
1491 327 m 1,0,1
 1440 256 1440 256 1358 184 c 0,2,3
 1127 -20 1127 -20 788 -20 c 0,4,5
 469 -20 469 -20 271 185 c 0,6,7
 100 362 100 362 100 668 c 0,8,9
 100 1061 100 1061 401 1327 c 0,10,11
 632 1531 632 1531 971 1531 c 0,12,13
 1298 1531 1298 1531 1499 1314 c 9,14,-1
 1340 1220 l 17,15,16
 1214 1408 1214 1408 971 1408 c 0,17,18
 721 1408 721 1408 521 1231 c 0,19,20
 310 1043 310 1043 310 671 c 0,21,22
 310 433 310 433 434 270 c 0,23,24
 562 103 562 103 788 103 c 0,25,26
 1039 104 1039 104 1238 280 c 0,27,28
 1308 342 1308 342 1355 425 c 1,29,-1
 1491 327 l 1,0,1
EndSplineSet
Validated: 1
EndChar

StartChar: D
Encoding: 68 68 39
Width: 1642
GlyphClass: 2
Flags: W
HStem: -20 108<537.048 885.125> 0 21G<200 400> 1407 124<623.054 1067.9> 1491 20G<200 400>
VStem: 200 200<0 1201.69 1357 1511> 1342 200<580.111 1104.27>
LayerCount: 2
Fore
SplineSet
200 0 m 1,0,-1
 200 1511 l 1,1,-1
 400 1511 l 1,2,-1
 400 1357 l 1,3,4
 464 1423 464 1423 529 1455 c 0,5,6
 683 1531 683 1531 874 1531 c 0,7,8
 1184 1531 1184 1531 1372 1324 c 0,9,10
 1542 1137 1542 1137 1542 843 c 0,11,12
 1542 501 1542 501 1278 239 c 0,13,14
 1017 -20 1017 -20 703 -20 c 0,15,16
 522 -20 522 -20 448 130 c 1,17,18
 580 88 580 88 667 88 c 0,19,20
 921 88 921 88 1118 294 c 0,21,22
 1342 526 1342 526 1342 843 c 0,23,24
 1342 1087 1342 1087 1224 1238 c 0,25,26
 1092 1407 1092 1407 855 1407 c 0,27,28
 668 1407 668 1407 559 1326 c 0,29,30
 400 1207 400 1207 400 1030 c 2,31,-1
 400 0 l 1,32,-1
 200 0 l 1,0,-1
EndSplineSet
Validated: 1
EndChar

StartChar: E
Encoding: 69 69 40
Width: 1579
GlyphClass: 2
Flags: W
HStem: -20 123<581.989 1026.3> 696 150<323 1117> 1408 123<731.969 1175.49>
VStem: 100 210<418.941 696 846 944.891>
LayerCount: 2
Fore
SplineSet
1491 327 m 5,0,1
 1438 255 1438 255 1358 184 c 4,2,3
 1126 -20 1126 -20 788 -20 c 4,4,5
 469 -20 469 -20 271 185 c 4,6,7
 100 362 100 362 100 668 c 4,8,9
 100 1061 100 1061 401 1327 c 4,10,11
 632 1531 632 1531 971 1531 c 4,12,13
 1298 1531 1298 1531 1499 1314 c 5,14,-1
 1340 1220 l 5,15,16
 1214 1408 1214 1408 971 1408 c 4,17,18
 718 1408 718 1408 521 1231 c 4,19,20
 363 1090 363 1090 323 846 c 5,21,-1
 1117 846 l 5,22,-1
 1117 696 l 5,23,-1
 310 696 l 5,24,25
 310 433 310 433 434 270 c 4,26,27
 562 103 562 103 788 103 c 4,28,29
 1039 103 1039 103 1238 280 c 4,30,31
 1308 342 1308 342 1355 425 c 5,32,-1
 1491 327 l 5,0,1
EndSplineSet
Validated: 1
EndChar

StartChar: F
Encoding: 70 70 41
Width: 1333
GlyphClass: 2
Flags: W
HStem: 0 21G<200 400> 696 150<400 970> 1405 126<635.556 989.956> 1491 20G<200 400>
VStem: 200 200<0 696 846 1171.24 1332 1511>
LayerCount: 2
Fore
SplineSet
200 0 m 1,0,-1
 200 1511 l 1,1,-1
 400 1511 l 1,2,-1
 400 1332 l 1,3,4
 485 1421 485 1421 598 1475 c 0,5,6
 715 1531 715 1531 847 1531 c 0,7,8
 980 1531 980 1531 1100 1464 c 0,9,10
 1208 1405 1208 1405 1283 1294 c 1,11,-1
 1121 1197 l 1,12,13
 1085 1289 1085 1289 1014 1344 c 0,14,15
 936 1405 936 1405 821 1405 c 0,16,17
 671 1405 671 1405 549 1305 c 0,18,19
 400 1183 400 1183 400 948 c 2,20,-1
 400 846 l 1,21,-1
 970 846 l 1,22,-1
 970 696 l 1,23,-1
 400 696 l 1,24,-1
 400 0 l 1,25,-1
 200 0 l 1,0,-1
EndSplineSet
Validated: 1
EndChar

StartChar: G
Encoding: 71 71 42
Width: 1759
GlyphClass: 2
Flags: W
HStem: -20 123<581.989 1026.78> 696 150<1015 1440> 1408 123<732.469 1175.24>
VStem: 100 210<415.995 948.509>
LayerCount: 2
Fore
SplineSet
1659 846 m 1,0,1
 1659 450 1659 450 1358 184 c 0,2,3
 1127 -20 1127 -20 788 -20 c 0,4,5
 469 -20 469 -20 271 185 c 0,6,7
 100 362 100 362 100 668 c 0,8,9
 100 1061 100 1061 401 1327 c 0,10,11
 632 1531 632 1531 971 1531 c 0,12,13
 1298 1531 1298 1531 1499 1314 c 9,14,-1
 1340 1220 l 17,15,16
 1213 1408 1213 1408 971 1408 c 0,17,18
 720 1408 720 1408 521 1231 c 0,19,20
 310 1043 310 1043 310 671 c 0,21,22
 310 433 310 433 434 270 c 0,23,24
 562 103 562 103 788 103 c 0,25,26
 1040 104 1040 104 1238 280 c 0,27,28
 1406 430 1406 430 1440 696 c 1,29,-1
 1015 696 l 1,30,-1
 1015 846 l 1,31,-1
 1659 846 l 1,0,1
EndSplineSet
Validated: 1
EndChar

StartChar: H
Encoding: 72 72 43
Width: 1572
GlyphClass: 2
Flags: W
HStem: 0 21G<200 400 1172 1372> 696 150<400 1172> 1491 20G<200 400 1172 1372>
VStem: 200 200<0 696 846 1511> 1172 200<0 696 846 1511>
LayerCount: 2
Fore
SplineSet
200 0 m 1,0,-1
 200 1511 l 1,1,-1
 400 1511 l 1,2,-1
 400 846 l 1,3,-1
 1172 846 l 1,4,-1
 1172 1511 l 1,5,-1
 1372 1511 l 1,6,-1
 1372 0 l 1,7,-1
 1172 0 l 1,8,-1
 1172 696 l 1,9,-1
 400 696 l 1,10,-1
 400 0 l 1,11,-1
 200 0 l 1,0,-1
EndSplineSet
Validated: 1
EndChar

StartChar: I
Encoding: 73 73 44
Width: 600
GlyphClass: 2
Flags: W
HStem: 0 21G<200 400> 1491 20G<200 400>
VStem: 200 200<0 1511>
LayerCount: 2
Fore
SplineSet
200 0 m 1,0,-1
 200 1511 l 1,1,-1
 400 1511 l 1,2,-1
 400 0 l 1,3,-1
 200 0 l 1,0,-1
EndSplineSet
Validated: 1
EndChar

StartChar: J
Encoding: 74 74 45
Width: 1219
GlyphClass: 2
Flags: W
HStem: -20 123<228.789 560.41> 1361 150<379 818>
VStem: 819 200<421.016 1361>
LayerCount: 2
Fore
SplineSet
20 119 m 1,0,-1
 147 227 l 1,1,2
 229 103 229 103 398 103 c 0,3,4
 541 103 541 103 686 241 c 0,5,6
 819 368 819 368 819 611 c 2,7,-1
 818 1361 l 1,8,-1
 379 1361 l 1,9,-1
 379 1511 l 1,10,-1
 1018 1511 l 1,11,-1
 1019 667 l 2,12,13
 1019 371 1019 371 796 143 c 0,14,15
 637 -20 637 -20 386 -20 c 0,16,17
 187 -20 187 -20 20 119 c 1,0,-1
EndSplineSet
Validated: 1
EndChar

StartChar: K
Encoding: 75 75 46
Width: 1497
GlyphClass: 2
Flags: W
HStem: 0 21G<200 400 1145.58 1492> 339 133<400 613.411> 1491 20G<200 400 1034 1265>
VStem: 200 200<0 344.953 472 1511> 1034 206<1305 1511> 1090 200<936.844 1479.36> 1174 318<0 318>
DStem2: 827 465 624 387 0.819521 -0.573049<0 550.842>
LayerCount: 2
Fore
SplineSet
200 0 m 1,0,-1
 200 1511 l 1,1,-1
 400 1511 l 1,2,-1
 400 472 l 1,3,4
 540 482 540 482 665 537 c 0,5,6
 890 636 890 636 988 794 c 0,7,8
 1090 960 1090 960 1090 1206 c 24,9,10
 1090 1364 1090 1364 1034 1511 c 1,11,-1
 1240 1511 l 1,12,13
 1290 1391 1290 1391 1290 1208 c 0,14,15
 1290 942 1290 942 1134 720 c 0,16,17
 1026 568 1026 568 827 465 c 1,18,-1
 1492 0 l 1,19,-1
 1174 0 l 1,20,-1
 624 387 l 1,21,22
 511 353 511 353 400 339 c 1,23,-1
 400 0 l 1,24,-1
 200 0 l 1,0,-1
EndSplineSet
Validated: 1
EndChar

StartChar: L
Encoding: 76 76 47
Width: 1048
GlyphClass: 2
Flags: W
HStem: 0 150<400 1028> 1491 20G<200 400>
VStem: 200 200<150 1511>
LayerCount: 2
Fore
SplineSet
200 0 m 1,0,-1
 200 1511 l 1,1,-1
 400 1511 l 1,2,-1
 400 150 l 1,3,-1
 1028 150 l 1,4,-1
 1028 0 l 1,5,-1
 200 0 l 1,0,-1
EndSplineSet
Validated: 1
EndChar

StartChar: M
Encoding: 77 77 48
Width: 2472
GlyphClass: 2
Flags: W
HStem: 0 21G<200 400 1136 1336 2072 2272> 1407 124<657.655 1014.95 1593.47 1950.73> 1491 20G<200 400>
VStem: 200 200<0 1156.61 1333 1511> 1136 200<0 1156.61> 2072 200<0 1283.73>
CounterMasks: 1 1c
LayerCount: 2
Fore
SplineSet
200 0 m 1,0,-1
 200 1511 l 1,1,-1
 400 1511 l 1,2,-1
 400 1333 l 1,3,4
 486 1420 486 1420 617 1475 c 0,5,6
 750 1531 750 1531 888 1531 c 0,7,8
 1092 1531 1092 1531 1222 1408 c 0,9,10
 1271 1362 1271 1362 1299 1299 c 1,11,12
 1413 1407 1413 1407 1553 1475 c 0,13,14
 1670 1531 1670 1531 1824 1531 c 0,15,16
 2027 1531 2027 1531 2158 1408 c 0,17,18
 2272 1302 2272 1302 2272 1104 c 2,19,-1
 2272 0 l 1,20,-1
 2072 0 l 1,21,-1
 2072 1102 l 2,22,23
 2072 1245 2072 1245 2000 1321 c 0,24,25
 1919 1407 1919 1407 1807 1407 c 0,26,27
 1618 1407 1618 1407 1485 1292 c 0,28,29
 1336 1163 1336 1163 1336 944 c 2,30,-1
 1336 0 l 1,31,-1
 1136 0 l 1,32,-1
 1136 1102 l 2,33,34
 1136 1245 1136 1245 1064 1321 c 0,35,36
 983 1407 983 1407 871 1407 c 0,37,38
 682 1407 682 1407 549 1292 c 0,39,40
 400 1163 400 1163 400 944 c 2,41,-1
 400 0 l 1,42,-1
 200 0 l 1,0,-1
EndSplineSet
Validated: 1
EndChar

StartChar: N
Encoding: 78 78 49
Width: 1571
GlyphClass: 2
Flags: W
HStem: 0 21G<200 400 1171 1371> 1407 124<657.86 1042.03> 1491 20G<200 400>
VStem: 200 200<0 1156.61 1333 1511> 1171 200<0 1275.62>
LayerCount: 2
Fore
SplineSet
200 0 m 1,0,-1
 200 1511 l 1,1,-1
 400 1511 l 1,2,-1
 400 1333 l 1,3,4
 484 1418 484 1418 617 1475 c 0,5,6
 748 1531 748 1531 888 1531 c 0,7,8
 1121 1531 1121 1531 1248 1409 c 24,9,10
 1371 1289 1371 1289 1371 1104 c 2,11,-1
 1371 0 l 1,12,-1
 1171 0 l 1,13,-1
 1171 1102 l 2,14,15
 1171 1238 1171 1238 1093 1320 c 0,16,17
 1011 1407 1011 1407 871 1407 c 0,18,19
 684 1407 684 1407 549 1292 c 0,20,21
 400 1163 400 1163 400 944 c 2,22,-1
 400 0 l 1,23,-1
 200 0 l 1,0,-1
EndSplineSet
Validated: 1
EndChar

StartChar: O
Encoding: 79 79 50
Width: 1759
GlyphClass: 2
Flags: W
HStem: -20 123<581.989 1026.78> 1408 123<732.219 1177.01>
VStem: 100 210<415.995 948.509> 1449 210<562.491 1095.01>
LayerCount: 2
Fore
SplineSet
788 -20 m 0,0,1
 469 -20 469 -20 271 185 c 0,2,3
 100 362 100 362 100 668 c 0,4,5
 100 1061 100 1061 401 1327 c 0,6,7
 632 1531 632 1531 971 1531 c 0,8,9
 1290 1531 1290 1531 1488 1326 c 0,10,11
 1659 1149 1659 1149 1659 843 c 0,12,13
 1659 450 1659 450 1358 184 c 0,14,15
 1127 -20 1127 -20 788 -20 c 0,0,1
788 103 m 0,16,17
 1040 104 1040 104 1238 280 c 0,18,19
 1449 468 1449 468 1449 840 c 0,20,21
 1449 1078 1449 1078 1325 1241 c 0,22,23
 1197 1408 1197 1408 971 1408 c 0,24,25
 719 1407 719 1407 521 1231 c 0,26,27
 310 1043 310 1043 310 671 c 0,28,29
 310 433 310 433 434 270 c 0,30,31
 562 103 562 103 788 103 c 0,16,17
EndSplineSet
Validated: 1
EndChar

StartChar: P
Encoding: 80 80 51
Width: 1450
GlyphClass: 2
Flags: W
HStem: 0 21G<200 400> 349 108<543.706 878.714> 1407 124<656.644 991.988> 1491 20G<200 400>
VStem: 200 200<0 1158 1332 1511> 1140 210<772.166 1245.5>
LayerCount: 2
Fore
SplineSet
200 0 m 1,0,-1
 200 1511 l 1,1,-1
 400 1511 l 1,2,-1
 400 1332 l 1,3,4
 486 1424 486 1424 598 1475 c 0,5,6
 721 1531 721 1531 853 1531 c 0,7,8
 1071 1531 1071 1531 1224 1373 c 24,9,10
 1350 1243 1350 1243 1350 1033 c 0,11,12
 1350 699 1350 699 1104 492 c 0,13,14
 934 349 934 349 727 349 c 0,15,16
 522 349 522 349 448 499 c 1,17,18
 583 457 583 457 691 457 c 0,19,20
 873 457 873 457 992 588 c 0,21,22
 1140 751 1140 751 1140 1019 c 0,23,24
 1140 1189 1140 1189 1072 1286 c 256,25,26
 987 1407 987 1407 832 1407 c 0,27,28
 687 1407 687 1407 547 1290 c 0,29,30
 400 1167 400 1167 400 944 c 2,31,-1
 400 0 l 1,32,-1
 200 0 l 1,0,-1
EndSplineSet
Validated: 1
EndChar

StartChar: Q
Encoding: 81 81 52
Width: 1766
GlyphClass: 2
Flags: W
HStem: -20 123<581.989 1022.3> 0 21G<1392.14 1738> 1408 123<732.219 1177.01>
VStem: 100 210<415.995 948.509> 687 318<210 528> 1449 210<562.528 1095.01>
DStem2: 1005 528 687 528 0.811408 -0.58448<0 296.477 501.496 645.34>
LayerCount: 2
Fore
SplineSet
1738 0 m 1,0,-1
 1420 0 l 1,1,-1
 1264 112 l 1,2,3
 1061 -20 1061 -20 788 -20 c 0,4,5
 469 -20 469 -20 271 185 c 0,6,7
 100 362 100 362 100 668 c 0,8,9
 100 1061 100 1061 401 1327 c 0,10,11
 632 1531 632 1531 971 1531 c 0,12,13
 1290 1531 1290 1531 1488 1326 c 0,14,15
 1659 1149 1659 1149 1659 843 c 0,16,17
 1659 487 1659 487 1412 235 c 1,18,-1
 1738 0 l 1,0,-1
1285 327 m 1,19,20
 1449 512 1449 512 1449 840 c 0,21,22
 1449 1078 1449 1078 1325 1241 c 0,23,24
 1197 1408 1197 1408 971 1408 c 0,25,26
 719 1407 719 1407 521 1231 c 0,27,28
 310 1043 310 1043 310 671 c 0,29,30
 310 433 310 433 434 270 c 0,31,32
 562 103 562 103 788 103 c 0,33,34
 977 103 977 103 1137 204 c 1,35,-1
 687 528 l 1,36,-1
 1005 528 l 1,37,-1
 1285 327 l 1,19,20
EndSplineSet
Validated: 1
EndChar

StartChar: R
Encoding: 82 82 53
Width: 1525
GlyphClass: 2
Flags: W
HStem: 0 21G<200 400 1128.58 1475> 1407 124<656.644 991.988> 1491 20G<200 400>
VStem: 200 200<0 1158 1332 1511> 1140 210<771.684 1245.35> 1157 318<0 318>
DStem2: 924 386 1157 0 0.817766 -0.575551<0 412.702>
LayerCount: 2
Fore
SplineSet
200 0 m 1,0,-1
 200 1511 l 1,1,-1
 400 1511 l 1,2,-1
 400 1332 l 1,3,4
 486 1424 486 1424 598 1475 c 0,5,6
 721 1531 721 1531 853 1531 c 0,7,8
 1071 1531 1071 1531 1224 1373 c 0,9,10
 1350 1243 1350 1243 1350 1033 c 0,11,12
 1350 696 1350 696 1104 492 c 0,13,14
 1024 425 1024 425 924 386 c 1,15,-1
 1475 0 l 1,16,-1
 1157 0 l 1,17,-1
 448 499 l 1,18,19
 583 457 583 457 691 457 c 0,20,21
 874 457 874 457 992 588 c 0,22,23
 1140 752 1140 752 1140 1019 c 0,24,25
 1140 1188 1140 1188 1072 1286 c 24,26,27
 987 1407 987 1407 832 1407 c 0,28,29
 687 1407 687 1407 547 1290 c 24,30,31
 400 1167 400 1167 400 944 c 2,32,-1
 400 0 l 1,33,-1
 200 0 l 1,0,-1
EndSplineSet
Validated: 1
EndChar

StartChar: S
Encoding: 83 83 54
Width: 1511
GlyphClass: 2
Flags: W
HStem: -20 123<450.022 857.686> 1407 124<647.932 970.139>
VStem: 300 188<1039.32 1262.61> 1206 205<423.131 685.376>
DStem2: 609 1008 581 802 0.98486 -0.173351<-111.615 632.453>
LayerCount: 2
Fore
SplineSet
80 263 m 1,0,-1
 237 350 l 1,1,2
 389 103 389 103 646 103 c 0,3,4
 861 103 861 103 1040 270 c 24,5,6
 1206 424 1206 424 1206 584 c 0,7,8
 1206 694 1206 694 1090 717 c 8,9,-1
 581 802 l 0,10,11
 300 843 300 843 300 1083 c 0,12,13
 300 1262 300 1262 447 1388 c 0,14,15
 614 1531 614 1531 837 1531 c 0,16,17
 1013 1531 1013 1531 1193 1391 c 1,18,-1
 1057 1290 l 1,19,20
 953 1407 953 1407 816 1407 c 0,21,22
 684 1407 684 1407 576 1311 c 0,23,24
 488 1232 488 1232 488 1132.5 c 128,-1,25
 488 1033 488 1033 609 1008 c 0,26,-1
 1126 917 l 0,27,28
 1411 866 1411 866 1411 610 c 0,29,30
 1411 368 1411 368 1154 157 c 0,31,32
 937 -20 937 -20 633 -20 c 0,33,34
 294 -20 294 -20 80 263 c 1,0,-1
EndSplineSet
Validated: 1
EndChar

StartChar: T
Encoding: 84 84 55
Width: 1160
GlyphClass: 2
Flags: W
HStem: 0 21G<480 680> 1361 150<20 480 680 1140>
VStem: 480 200<0 1361>
LayerCount: 2
Fore
SplineSet
480 0 m 1,0,-1
 480 1361 l 1,1,-1
 20 1361 l 1,2,-1
 20 1511 l 1,3,-1
 1140 1511 l 1,4,-1
 1140 1361 l 1,5,-1
 680 1361 l 1,6,-1
 680 0 l 1,7,-1
 480 0 l 1,0,-1
EndSplineSet
Validated: 1
EndChar

StartChar: U
Encoding: 85 85 56
Width: 1571
GlyphClass: 2
Flags: W
HStem: -20 124<528.967 913.14> 0 21G<1171 1371> 1491 20G<200 400 1171 1371>
VStem: 200 200<235.375 1511> 1171 200<0 178 354.385 1511>
LayerCount: 2
Fore
SplineSet
200 1511 m 1,0,-1
 400 1511 l 1,1,-1
 400 409 l 2,2,3
 400 273 400 273 478 191 c 0,4,5
 560 104 560 104 700 104 c 0,6,7
 887 104 887 104 1022 219 c 0,8,9
 1171 348 1171 348 1171 567 c 2,10,-1
 1171 1511 l 1,11,-1
 1371 1511 l 1,12,-1
 1371 0 l 1,13,-1
 1171 0 l 1,14,-1
 1171 178 l 1,15,16
 1087 93 1087 93 954 36 c 0,17,18
 823 -20 823 -20 683 -20 c 0,19,20
 450 -20 450 -20 323 102 c 24,21,22
 200 222 200 222 200 407 c 2,23,-1
 200 1511 l 1,0,-1
EndSplineSet
Validated: 1
EndChar

StartChar: V
Encoding: 86 86 57
Width: 1537
GlyphClass: 2
Flags: W
HStem: 0 21G<662.185 874.815> 1491 20G<5 232.829 1353.42 1532>
VStem: 5 219<1292 1511> 1362 170<1341 1511>
DStem2: 224 1511 5 1511 0.403327 -0.915056<0 1428.7> 801 204 866 0 0.403327 0.915056<0 1422.24>
LayerCount: 2
Fore
SplineSet
671 0 m 1,0,-1
 5 1511 l 1,1,-1
 224 1511 l 1,2,-1
 801 204 l 1,3,-1
 1362 1511 l 1,4,-1
 1532 1511 l 1,5,-1
 866 0 l 1,6,-1
 671 0 l 1,0,-1
EndSplineSet
Validated: 1
EndChar

StartChar: W
Encoding: 87 87 58
Width: 2510
GlyphClass: 2
Flags: W
HStem: -20 124<540.231 877.652 1472.59 1830.35> 1491 20G<200 400 1136 1336 1800 2138>
VStem: 200 200<238.271 1511> 1136 200<351.068 1511> 2209 201<553.447 1069.87>
LayerCount: 2
Fore
SplineSet
200 1511 m 1,0,-1
 400 1511 l 1,1,-1
 400 409 l 2,2,3
 400 273 400 273 475 198 c 0,4,5
 568 104 568 104 712 104 c 0,6,7
 838 104 838 104 975 211 c 24,8,9
 1136 335 1136 335 1136 544 c 2,10,-1
 1136 1511 l 1,11,-1
 1336 1511 l 1,12,-1
 1336 409 l 2,13,14
 1336 243 1336 243 1432 174 c 0,15,16
 1529 104 1529 104 1648 104 c 0,17,18
 1827 104 1827 104 1977 258 c 0,19,20
 2209 496 2209 496 2209 821 c 0,21,22
 2209 1025 2209 1025 2093 1224 c 24,23,24
 2004 1375 2004 1375 1800 1511 c 1,25,-1
 2072 1511 l 1,26,27
 2204 1410 2204 1410 2284 1275 c 0,28,29
 2410 1065 2410 1065 2410 827 c 0,30,31
 2410 424 2410 424 2073 147 c 0,32,33
 1870 -20 1870 -20 1623 -20 c 0,34,35
 1464 -20 1464 -20 1357 39 c 24,36,37
 1250 97 1250 97 1178 222 c 1,38,39
 1126 152 1126 152 1008 80 c 0,40,41
 847 -20 847 -20 687 -20 c 0,42,43
 462 -20 462 -20 322 103 c 24,44,45
 200 212 200 212 200 407 c 2,46,-1
 200 1511 l 1,0,-1
EndSplineSet
Validated: 1
EndChar

StartChar: X
Encoding: 88 88 59
Width: 1381
GlyphClass: 2
Flags: W
HStem: 0 21G<5 217.437 1106.7 1376> 1491 20G<7 276.443 1166.72 1376>
VStem: 5 197<0 197> 7 255<1256 1511> 1121 255<0 255> 1182 194<1317 1511>
DStem2: 5 0 202 0 0.614519 0.788902<121.06 901.727 1136.32 1915.32> 262 1511 7 1511 0.593417 -0.804895<0 763.488 966.226 1725.94>
LayerCount: 2
Fore
SplineSet
5 0 m 1,0,-1
 578 736 l 1,1,-1
 7 1511 l 1,2,-1
 262 1511 l 1,3,-1
 709 892 l 1,4,-1
 1182 1511 l 1,5,-1
 1376 1511 l 1,6,-1
 805 775 l 1,7,-1
 1376 0 l 1,8,-1
 1121 0 l 1,9,-1
 679 618 l 1,10,-1
 202 0 l 1,11,-1
 5 0 l 1,0,-1
EndSplineSet
Validated: 1
EndChar

StartChar: Y
Encoding: 89 89 60
Width: 1372
GlyphClass: 2
Flags: W
HStem: 0 21G<573 773> 1491 20G<5 239.128 1185.51 1367>
VStem: 5 224<1287 1511> 573 200<0 416> 1196 171<1340 1511>
DStem2: 229 1511 5 1511 0.460459 -0.887681<0 1051.36> 704 573 773 416 0.476826 0.878998<0 1059.1>
LayerCount: 2
Fore
SplineSet
573 0 m 1,0,-1
 573 416 l 1,1,-1
 5 1511 l 1,2,-1
 229 1511 l 1,3,-1
 704 573 l 1,4,-1
 1196 1511 l 1,5,-1
 1367 1511 l 1,6,-1
 773 416 l 1,7,-1
 773 0 l 1,8,-1
 573 0 l 1,0,-1
EndSplineSet
Validated: 1
EndChar

StartChar: Z
Encoding: 90 90 61
Width: 1390
GlyphClass: 2
Flags: W
HStem: 0 150<70 151.301 355 1230> 1361 150<203 994.248>
VStem: 1015 200<925.445 1357.77>
LayerCount: 2
Fore
SplineSet
70 0 m 1,0,-1
 70 150 l 1,1,2
 735 492 735 492 933 847 c 0,3,4
 1015 994 1015 994 1015 1155 c 0,5,6
 1015 1262 1015 1262 981 1361 c 1,7,-1
 203 1361 l 1,8,-1
 203 1511 l 1,9,-1
 1138 1511 l 1,10,11
 1215 1359 1215 1359 1215 1131 c 0,12,13
 1215 938 1215 938 1091 741 c 0,14,15
 940 503 940 503 355 150 c 1,16,-1
 1230 150 l 1,17,-1
 1230 0 l 1,18,-1
 70 0 l 1,0,-1
EndSplineSet
Validated: 1
EndChar

StartChar: bracketleft
Encoding: 91 91 62
Width: 853
GlyphClass: 2
Flags: W
HStem: -289 150<400 803> 1668 150<400 803>
VStem: 200 200<-139 1668>
LayerCount: 2
Fore
SplineSet
200 -289 m 1,0,-1
 200 1818 l 1,1,-1
 803 1818 l 1,2,-1
 803 1668 l 1,3,-1
 400 1668 l 1,4,-1
 400 -139 l 1,5,-1
 803 -139 l 1,6,-1
 803 -289 l 1,7,-1
 200 -289 l 1,0,-1
EndSplineSet
Validated: 1
EndChar

StartChar: backslash
Encoding: 92 92 63
Width: 1171
GlyphClass: 2
Flags: W
VStem: 10 176<1511 1687> 985 176<-183 -7>
DStem2: 186 1687 10 1687 0.462323 -0.886712<0 2027.55>
LayerCount: 2
Fore
SplineSet
10 1687 m 1,0,-1
 186 1687 l 1,1,-1
 1161 -183 l 1,2,-1
 985 -183 l 1,3,-1
 10 1687 l 1,0,-1
EndSplineSet
Validated: 1
EndChar

StartChar: bracketright
Encoding: 93 93 64
Width: 853
GlyphClass: 2
Flags: W
HStem: -289 150<50 453> 1668 150<50 453>
VStem: 453 200<-139 1668>
LayerCount: 2
Fore
SplineSet
653 -289 m 1,0,-1
 50 -289 l 1,1,-1
 50 -139 l 1,2,-1
 453 -139 l 1,3,-1
 453 1668 l 1,4,-1
 50 1668 l 1,5,-1
 50 1818 l 1,6,-1
 653 1818 l 1,7,-1
 653 -289 l 1,0,-1
EndSplineSet
Validated: 1
EndChar

StartChar: asciicircum
Encoding: 94 94 65
Width: 1476
GlyphClass: 2
Flags: W
HStem: 988 523
VStem: 100 205<988 1193> 1097 279<988 1267>
DStem2: 100 988 305 988 0.722785 0.691073<148.171 698.606> 829 1511 708 1363 0.722785 -0.691073<14.8217 555.137>
LayerCount: 2
Fore
SplineSet
100 988 m 1,0,-1
 647 1511 l 1,1,-1
 829 1511 l 1,2,-1
 1376 988 l 1,3,-1
 1097 988 l 1,4,-1
 708 1363 l 1,5,-1
 305 988 l 1,6,-1
 100 988 l 1,0,-1
EndSplineSet
Validated: 1
EndChar

StartChar: underscore
Encoding: 95 95 66
Width: 1183
GlyphClass: 2
Flags: W
HStem: -410 150<150 1033>
LayerCount: 2
Fore
SplineSet
1033 -410 m 1,0,-1
 150 -410 l 1,1,-1
 150 -260 l 1,2,-1
 1033 -260 l 1,3,-1
 1033 -410 l 1,0,-1
EndSplineSet
Validated: 1
EndChar

StartChar: grave
Encoding: 96 96 67
Width: 772
GlyphClass: 2
Flags: W
HStem: 1032 479
VStem: 150 472
DStem2: 256 1511 150 1403 0.702293 -0.711888<2.44076 521.15>
LayerCount: 2
Fore
SplineSet
515 1032 m 1,0,-1
 150 1403 l 1,1,-1
 256 1511 l 1,2,-1
 622 1140 l 1,3,-1
 515 1032 l 1,0,-1
EndSplineSet
Validated: 1
EndChar

StartChar: a
Encoding: 97 97 68
Width: 1297
GlyphClass: 2
Flags: W
HStem: -20 123<455.111 735.674> 0 21G<897 1097> 996 124<551.276 841.755>
VStem: 100 210<265.899 708.34> 897 200<0 933.586>
LayerCount: 2
Fore
SplineSet
1097 0 m 1,0,-1
 897 0 l 1,1,-1
 897 815 l 2,2,3
 897 890 897 890 858 935 c 0,4,5
 806 996 806 996 730 996 c 0,6,7
 568 996 568 996 454 879 c 0,8,9
 310 731 310 731 310 488 c 0,10,11
 310 305 310 305 374 222 c 0,12,13
 466 103 466 103 616 103 c 0,14,15
 744 103 744 103 840 282 c 1,16,17
 840 -20 840 -20 597 -20 c 0,18,19
 352 -20 352 -20 226 133 c 128,-1,20
 100 286 100 286 100 488 c 0,21,22
 100 752 100 752 332 966 c 0,23,24
 499 1120 499 1120 747 1120 c 0,25,26
 878 1120 878 1120 976 1038 c 0,27,28
 1097 937 1097 937 1097 751 c 2,29,-1
 1097 0 l 1,0,-1
EndSplineSet
Validated: 1
EndChar

StartChar: b
Encoding: 98 98 69
Width: 1297
GlyphClass: 2
Flags: W
HStem: -20 124<454.348 745.724> 997 123<561.326 841.889> 1491 20G<200 400>
VStem: 200 200<166.444 1511> 987 210<391.66 834.101>
LayerCount: 2
Fore
SplineSet
200 1511 m 1,0,-1
 400 1511 l 1,1,-1
 400 285 l 2,2,3
 400 211 400 211 439 165 c 0,4,5
 491 104 491 104 567 104 c 0,6,7
 729 104 729 104 843 221 c 0,8,9
 987 369 987 369 987 612 c 0,10,11
 987 795 987 795 923 878 c 0,12,13
 831 997 831 997 681 997 c 0,14,15
 553 997 553 997 457 818 c 1,16,17
 457 1120 457 1120 700 1120 c 0,18,19
 945 1120 945 1120 1071 967 c 128,-1,20
 1197 814 1197 814 1197 612 c 0,21,22
 1197 348 1197 348 965 134 c 0,23,24
 798 -20 798 -20 550 -20 c 0,25,26
 423 -20 423 -20 321 62 c 0,27,28
 200 160 200 160 200 349 c 2,29,-1
 200 1511 l 1,0,-1
EndSplineSet
Validated: 1
EndChar

StartChar: c
Encoding: 99 99 70
Width: 1184
GlyphClass: 2
Flags: W
HStem: -20 124<458.623 794.514> 997 123<549.064 882.293>
VStem: 100 210<261.956 715.584>
LayerCount: 2
Fore
SplineSet
1101 226 m 17,0,1
 1068 185 1068 185 1012 135 c 0,2,3
 838 -20 838 -20 597 -20 c 0,4,5
 372 -20 372 -20 227 133 c 24,6,7
 100 267 100 267 100 497 c 0,8,9
 100 759 100 759 332 965 c 0,10,11
 506 1120 506 1120 747 1120 c 0,12,13
 965 1120 965 1120 1104 980 c 1,14,-1
 966 876 l 1,15,16
 868 997 868 997 728 997 c 24,17,18
 556 997 556 997 444 866 c 0,19,20
 310 711 310 711 310 479 c 0,21,22
 310 297 310 297 392 206 c 0,23,24
 483 104 483 104 614 104 c 0,25,26
 787 104 787 104 900 234 c 0,27,28
 943 284 943 284 972 341 c 9,29,-1
 1101 226 l 17,0,1
EndSplineSet
Validated: 1
EndChar

StartChar: d
Encoding: 100 100 71
Width: 1297
GlyphClass: 2
Flags: W
HStem: -20 124<443.832 731.086> 0 21G<897 1097> 996 124<548.431 812.147> 1491 20G<897 1097>
VStem: 100 210<257.834 707.84> 897 200<0 158 304.425 1511>
LayerCount: 2
Fore
SplineSet
1097 0 m 1,0,-1
 897 0 l 1,1,-1
 897 158 l 1,2,3
 858 91 858 91 800 46 c 0,4,5
 715 -20 715 -20 597 -20 c 0,6,7
 369 -20 369 -20 226 133 c 0,8,9
 100 268 100 268 100 488 c 0,10,11
 100 752 100 752 332 966 c 0,12,13
 499 1120 499 1120 687 1120 c 24,14,15
 848 1120 848 1120 848 964 c 1,16,17
 788 996 788 996 720 996 c 0,18,19
 566 996 566 996 454 879 c 24,20,21
 310 728 310 728 310 490 c 0,22,23
 310 324 310 324 374 222 c 0,24,25
 448 104 448 104 599 104 c 0,26,27
 713 104 713 104 799 216 c 0,28,29
 897 345 897 345 897 509 c 2,30,-1
 897 1511 l 1,31,-1
 1097 1511 l 1,32,-1
 1097 0 l 1,0,-1
EndSplineSet
Validated: 1
EndChar

StartChar: e
Encoding: 101 101 72
Width: 1184
GlyphClass: 2
Flags: W
HStem: -20 124<458.623 794.27> 487 150<327 862> 997 123<549.064 882.293>
VStem: 100 210<263.148 487>
LayerCount: 2
Fore
SplineSet
1101 226 m 1,0,1
 1068 185 1068 185 1012 135 c 0,2,3
 838 -20 838 -20 597 -20 c 0,4,5
 372 -20 372 -20 227 133 c 0,6,7
 100 267 100 267 100 497 c 0,8,9
 100 759 100 759 332 965 c 0,10,11
 506 1120 506 1120 747 1120 c 0,12,13
 965 1120 965 1120 1104 980 c 1,14,-1
 966 876 l 1,15,16
 868 997 868 997 728 997 c 0,17,18
 556 997 556 997 444 866 c 0,19,20
 358 765 358 765 327 637 c 1,21,-1
 862 637 l 1,22,-1
 862 487 l 1,23,-1
 310 487 l 1,24,25
 310 297 310 297 392 206 c 0,26,27
 483 104 483 104 614 104 c 0,28,29
 786 104 786 104 900 234 c 0,30,31
 943 284 943 284 972 341 c 1,32,-1
 1101 226 l 1,0,1
EndSplineSet
Validated: 1
EndChar

StartChar: f
Encoding: 102 102 73
Width: 1036
GlyphClass: 2
Flags: W
HStem: 0 21G<200 400> 769 144<114 200 400 785> 1408 123<552.958 847.805>
VStem: 200 200<0 769 916 1197.07>
LayerCount: 2
Fore
SplineSet
200 0 m 1,0,-1
 200 771 l 1,1,-1
 114 771 l 1,2,-1
 114 916 l 1,3,-1
 200 916 l 1,4,-1
 200 1000 l 2,5,6
 200 1196 200 1196 364 1373 c 0,7,8
 510 1531 510 1531 719 1531 c 0,9,10
 905 1531 905 1531 1056 1389 c 1,11,-1
 919 1290 l 1,12,13
 836 1408 836 1408 709 1408 c 0,14,15
 566 1408 566 1408 487 1303 c 0,16,17
 400 1189 400 1189 400 1008 c 2,18,-1
 400 913 l 1,19,-1
 785 913 l 1,20,-1
 785 769 l 1,21,-1
 400 769 l 1,22,-1
 400 0 l 1,23,-1
 200 0 l 1,0,-1
EndSplineSet
Validated: 1
EndChar

StartChar: g
Encoding: 103 103 74
Width: 1297
GlyphClass: 2
Flags: W
HStem: -410 123<313.216 644.898> -20 123<455.111 735.674> 996 124<551.276 841.755>
VStem: 100 210<265.899 708.34> 897 200<17.3047 933.586>
LayerCount: 2
Fore
SplineSet
97 -271 m 1,0,-1
 224 -163 l 1,1,2
 328 -287 328 -287 467 -287 c 0,3,4
 632 -287 632 -287 748 -160 c 0,5,6
 897 1 897 1 897 282 c 2,7,-1
 897 815 l 2,8,9
 897 890 897 890 858 935 c 0,10,11
 806 996 806 996 730 996 c 0,12,13
 568 996 568 996 454 879 c 0,14,15
 310 731 310 731 310 488 c 0,16,17
 310 305 310 305 374 222 c 0,18,19
 466 103 466 103 616 103 c 0,20,21
 744 103 744 103 840 282 c 1,22,23
 840 -20 840 -20 597 -20 c 0,24,25
 352 -20 352 -20 226 133 c 128,-1,26
 100 286 100 286 100 488 c 0,27,28
 100 752 100 752 332 966 c 0,29,30
 499 1120 499 1120 747 1120 c 0,31,32
 878 1120 878 1120 976 1038 c 0,33,34
 1097 937 1097 937 1097 751 c 2,35,-1
 1097 282 l 2,36,37
 1097 -27 1097 -27 908 -207 c 0,38,39
 695 -410 695 -410 451 -410 c 0,40,41
 261 -410 261 -410 97 -271 c 1,0,-1
EndSplineSet
Validated: 1
EndChar

StartChar: h
Encoding: 104 104 75
Width: 1382
GlyphClass: 2
Flags: W
HStem: 0 21G<200 400 982 1182> 982 138<615.721 918.964> 1491 20G<200 400>
VStem: 200 200<0 779.121 942 1511> 982 200<0 915>
LayerCount: 2
Fore
SplineSet
200 0 m 1,0,-1
 200 1511 l 1,1,-1
 400 1511 l 1,2,-1
 400 942 l 1,3,4
 476 1013 476 1013 576 1063 c 0,5,6
 688 1120 688 1120 832 1120 c 0,7,8
 956 1120 956 1120 1058 1037 c 0,9,10
 1182 936 1182 936 1182 751 c 2,11,-1
 1182 0 l 1,12,-1
 982 0 l 1,13,-1
 982 751 l 2,14,15
 982 875 982 875 926 931 c 0,16,17
 876 981 876 981 799 982 c 0,18,19
 658 982 658 982 540 890 c 0,20,21
 400 781 400 781 400 591 c 2,22,-1
 400 0 l 1,23,-1
 200 0 l 1,0,-1
EndSplineSet
Validated: 1
EndChar

StartChar: i
Encoding: 105 105 76
Width: 600
GlyphClass: 2
Flags: W
HStem: 0 130<419.959 566> 1080 20G<200 400> 1276 255<214.129 389.809>
VStem: 176 252<1315.22 1492.81> 200 200<163.631 1100>
LayerCount: 2
Fore
SplineSet
566 0 m 1,0,1
 363 0 363 0 287 50 c 0,2,3
 200 107 200 107 200 229 c 2,4,-1
 200 1100 l 1,5,-1
 400 1100 l 1,6,-1
 400 229 l 2,7,8
 400 183 400 183 419 163 c 0,9,10
 449 130 449 130 566 130 c 1,11,-1
 566 0 l 1,0,1
176 1404 m 0,12,13
 176 1456 176 1456 213 1493 c 1,14,15
 248 1531 248 1531 302 1531 c 0,16,17
 354 1531 354 1531 391 1494 c 0,18,19
 428 1456 428 1456 428 1404 c 0,20,21
 428 1351 428 1351 391 1313 c 1,22,23
 353 1276 353 1276 302 1276 c 0,24,25
 249 1276 249 1276 213 1314 c 0,26,27
 176 1353 176 1353 176 1404 c 0,12,13
EndSplineSet
Validated: 1
EndChar

StartChar: j
Encoding: 106 106 77
Width: 604
GlyphClass: 2
Flags: W
HStem: -410 130<0 162.224> 1080 20G<200 400> 1276 255<214.129 389.809>
VStem: 176 252<1315.22 1499.79> 200 200<-242.631 1100>
LayerCount: 2
Fore
SplineSet
200 1100 m 1,0,-1
 400 1100 l 1,1,-1
 400 -109 l 2,2,3
 400 -234 400 -234 314 -317 c 0,4,5
 218 -410 218 -410 0 -410 c 1,6,-1
 0 -280 l 1,7,8
 141 -280 141 -280 177 -221 c 0,9,10
 200 -185 200 -185 200 -109 c 2,11,-1
 200 1100 l 1,0,-1
176 1404 m 0,12,13
 176 1456 176 1456 213 1493 c 1,14,15
 248 1531 248 1531 302 1531 c 0,16,17
 355 1531 355 1531 391 1493 c 0,18,19
 428 1455 428 1455 428 1403 c 2,20,-1
 428 1402 l 2,21,22
 428 1351 428 1351 391 1313 c 1,23,24
 353 1276 353 1276 302 1276 c 0,25,26
 249 1276 249 1276 213 1314 c 0,27,28
 176 1353 176 1353 176 1404 c 0,12,13
EndSplineSet
Validated: 1
EndChar

StartChar: k
Encoding: 107 107 78
Width: 1351
GlyphClass: 2
Flags: W
HStem: 0 21G<200 400 982.299 1346> 188 131<400 573.055> 1080 20G<911 1135.5> 1491 20G<200 400>
VStem: 200 200<0 196.262 319 1511> 955 200<670.17 1097> 1014 332<0 332>
DStem2: 826 329 632 241 0.845064 -0.534665<0 334.777>
LayerCount: 2
Fore
SplineSet
200 0 m 1,0,-1
 200 1511 l 1,1,-1
 400 1511 l 1,2,-1
 400 319 l 1,3,4
 687 365 687 365 832 538 c 24,5,6
 955 685 955 685 955 875 c 0,7,8
 955 990 955 990 911 1100 c 1,9,-1
 1116 1100 l 1,10,11
 1155 1018 1155 1018 1155 902 c 0,12,13
 1155 720 1155 720 1061 578 c 0,14,15
 964 431 964 431 826 329 c 1,16,-1
 1346 0 l 1,17,-1
 1014 0 l 1,18,-1
 632 241 l 1,19,20
 515 209 515 209 400 188 c 1,21,-1
 400 0 l 1,22,-1
 200 0 l 1,0,-1
EndSplineSet
Validated: 1
EndChar

StartChar: l
Encoding: 108 108 79
Width: 600
GlyphClass: 2
Flags: W
HStem: 0 130<419.959 566> 1491 20G<200 400>
VStem: 200 200<164.662 1511>
LayerCount: 2
Fore
SplineSet
566 0 m 1,0,1
 363 0 363 0 287 51 c 0,2,3
 200 108 200 108 200 231 c 2,4,-1
 200 1511 l 1,5,-1
 400 1511 l 1,6,-1
 400 231 l 2,7,8
 400 185 400 185 419 164 c 0,9,10
 449 130 449 130 566 130 c 1,11,-1
 566 0 l 1,0,1
EndSplineSet
Validated: 1
EndChar

StartChar: m
Encoding: 109 109 80
Width: 2164
GlyphClass: 2
Flags: W
HStem: 0 21G<200 400 982 1182 1764 1964> 982 138<615.863 919.726 1397.38 1701.96> 1080 20G<200 400>
VStem: 200 200<0 779.121 942 1100> 982 200<0 778.286> 1764 200<0 919.448>
CounterMasks: 1 1c
LayerCount: 2
Fore
SplineSet
200 0 m 1,0,-1
 200 1100 l 1,1,-1
 400 1100 l 1,2,-1
 400 942 l 1,3,4
 475 1012 475 1012 576 1063 c 0,5,6
 689 1120 689 1120 832 1120 c 0,7,8
 956 1120 956 1120 1058 1037 c 0,9,10
 1118 988 1118 988 1149 920 c 1,11,12
 1244 1006 1244 1006 1357 1063 c 128,-1,13
 1470 1120 1470 1120 1614 1120 c 0,14,15
 1738 1120 1738 1120 1840 1037 c 0,16,17
 1964 936 1964 936 1964 751 c 2,18,-1
 1964 0 l 1,19,-1
 1764 0 l 1,20,-1
 1764 751 l 2,21,22
 1764 877 1764 877 1710 931 c 0,23,24
 1660 981 1660 981 1581 982 c 0,25,26
 1440 982 1440 982 1322 890 c 0,27,28
 1182 781 1182 781 1182 591 c 2,29,-1
 1182 0 l 1,30,-1
 982 0 l 1,31,-1
 982 751 l 2,32,33
 982 880 982 880 928 931 c 128,-1,34
 874 982 874 982 799 982 c 0,35,36
 658 982 658 982 540 890 c 0,37,38
 400 781 400 781 400 591 c 2,39,-1
 400 0 l 1,40,-1
 200 0 l 1,0,-1
EndSplineSet
Validated: 1
EndChar

StartChar: n
Encoding: 110 110 81
Width: 1382
GlyphClass: 2
Flags: W
HStem: 0 21G<200 400 982 1182> 982 138<615.721 918.847> 1080 20G<200 400>
VStem: 200 200<0 779.121 942 1100> 982 200<0 915>
LayerCount: 2
Fore
SplineSet
200 0 m 1,0,-1
 200 1100 l 1,1,-1
 400 1100 l 1,2,-1
 400 942 l 1,3,4
 476 1013 476 1013 576 1063 c 0,5,6
 688 1120 688 1120 832 1120 c 0,7,8
 956 1120 956 1120 1058 1037 c 0,9,10
 1182 936 1182 936 1182 751 c 2,11,-1
 1182 0 l 1,12,-1
 982 0 l 1,13,-1
 982 751 l 2,14,15
 982 876 982 876 926 931 c 0,16,17
 874 982 874 982 799 982 c 0,18,19
 658 982 658 982 540 890 c 0,20,21
 400 781 400 781 400 591 c 2,22,-1
 400 0 l 1,23,-1
 200 0 l 1,0,-1
EndSplineSet
Validated: 1
EndChar

StartChar: o
Encoding: 111 111 82
Width: 1344
GlyphClass: 2
Flags: W
HStem: -20 124<461.964 794.758> 997 123<549.796 881.692>
VStem: 100 210<261.956 715.584> 1034 210<384.662 837.458>
LayerCount: 2
Fore
SplineSet
597 -20 m 0,0,1
 372 -20 372 -20 227 133 c 24,2,3
 100 267 100 267 100 497 c 0,4,5
 100 759 100 759 332 965 c 0,6,7
 506 1120 506 1120 747 1120 c 0,8,9
 972 1120 972 1120 1117 967 c 24,10,11
 1244 833 1244 833 1244 603 c 0,12,13
 1244 341 1244 341 1012 135 c 0,14,15
 838 -20 838 -20 597 -20 c 0,0,1
614 104 m 0,16,17
 788 104 788 104 900 234 c 0,18,19
 1034 390 1034 390 1034 621 c 0,20,21
 1034 800 1034 800 952 894 c 0,22,23
 859 997 859 997 728 997 c 0,24,25
 559 997 559 997 444 866 c 0,26,27
 310 711 310 711 310 479 c 0,28,29
 310 297 310 297 392 206 c 0,30,31
 484 104 484 104 614 104 c 0,16,17
EndSplineSet
Validated: 1
EndChar

StartChar: p
Encoding: 112 112 83
Width: 1297
GlyphClass: 2
Flags: W
HStem: -410 21G<200 400> -20 124<484.853 748.569> 996 124<565.914 852.707> 1080 20G<200 400>
VStem: 200 200<-410 795.575 942 1100> 987 210<392.16 841.683>
LayerCount: 2
Fore
SplineSet
200 1100 m 1,0,-1
 400 1100 l 1,1,-1
 400 942 l 1,2,3
 439 1009 439 1009 497 1054 c 0,4,5
 582 1120 582 1120 700 1120 c 0,6,7
 926 1120 926 1120 1071 967 c 0,8,9
 1197 830 1197 830 1197 612 c 0,10,11
 1197 348 1197 348 965 134 c 0,12,13
 798 -20 798 -20 610 -20 c 24,14,15
 449 -20 449 -20 449 136 c 1,16,17
 509 104 509 104 577 104 c 0,18,19
 731 104 731 104 843 221 c 24,20,21
 987 372 987 372 987 610 c 0,22,23
 987 776 987 776 923 878 c 0,24,25
 849 996 849 996 698 996 c 0,26,27
 584 996 584 996 498 884 c 0,28,29
 400 755 400 755 400 591 c 2,30,-1
 400 -410 l 1,31,-1
 200 -410 l 1,32,-1
 200 1100 l 1,0,-1
EndSplineSet
Validated: 1
EndChar

StartChar: q
Encoding: 113 113 84
Width: 1302
GlyphClass: 2
Flags: W
HStem: -410 21G<897 1136.5> -216 216<1203.69 1297> -20 123<455.111 735.674> 996 124<551.276 841.755>
VStem: 100 210<265.899 708.34> 897 200<-410 -320.625 -263 933.586>
LayerCount: 2
Fore
SplineSet
897 -410 m 1,0,-1
 897 815 l 2,1,2
 897 890 897 890 858 935 c 0,3,4
 806 996 806 996 730 996 c 0,5,6
 568 996 568 996 454 879 c 0,7,8
 310 731 310 731 310 488 c 0,9,10
 310 305 310 305 374 222 c 0,11,12
 466 103 466 103 616 103 c 0,13,14
 744 103 744 103 840 282 c 1,15,16
 840 -20 840 -20 597 -20 c 0,17,18
 352 -20 352 -20 226 133 c 128,-1,19
 100 286 100 286 100 488 c 0,20,21
 100 752 100 752 332 966 c 0,22,23
 499 1120 499 1120 747 1120 c 0,24,25
 878 1120 878 1120 976 1038 c 0,26,27
 1097 936 1097 936 1097 751 c 2,28,-1
 1097 -263 l 1,29,30
 1172 0 1172 0 1297 0 c 1,31,-1
 1297 -216 l 1,32,33
 1176 -216 1176 -216 1097 -410 c 1,34,-1
 897 -410 l 1,0,-1
EndSplineSet
Validated: 1
EndChar

StartChar: r
Encoding: 114 114 85
Width: 1038
GlyphClass: 2
Flags: W
HStem: 0 21G<200 400> 982 138<615.721 967.898> 1080 20G<200 400>
VStem: 200 200<0 779.121 942 1100>
LayerCount: 2
Fore
SplineSet
200 0 m 1,0,-1
 200 1100 l 1,1,-1
 400 1100 l 1,2,-1
 400 942 l 1,3,4
 476 1013 476 1013 576 1063 c 0,5,6
 688 1120 688 1120 832 1120 c 0,7,8
 956 1120 956 1120 1058 1037 c 9,9,-1
 937 935 l 17,10,11
 882 982 882 982 799 982 c 0,12,13
 658 982 658 982 540 890 c 0,14,15
 400 781 400 781 400 591 c 2,16,-1
 400 0 l 1,17,-1
 200 0 l 1,0,-1
EndSplineSet
Validated: 1
EndChar

StartChar: s
Encoding: 115 115 86
Width: 1171
GlyphClass: 2
Flags: W
HStem: -20 123<400.844 726.355> 996 124<485.551 757.384>
VStem: 224 183<760.896 921.44> 878 193<242.672 465.438>
DStem2: 817 682 414 562 0.978186 -0.207733<-426.11 109.07>
LayerCount: 2
Fore
SplineSet
80 262 m 1,0,1
 250 356 l 1,2,3
 349 103 349 103 553 103 c 0,4,5
 697 103 697 103 802 203 c 24,6,7
 878 276 878 276 878 388 c 0,8,9
 878 463 878 463 786 483 c 0,10,11
 574 528 574 528 414 562 c 0,12,13
 224 602 224 602 224 778 c 0,14,15
 224 915 224 915 357 1020 c 24,16,17
 482 1120 482 1120 646 1120 c 0,18,19
 820 1120 820 1120 960 976 c 1,20,-1
 823 875 l 1,21,22
 753 996 753 996 617 996 c 0,23,24
 526 992 526 992 466.5 936.5 c 128,-1,25
 407 881 407 881 407 825 c 128,-1,26
 407 769 407 769 460 758 c 0,27,-1
 817 682 l 0,28,29
 1071 637 1071 637 1071 428 c 0,30,31
 1071 237 1071 237 916 111 c 0,32,33
 754 -20 754 -20 534 -20 c 0,34,35
 258 -20 258 -20 80 262 c 1,0,1
EndSplineSet
Validated: 1
EndChar

StartChar: t
Encoding: 116 116 87
Width: 745
GlyphClass: 2
Flags: W
HStem: 0 130<449.684 603> 950 150<100 237 437 725> 1491 20G<237 437>
VStem: 237 200<148.426 950 1100 1511>
LayerCount: 2
Fore
SplineSet
603 0 m 1,0,1
 400 0 400 0 324 50 c 0,2,3
 237 106 237 106 237 227 c 2,4,-1
 237 950 l 1,5,-1
 100 950 l 1,6,-1
 100 1100 l 1,7,-1
 237 1100 l 1,8,-1
 237 1511 l 1,9,-1
 437 1511 l 1,10,-1
 437 1100 l 1,11,-1
 725 1100 l 1,12,-1
 725 950 l 1,13,-1
 437 950 l 1,14,-1
 437 227 l 2,15,16
 437 186 437 186 456 163 c 0,17,18
 483 130 483 130 603 130 c 1,19,-1
 603 0 l 1,0,1
EndSplineSet
Validated: 1
EndChar

StartChar: u
Encoding: 117 117 88
Width: 1382
GlyphClass: 2
Flags: W
HStem: -20 138<463.153 766.279> 0 21G<982 1182> 1080 20G<200 400 982 1182>
VStem: 200 200<185 1100> 982 200<0 158 320.879 1100>
LayerCount: 2
Fore
SplineSet
200 1100 m 1,0,-1
 400 1100 l 1,1,-1
 400 349 l 2,2,3
 400 224 400 224 456 169 c 0,4,5
 508 118 508 118 583 118 c 0,6,7
 724 118 724 118 842 210 c 0,8,9
 982 319 982 319 982 509 c 2,10,-1
 982 1100 l 1,11,-1
 1182 1100 l 1,12,-1
 1182 0 l 1,13,-1
 982 0 l 1,14,-1
 982 158 l 1,15,16
 906 87 906 87 806 37 c 0,17,18
 694 -20 694 -20 550 -20 c 0,19,20
 426 -20 426 -20 324 63 c 0,21,22
 200 164 200 164 200 349 c 2,23,-1
 200 1100 l 1,0,-1
EndSplineSet
Validated: 1
EndChar

StartChar: v
Encoding: 118 118 89
Width: 1239
GlyphClass: 2
Flags: W
HStem: 0 21G<513.582 726.4> 1080 20G<5 230.354 1053.6 1234>
VStem: 5 216<884 1100> 1063 171<929 1100>
DStem2: 221 1100 5 1100 0.426035 -0.904707<0 991.361> 641 202 717 0 0.425361 0.905024<0 992.214>
LayerCount: 2
Fore
SplineSet
523 0 m 1,0,-1
 5 1100 l 1,1,-1
 221 1100 l 1,2,-1
 641 202 l 1,3,-1
 1063 1100 l 1,4,-1
 1234 1100 l 1,5,-1
 717 0 l 1,6,-1
 523 0 l 1,0,-1
EndSplineSet
Validated: 1
EndChar

StartChar: w
Encoding: 119 119 90
Width: 2129
GlyphClass: 2
Flags: W
HStem: -20 138<463.329 766.994 1246.26 1585.54> 1080 20G<200 400 982 1182 1512 1842>
VStem: 200 200<185 1100> 982 200<322.688 1100> 1831 198<395.238 835.608>
LayerCount: 2
Fore
SplineSet
200 1100 m 1,0,-1
 400 1100 l 1,1,-1
 400 349 l 2,2,3
 400 222 400 222 456 169 c 0,4,5
 511 118 511 118 583 118 c 0,6,7
 726 119 726 119 842 210 c 0,8,9
 982 319 982 319 982 509 c 2,10,-1
 982 1100 l 1,11,-1
 1182 1100 l 1,12,-1
 1182 349 l 2,13,14
 1182 225 1182 225 1238 169 c 0,15,16
 1297 114 1297 114 1367 114 c 0,17,18
 1588 114 1588 114 1710 264 c 0,19,20
 1831 413 1831 413 1831 643 c 0,21,22
 1831 778 1831 778 1754.5 889 c 128,-1,23
 1678 1000 1678 1000 1512 1100 c 1,24,-1
 1792 1100 l 1,25,26
 1892 1026 1892 1026 1950 926 c 0,27,28
 2029 790 2029 790 2029 643 c 0,29,30
 2029 368 2029 368 1848 183 c 0,31,32
 1649 -20 1649 -20 1332 -20 c 0,33,34
 1211 -20 1211 -20 1106 63 c 0,35,36
 1044 112 1044 112 1012 185 c 1,37,38
 920 96 920 96 806 37 c 0,39,40
 696 -20 696 -20 550 -20 c 0,41,42
 426 -20 426 -20 324 63 c 0,43,44
 200 164 200 164 200 349 c 2,45,-1
 200 1100 l 1,0,-1
EndSplineSet
Validated: 1
EndChar

StartChar: x
Encoding: 120 120 91
Width: 1247
GlyphClass: 2
Flags: W
HStem: 0 21G<80 292.508 895.579 1166> 1080 20G<82 352.421 955.492 1167>
VStem: 80 197<0 197> 82 256<844 1100> 910 256<0 256> 971 196<904 1100>
DStem2: 80 0 277 0 0.629422 0.777064<123.996 659.144 880.437 1415.59> 338 1100 82 1100 0.601394 -0.798953<0 521.382 701.463 1222.85>
LayerCount: 2
Fore
SplineSet
80 0 m 1,0,-1
 510 531 l 1,1,-1
 82 1100 l 1,2,-1
 338 1100 l 1,3,-1
 643 677 l 1,4,-1
 971 1100 l 1,5,-1
 1167 1100 l 1,6,-1
 738 569 l 1,7,-1
 1166 0 l 1,8,-1
 910 0 l 1,9,-1
 605 423 l 1,10,-1
 277 0 l 1,11,-1
 80 0 l 1,0,-1
EndSplineSet
Validated: 1
EndChar

StartChar: y
Encoding: 121 121 92
Width: 1382
GlyphClass: 2
Flags: W
HStem: -410 123<398.216 729.898> -20 138<463.212 767.188> 1080 20G<200 400 982 1182>
VStem: 200 200<185 1100> 982 200<320.879 1100>
LayerCount: 2
Fore
SplineSet
200 1100 m 1,0,-1
 400 1100 l 1,1,-1
 400 349 l 2,2,3
 400 223 400 223 456 169 c 0,4,5
 509 118 509 118 583 118 c 0,6,7
 724 118 724 118 842 210 c 0,8,9
 982 319 982 319 982 509 c 2,10,-1
 982 1100 l 1,11,-1
 1182 1100 l 1,12,-1
 1182 282 l 2,13,14
 1182 -27 1182 -27 993 -207 c 0,15,16
 780 -410 780 -410 536 -410 c 0,17,18
 346 -410 346 -410 182 -271 c 1,19,-1
 309 -163 l 1,20,21
 413 -287 413 -287 552 -287 c 0,22,23
 717 -287 717 -287 833 -160 c 0,24,25
 958 -21 958 -21 976 160 c 1,26,27
 909 85 909 85 806 37 c 0,28,29
 687 -20 687 -20 550 -20 c 0,30,31
 426 -20 426 -20 324 63 c 0,32,33
 200 164 200 164 200 349 c 2,34,-1
 200 1100 l 1,0,-1
EndSplineSet
Validated: 1
EndChar

StartChar: z
Encoding: 122 122 93
Width: 1171
GlyphClass: 2
Flags: W
HStem: 0 150<70 236.257 487 1011> 950 150<178 802.229>
VStem: 809 202<610.33 948.262>
LayerCount: 2
Fore
SplineSet
70 0 m 1,0,-1
 70 145 l 1,1,2
 472 240 472 240 673 456 c 0,3,4
 809 601 809 601 809 797 c 0,5,6
 809 890 809 890 794 950 c 1,7,-1
 178 950 l 1,8,-1
 178 1100 l 1,9,-1
 949 1100 l 1,10,11
 1010 972 1010 972 1010 820 c 0,12,13
 1010 567 1010 567 779 346 c 0,14,15
 668 240 668 240 487 150 c 1,16,-1
 1011 150 l 1,17,-1
 1011 0 l 1,18,-1
 70 0 l 1,0,-1
EndSplineSet
Validated: 1
EndChar

StartChar: braceleft
Encoding: 123 123 94
Width: 918
GlyphClass: 2
Flags: W
HStem: -287 150<586.359 868> 683 150<50 286> 1668 150<586.359 868>
VStem: 286 195<-32.5215 683 833 1563.52>
LayerCount: 2
Fore
SplineSet
868 1818 m 1,0,1
 868 1668 l 1,2,3
 634 1668 634 1668 567 1611 c 0,4,5
 481 1539 481 1539 481 1400 c 2,6,-1
 481 131 l 2,7,8
 481 -8 481 -8 567 -80 c 0,9,10
 634 -137 634 -137 868 -137 c 1,11,-1
 868 -287 l 1,12,13
 546 -287 546 -287 411 -174 c 0,14,15
 286 -69 286 -69 286 142 c 2,16,-1
 286 683 l 1,17,-1
 50 683 l 1,18,-1
 50 833 l 1,19,-1
 286 833 l 1,20,-1
 286 1389 l 2,21,22
 286 1600 286 1600 411 1705 c 0,23,24
 546 1818 546 1818 868 1818 c 1,0,1
EndSplineSet
Validated: 1
EndChar

StartChar: bar
Encoding: 124 124 95
Width: 653
GlyphClass: 2
Flags: W
VStem: 250 152<-186 1695>
LayerCount: 2
Fore
SplineSet
250 -186 m 1,0,-1
 250 1695 l 1,1,-1
 403 1695 l 1,2,-1
 402 -186 l 1,3,-1
 250 -186 l 1,0,-1
EndSplineSet
Validated: 1
EndChar

StartChar: braceright
Encoding: 125 125 96
Width: 918
GlyphClass: 2
Flags: W
HStem: -287 150<50 331.641> 683 150<632 868> 1668 150<50 331.641>
VStem: 437 195<-32.5215 683 833 1563.52>
LayerCount: 2
Fore
SplineSet
50 1818 m 1,0,1
 372 1818 372 1818 507 1705 c 0,2,3
 632 1600 632 1600 632 1389 c 2,4,-1
 632 833 l 1,5,-1
 868 833 l 1,6,-1
 868 683 l 1,7,-1
 632 683 l 1,8,-1
 632 142 l 2,9,10
 632 -69 632 -69 507 -174 c 0,11,12
 372 -287 372 -287 50 -287 c 1,13,-1
 50 -137 l 1,14,15
 284 -137 284 -137 351 -80 c 0,16,17
 437 -8 437 -8 437 131 c 2,18,-1
 437 1400 l 2,19,20
 437 1539 437 1539 351 1611 c 0,21,22
 284 1668 284 1668 50 1668 c 1,23,-1
 50 1818 l 1,0,1
EndSplineSet
Validated: 1
EndChar

StartChar: asciitilde
Encoding: 126 126 97
Width: 1338
GlyphClass: 2
Flags: W
HStem: 574 160<828.719 1003.21> 820 160<334.79 509.281>
VStem: 150 128<663.136 754.011> 1060 128<799.989 890.864>
DStem2: 852 761 486 793 0.808736 -0.588172<-385.689 70.8698>
LayerCount: 2
Fore
SplineSet
150 674 m 1,0,1
 236 980 236 980 464 980 c 0,2,3
 551 980 551 980 665 897 c 0,4,5
 815 788 815 788 852 761 c 128,-1,6
 889 734 889 734 921 734 c 24,7,8
 1040 734 1040 734 1060 977 c 1,9,-1
 1188 880 l 1,10,11
 1102 574 1102 574 874 574 c 0,12,13
 787 574 787 574 673 657 c 0,14,15
 523 766 523 766 486 793 c 128,-1,16
 449 820 449 820 417 820 c 24,17,18
 298 820 298 820 278 577 c 1,19,-1
 150 674 l 1,0,1
EndSplineSet
Validated: 1
EndChar

StartChar: exclamdown
Encoding: 161 161 99
Width: 742
GlyphClass: 2
Flags: W
HStem: 0 21G<271 471> 1276 255<283.129 459.84>
VStem: 245 252<1315.16 1491.84> 271 200<0 553.37> 301 140<604.63 1158>
LayerCount: 2
Fore
SplineSet
245 1409 m 0,0,1
 245 1459 245 1459 281.5 1495 c 128,-1,2
 318 1531 318 1531 371 1531 c 128,-1,3
 424 1531 424 1531 461 1493 c 0,4,5
 497 1456 497 1456 497 1404 c 0,6,7
 497 1351 497 1351 461 1314 c 0,8,9
 425 1276 425 1276 371 1276 c 0,10,11
 318 1276 318 1276 282 1313 c 0,12,13
 245 1351 245 1351 245 1409 c 0,0,1
271 0 m 1,14,-1
 301 1158 l 1,15,-1
 441 1158 l 1,16,-1
 471 0 l 1,17,-1
 271 0 l 1,14,-1
EndSplineSet
Validated: 1
EndChar

StartChar: cent
Encoding: 162 162 100
Width: 1184
GlyphClass: 2
Flags: W
HStem: -20 124<460.214 602> 997 123<722 881.557>
VStem: 100 210<261.956 715.092> 602 120<-186 -20 118 977 1120 1282>
LayerCount: 2
Fore
SplineSet
1101 226 m 1,0,1
 1068 184 1068 184 1012 135 c 0,2,3
 885 22 885 22 722 -9 c 1,4,-1
 722 -186 l 1,5,-1
 602 -186 l 1,6,-1
 602 -20 l 1,7,8
 372 -20 372 -20 227 133 c 0,9,10
 100 267 100 267 100 497 c 0,11,12
 100 758 100 758 332 965 c 0,13,14
 451 1071 451 1071 602 1105 c 1,15,-1
 602 1282 l 1,16,-1
 722 1282 l 1,17,-1
 722 1120 l 1,18,19
 734 1120 734 1120 747 1120 c 0,20,21
 965 1120 965 1120 1104 980 c 1,22,-1
 966 876 l 1,23,24
 868 997 868 997 722 997 c 1,25,-1
 722 118 l 1,26,27
 824 147 824 147 900 234 c 0,28,29
 942 282 942 282 972 341 c 1,30,-1
 1101 226 l 1,0,1
602 104 m 1,31,-1
 602 977 l 1,32,33
 512 945 512 945 444 866 c 0,34,35
 310 710 310 710 310 479 c 0,36,37
 310 297 310 297 392 206 c 0,38,39
 479 109 479 109 602 104 c 1,31,-1
EndSplineSet
Validated: 1
EndChar

StartChar: sterling
Encoding: 163 163 101
Width: 1186
GlyphClass: 2
Flags: W
HStem: 0 150<106 200 400 1106> 664 144<114 200 400 785> 1408 123<554.8 847.805>
VStem: 200 200<150 664 811 1197.07>
LayerCount: 2
Fore
SplineSet
106 0 m 1,0,-1
 106 150 l 1,1,-1
 200 150 l 1,2,-1
 200 666 l 1,3,-1
 114 666 l 1,4,-1
 114 811 l 1,5,-1
 200 811 l 1,6,-1
 200 1000 l 2,7,8
 200 1196 200 1196 364 1373 c 0,9,10
 510 1531 510 1531 719 1531 c 0,11,12
 905 1531 905 1531 1056 1389 c 1,13,-1
 919 1290 l 1,14,15
 836 1408 836 1408 709 1408 c 0,16,17
 574 1408 574 1408 487 1303 c 128,-1,18
 400 1198 400 1198 400 1008 c 2,19,-1
 400 808 l 1,20,-1
 785 808 l 1,21,-1
 785 664 l 1,22,-1
 400 664 l 1,23,-1
 400 150 l 1,24,-1
 1106 150 l 1,25,-1
 1106 0 l 1,26,-1
 106 0 l 1,0,-1
EndSplineSet
Validated: 1
EndChar

StartChar: currency
Encoding: 164 164 102
Width: 1673
GlyphClass: 2
Flags: W
HStem: 221 116<616.615 953.289> 1182 115<711.574 1051.96>
VStem: 264 208<500.673 915.136> 1199 209<598.564 1022.07>
DStem2: 208 1492 100 1384 0.706848 -0.707366<0.0559273 444.119 1481.13 1930.46> 100 126 207 19 0.707366 0.706848<0.0554094 382.231 1551.72 1930.4>
LayerCount: 2
Fore
SplineSet
1119 1077 m 0,0,1
 1034 1182 1034 1182 896 1182 c 0,2,3
 721 1182 721 1182 609 1056 c 0,4,5
 472 901 472 901 472 718 c 0,6,7
 472 544 472 544 552.5 440.5 c 128,-1,8
 633 337 633 337 776 337 c 0,9,10
 950 337 950 337 1078 480 c 0,11,12
 1199 615 1199 615 1199 798 c 0,13,14
 1199 978 1199 978 1119 1077 c 0,0,1
208 1492 m 1,15,-1
 526 1174 l 1,16,17
 707 1297 707 1297 911 1297 c 0,18,19
 1080 1297 1080 1297 1194 1221 c 1,20,-1
 1464 1492 l 1,21,-1
 1573 1384 l 1,22,-1
 1311 1122 l 1,23,24
 1408 983 1408 983 1408 804 c 24,25,26
 1408 598 1408 598 1256 443 c 1,27,-1
 1573 126 l 1,28,-1
 1465 19 l 1,29,-1
 1143 341 l 1,30,31
 968 221 968 221 761 221 c 0,32,33
 614 221 614 221 483 294 c 1,34,-1
 207 19 l 1,35,-1
 100 126 l 1,36,-1
 365 392 l 1,37,38
 264 522 264 522 264 700 c 0,39,40
 264 934 264 934 414 1070 c 1,41,-1
 100 1384 l 1,42,-1
 208 1492 l 1,15,-1
EndSplineSet
Validated: 1
EndChar

StartChar: yen
Encoding: 165 165 103
Width: 1475
GlyphClass: 2
Flags: W
HStem: 0 21G<630 830> 507 150<216 501 962 1258> 795 150<216 353 646 861 1114 1258> 1491 20G<50 277.671 1241.94 1425>
VStem: 50 217<1294 1511> 630 200<0 410> 1253 172<1339 1511>
DStem2: 267 1511 50 1511 0.466078 -0.884744<0 540.848 810.12 864.633> 861 795 962 657 0.475433 0.879752<-73.387 0 252.247 816.272>
LayerCount: 2
Fore
SplineSet
630 0 m 1,0,-1
 630 410 l 1,1,-1
 578 507 l 1,2,-1
 216 507 l 1,3,-1
 216 657 l 1,4,-1
 501 657 l 1,5,-1
 430 795 l 1,6,-1
 216 795 l 1,7,-1
 216 945 l 1,8,-1
 353 945 l 1,9,-1
 50 1511 l 1,10,-1
 267 1511 l 1,11,-1
 569 945 l 1,12,-1
 940 945 l 1,13,-1
 1253 1511 l 1,14,-1
 1425 1511 l 1,15,-1
 1114 945 l 1,16,-1
 1258 945 l 1,17,-1
 1258 795 l 1,18,-1
 1035 795 l 1,19,-1
 962 657 l 1,20,-1
 1258 657 l 1,21,-1
 1258 507 l 1,22,-1
 884 507 l 1,23,-1
 830 410 l 1,24,-1
 830 0 l 1,25,-1
 630 0 l 1,0,-1
716 657 m 1,26,-1
 788 657 l 1,27,-1
 861 795 l 1,28,-1
 646 795 l 1,29,-1
 716 657 l 1,26,-1
EndSplineSet
Validated: 1
EndChar

StartChar: brokenbar
Encoding: 166 166 104
Width: 652
GlyphClass: 2
Flags: W
VStem: 250 152<-186 672 837 1695>
LayerCount: 2
Fore
SplineSet
250 -186 m 1,0,-1
 250 672 l 1,1,-1
 402 672 l 1,2,-1
 402 -186 l 1,3,-1
 250 -186 l 1,0,-1
250 837 m 1,4,-1
 250 1695 l 1,5,-1
 402 1695 l 1,6,-1
 402 837 l 1,7,-1
 250 837 l 1,4,-1
EndSplineSet
Validated: 1
EndChar

StartChar: section
Encoding: 167 167 105
Width: 1220
GlyphClass: 2
Flags: W
HStem: -20 124<463.616 735.449> 1407 124<484.551 756.384>
VStem: 150 193<634.562 858.073> 223 183<1171.9 1332.44> 814 183<178.56 339.104> 877 193<652.927 876.438>
DStem2: 435 617 404 418 0.978186 -0.207733<-98.0551 437.125> 816 1093 413 973 0.978186 -0.207733<-426.11 109.07>
LayerCount: 2
Fore
SplineSet
261 124 m 1,0,-1
 398 225 l 1,1,2
 468 104 468 104 604 104 c 0,3,4
 695 108 695 108 754.5 163.5 c 128,-1,5
 814 219 814 219 814 275 c 128,-1,6
 814 331 814 331 761 342 c 0,7,-1
 404 418 l 0,8,9
 150 463 150 463 150 672 c 0,10,11
 150 821 150 821 245 931 c 9,12,-1
 403 880 l 17,13,14
 343 811 343 811 343 712 c 0,15,16
 343 637 343 637 435 617 c 0,17,18
 647 572 647 572 807 538 c 0,19,20
 997 498 997 498 997 322 c 0,21,22
 997 185 997 185 864 80 c 24,23,24
 739 -20 739 -20 575 -20 c 0,25,26
 401 -20 401 -20 261 124 c 1,0,-1
959 1387 m 1,27,-1
 822 1286 l 1,28,29
 752 1407 752 1407 616 1407 c 0,30,31
 525 1403 525 1403 465.5 1347.5 c 128,-1,32
 406 1292 406 1292 406 1236 c 128,-1,33
 406 1180 406 1180 459 1169 c 0,34,-1
 816 1093 l 0,35,36
 1070 1048 1070 1048 1070 839 c 0,37,38
 1070 690 1070 690 975 580 c 9,39,-1
 817 631 l 17,40,41
 877 700 877 700 877 799 c 0,42,43
 877 874 877 874 785 894 c 0,44,45
 573 939 573 939 413 973 c 0,46,47
 223 1013 223 1013 223 1189 c 0,48,49
 223 1326 223 1326 356 1431 c 24,50,51
 481 1531 481 1531 645 1531 c 0,52,53
 819 1531 819 1531 959 1387 c 1,27,-1
EndSplineSet
Validated: 1
EndChar

StartChar: dieresis
Encoding: 168 168 106
Width: 925
GlyphClass: 2
Flags: W
HStem: 1256 255<187.129 363.809 561.129 736.809>
VStem: 150 252<1295.16 1471.84> 523 252<1295.22 1472.9>
LayerCount: 2
Fore
SplineSet
523 1384 m 0,0,1
 523 1436 523 1436 560 1473 c 1,2,3
 595 1511 595 1511 649 1511 c 0,4,5
 700 1511 700 1511 738 1474 c 0,6,7
 773 1439 773 1439 775 1385 c 1,8,9
 775 1331 775 1331 738 1293 c 1,10,11
 700 1256 700 1256 649 1256 c 0,12,13
 596 1256 596 1256 560 1294 c 0,14,15
 523 1333 523 1333 523 1384 c 0,0,1
150 1384 m 0,16,17
 150 1436 150 1436 186 1473 c 0,18,19
 222 1511 222 1511 276 1511 c 0,20,21
 327 1511 327 1511 365 1474 c 0,22,23
 400 1439 400 1439 402 1385 c 1,24,25
 402 1331 402 1331 365 1293 c 1,26,27
 327 1256 327 1256 276 1256 c 0,28,29
 222 1256 222 1256 186 1294 c 0,30,31
 150 1331 150 1331 150 1384 c 0,16,17
EndSplineSet
Validated: 1
EndChar

StartChar: copyright
Encoding: 169 169 107
Width: 1451
GlyphClass: 2
Flags: W
HStem: 164 120<534.72 923.541> 374 116<597.316 831.292> 1002 117<633.715 886.951> 1226 130<539.039 913.843>
VStem: 150 124<552.209 960.304> 378 150<559.828 885.671> 1175 126<561.735 964.051>
LayerCount: 2
Fore
SplineSet
1034 999 m 1,0,-1
 924 910 l 1,1,2
 873 1002 873 1002 774 1002 c 0,3,4
 670 1002 670 1002 609 935 c 0,5,6
 528 846 528 846 528 722 c 0,7,8
 528 608 528 608 571 560 c 0,9,10
 634 490 634 490 707 490 c 0,11,12
 787 490 787 490 852 552 c 0,13,14
 907 604 907 604 926 648 c 1,15,-1
 1034 569 l 1,16,17
 992 503 992 503 916 446 c 0,18,19
 820 374 820 374 703 374 c 0,20,21
 549 374 549 374 467 474 c 0,22,23
 378 583 378 583 378 709 c 0,24,25
 378 898 378 898 523 1020 c 0,26,27
 641 1119 641 1119 779 1119 c 0,28,29
 923 1119 923 1119 1034 999 c 1,0,-1
726 284 m 0,30,31
 924 285 924 285 1042 423 c 0,32,33
 1175 579 1175 579 1175 760 c 0,34,35
 1175 960 1175 960 1037.5 1093 c 128,-1,36
 900 1226 900 1226 726 1226 c 256,37,38
 548 1226 548 1226 409 1090 c 0,39,40
 274 958 274 958 274 756 c 0,41,42
 274 548 274 548 428 404 c 0,43,44
 556 284 556 284 726 284 c 0,30,31
728 164 m 0,45,46
 482 164 482 164 318 333 c 0,47,48
 150 506 150 506 150 754 c 0,49,50
 150 993 150 993 318 1178 c 0,51,52
 480 1356 480 1356 726 1356 c 0,53,54
 970 1356 970 1356 1144 1179 c 0,55,56
 1301 1016 1301 1016 1301 754 c 0,57,58
 1301 505 1301 505 1133 333 c 0,59,60
 968 164 968 164 728 164 c 0,45,46
EndSplineSet
Validated: 1
EndChar

StartChar: ordfeminine
Encoding: 170 170 108
Width: 1183
GlyphClass: 2
Flags: W
HStem: 693 150<150 1033> 896 127<500.506 676.552> 1398 133<537.49 692.625>
VStem: 303 164<1064.86 1320.71> 702 165<906 937 1048.74 1381.47>
LayerCount: 2
Fore
SplineSet
1033 693 m 1,0,-1
 150 693 l 1,1,-1
 150 843 l 1,2,-1
 1033 843 l 1,3,-1
 1033 693 l 1,0,-1
702 1341 m 2,4,5
 702 1365 702 1365 685 1382 c 0,6,7
 668 1398 668 1398 638 1398 c 0,8,9
 555 1398 555 1398 500 1304 c 0,10,11
 467 1248 467 1248 467 1180.5 c 128,-1,12
 467 1113 467 1113 497 1072 c 0,13,14
 533 1023 533 1023 598 1023 c 0,15,16
 650 1023 650 1023 702 1100 c 1,17,-1
 702 1341 l 2,4,5
867 906 m 1,18,-1
 702 906 l 1,19,-1
 702 937 l 1,20,21
 651 896 651 896 582 896 c 0,22,23
 456 896 456 896 374 986 c 0,24,25
 303 1064 303 1064 303 1168 c 0,26,27
 303 1322 303 1322 424 1437 c 24,28,29
 524 1531 524 1531 651 1531 c 0,30,31
 733 1531 733 1531 800 1474 c 256,32,33
 866 1417 866 1417 866 1306 c 2,34,-1
 867 906 l 1,18,-1
EndSplineSet
Validated: 1
EndChar

StartChar: guillemotleft
Encoding: 171 171 109
Width: 1409
GlyphClass: 2
Flags: W
HStem: 124 280<393 673 929 1209> 1196 205<468 673 1004 1209>
DStem2: 150 859 298 799 0.690413 0.723415<58.7762 609.217> 298 799 150 678 0.691073 -0.722785<0 540.316> 686 853 834 793 0.690413 0.723415<58.7762 609.217> 834 793 686 678 0.686469 -0.727159<0 540.291>
LayerCount: 2
Fore
SplineSet
1209 1401 m 1,0,-1
 1209 1196 l 1,1,-1
 834 793 l 1,2,-1
 1209 404 l 1,3,-1
 1209 124 l 1,4,-1
 686 678 l 1,5,-1
 686 853 l 1,6,-1
 1209 1401 l 1,0,-1
673 1407 m 1,7,-1
 673 1202 l 1,8,-1
 298 799 l 1,9,-1
 673 410 l 1,10,-1
 673 131 l 1,11,-1
 150 678 l 1,12,-1
 150 859 l 1,13,-1
 673 1407 l 1,7,-1
EndSplineSet
Validated: 1
EndChar

StartChar: logicalnot
Encoding: 172 172 110
Width: 1183
GlyphClass: 2
Flags: W
HStem: 693 150<150 883>
VStem: 883 150<436 693>
LayerCount: 2
Fore
SplineSet
1033 436 m 1,0,-1
 883 436 l 1,1,-1
 883 693 l 1,2,-1
 150 693 l 5,3,-1
 150 843 l 1,4,-1
 1033 843 l 1,5,-1
 1033 436 l 1,0,-1
EndSplineSet
Validated: 1
EndChar

StartChar: uni00AD
Encoding: 173 173 111
Width: 1183
GlyphClass: 2
Flags: W
HStem: 693 150<150 1033>
LayerCount: 2
Fore
SplineSet
1033 693 m 1,0,-1
 150 693 l 1,1,-1
 150 843 l 1,2,-1
 1033 843 l 1,3,-1
 1033 693 l 1,0,-1
EndSplineSet
Validated: 1
EndChar

StartChar: registered
Encoding: 174 174 112
Width: 1451
GlyphClass: 2
Flags: W
HStem: 164 120<534.958 922.947> 1020 110<646.472 824.184> 1226 130<539.039 914.808>
VStem: 150 124<552.209 960.304> 444 151<396 594 684.16 972.544 1060 1120> 851 147<734.43 983.039> 1175 126<563.713 964.051>
LayerCount: 2
Fore
SplineSet
447 1120 m 1,0,-1
 595 1124 l 1,1,-1
 595 1060 l 1,2,3
 609 1080 609 1080 642 1100 c 0,4,5
 690 1130 690 1130 757 1130 c 0,6,7
 857 1130 857 1130 937 1054 c 0,8,9
 998 996 998 996 998 896 c 0,10,11
 998 809 998 809 970 748 c 0,12,13
 920 639 920 639 812 598 c 1,14,-1
 1047 429 l 1,15,16
 1175 583 1175 583 1175 760 c 0,17,18
 1175 960 1175 960 1037.5 1093 c 128,-1,19
 900 1226 900 1226 726 1226 c 0,20,21
 548 1226 548 1226 409 1090 c 0,22,23
 274 958 274 958 274 756 c 0,24,25
 274 548 274 548 428 404 c 0,26,27
 557 284 557 284 726 284 c 0,28,29
 903 284 903 284 1016 396 c 1,30,-1
 876 396 l 1,31,-1
 595 594 l 1,32,-1
 595 396 l 1,33,-1
 444 396 l 1,34,-1
 447 1120 l 1,0,-1
595 708 m 1,35,36
 625 678 625 678 693 678 c 0,37,38
 755 678 755 678 804 731 c 0,39,40
 851 782 851 782 851 866 c 0,41,42
 851 936 851 936 827 972 c 0,43,44
 795 1020 795 1020 744 1020 c 0,45,46
 694 1020 694 1020 648 980 c 0,47,48
 595 934 595 934 595 844 c 2,49,-1
 595 708 l 1,35,36
726 1356 m 0,50,51
 974 1356 974 1356 1144 1179 c 24,52,53
 1301 1016 1301 1016 1301 754 c 0,54,55
 1301 505 1301 505 1133 333 c 0,56,57
 968 164 968 164 728 164 c 0,58,59
 482 164 482 164 318 333 c 0,60,61
 150 506 150 506 150 754 c 0,62,63
 150 993 150 993 318 1178 c 0,64,65
 480 1356 480 1356 726 1356 c 0,50,51
EndSplineSet
Validated: 1
EndChar

StartChar: macron
Encoding: 175 175 113
Width: 1183
GlyphClass: 2
Flags: W
HStem: 1361 150<150 1033>
LayerCount: 2
Fore
SplineSet
1033 1361 m 1,0,-1
 150 1361 l 1,1,-1
 150 1511 l 1,2,-1
 1033 1511 l 1,3,-1
 1033 1361 l 1,0,-1
EndSplineSet
Validated: 1
EndChar

StartChar: degree
Encoding: 176 176 114
Width: 1052
GlyphClass: 2
Flags: W
HStem: 915 118<383.774 625.927> 1408 123<431.106 668.903>
VStem: 150 188<1070.9 1313.08> 715 187<1125.83 1369.05>
LayerCount: 2
Fore
SplineSet
583 1531 m 0,0,1
 717 1531 717 1531 820 1448 c 0,2,3
 902 1381 902 1381 902 1265 c 0,4,5
 902 1137 902 1137 787 1034 c 0,6,7
 652 915 652 915 473 915 c 24,8,9
 316 915 316 915 225 1000 c 0,10,11
 150 1069 150 1069 150 1168 c 0,12,13
 150 1325 150 1325 296 1432 c 0,14,15
 433 1531 433 1531 583 1531 c 0,0,1
338 1175 m 0,16,17
 338 1101 338 1101 389 1066 c 0,18,19
 436 1033 436 1033 500 1033 c 24,20,21
 600 1033 600 1033 665 1118 c 256,22,23
 715 1184 715 1184 715 1262 c 0,24,25
 715 1338 715 1338 664 1374 c 0,26,27
 616 1408 616 1408 555 1408 c 24,28,29
 466 1408 466 1408 397 1332 c 0,30,31
 338 1269 338 1269 338 1175 c 0,16,17
EndSplineSet
Validated: 1
EndChar

StartChar: plusminus
Encoding: 177 177 115
Width: 1183
GlyphClass: 2
Flags: W
HStem: 215 150<150 1033> 782 150<150 516 666 1033>
VStem: 516 150<415 782 932 1298>
LayerCount: 2
Fore
SplineSet
1033 215 m 1,0,-1
 150 215 l 5,1,-1
 150 365 l 1,2,-1
 1033 365 l 1,3,-1
 1033 215 l 1,0,-1
516 415 m 1,4,-1
 516 782 l 1,5,-1
 150 782 l 1,6,-1
 150 932 l 1,7,-1
 516 932 l 1,8,-1
 516 1298 l 1,9,-1
 666 1298 l 1,10,-1
 666 932 l 1,11,-1
 1033 932 l 1,12,-1
 1033 782 l 1,13,-1
 666 782 l 1,14,-1
 666 415 l 1,15,-1
 516 415 l 1,4,-1
EndSplineSet
Validated: 1
EndChar

StartChar: uni00B2
Encoding: 178 178 116
Width: 927
GlyphClass: 2
Flags: W
HStem: 715 150<369 776> 1393 138<367.704 570.446>
VStem: 600 177<1167.32 1363.44>
DStem2: 242 934 369 865 0.803742 0.594978<61.0218 476.183>
LayerCount: 2
Fore
SplineSet
150 1299 m 1,0,1
 199 1403 199 1403 304 1475 c 0,2,3
 387 1531 387 1531 488 1531 c 0,4,5
 599 1531 599 1531 678 1466 c 0,6,7
 777 1385 777 1385 777 1274 c 0,8,9
 777 1142 777 1142 656 1059 c 24,10,11
 546 984 546 984 369 865 c 1,12,-1
 776 865 l 1,13,-1
 776 715 l 1,14,-1
 194 715 l 1,15,16
 158 751 158 751 158 804 c 0,17,18
 158 873 158 873 242 934 c 0,19,20
 242 934 242 934 550 1162 c 0,21,22
 600 1199 600 1199 600 1270 c 0,23,24
 600 1326 600 1326 566 1359.5 c 128,-1,25
 532 1393 532 1393 474.5 1393 c 128,-1,26
 417 1393 417 1393 365 1347 c 0,27,28
 316 1306 316 1306 298 1216 c 1,29,-1
 150 1299 l 1,0,1
EndSplineSet
Validated: 1
EndChar

StartChar: uni00B3
Encoding: 179 179 117
Width: 941
GlyphClass: 2
Flags: W
HStem: 704 134<344.945 555.805> 1160 121<413 515.775> 1394 137<432.239 539.208>
VStem: 540 167<1297.52 1393.73> 617 174<902.509 1135.66>
LayerCount: 2
Fore
SplineSet
268 1383 m 1,0,1
 364 1531 364 1531 512 1531 c 0,2,3
 600 1531 600 1531 644 1495 c 0,4,5
 707 1445 707 1445 707 1384 c 0,6,7
 707 1311 707 1311 659 1257 c 1,8,9
 791 1192 791 1192 791 1042 c 0,10,11
 791 906 791 906 676.5 805 c 128,-1,12
 562 704 562 704 423 704 c 0,13,14
 239 704 239 704 150 930 c 1,15,-1
 310 988 l 1,16,17
 322 838 322 838 441 838 c 0,18,19
 521 838 521 838 568 896 c 0,20,21
 617 952 617 952 617 1031 c 0,22,23
 617 1096 617 1096 590 1124 c 0,24,25
 554 1160 554 1160 413 1160 c 1,26,-1
 413 1281 l 1,27,28
 478 1281 478 1281 517 1302 c 0,29,30
 540 1316 540 1316 540 1349 c 0,31,32
 540 1394 540 1394 496 1394 c 0,33,34
 437 1394 437 1394 411 1298 c 1,35,-1
 268 1383 l 1,0,1
EndSplineSet
Validated: 1
EndChar

StartChar: acute
Encoding: 180 180 118
Width: 772
GlyphClass: 2
Flags: W
HStem: 1032 479
VStem: 150 472
DStem2: 150 1140 256 1032 0.702293 0.711888<0 518.709>
LayerCount: 2
Fore
SplineSet
256 1032 m 1,0,-1
 150 1140 l 1,1,-1
 515 1511 l 1,2,-1
 622 1403 l 1,3,-1
 256 1032 l 1,0,-1
EndSplineSet
Validated: 1
EndChar

StartChar: uni00B5
Encoding: 181 181 119
Width: 1382
GlyphClass: 2
Flags: W
HStem: -410 21G<200 400> -20 138<462.936 766.137> 0 21G<982 1182> 1080 20G<200 400 982 1182>
VStem: 200 200<-410 14 181.674 1100> 982 200<0 158 320.879 1100>
LayerCount: 2
Fore
SplineSet
200 1100 m 1,0,-1
 400 1100 l 1,1,-1
 400 349 l 2,2,3
 400 223 400 223 456 169 c 0,4,5
 509 118 509 118 583 118 c 0,6,7
 724 118 724 118 842 210 c 0,8,9
 982 319 982 319 982 509 c 2,10,-1
 982 1100 l 1,11,-1
 1182 1100 l 1,12,-1
 1182 0 l 1,13,-1
 982 0 l 1,14,-1
 982 158 l 1,15,16
 907 88 907 88 806 37 c 0,17,18
 693 -20 693 -20 550 -20 c 0,19,20
 470 -20 470 -20 400 14 c 1,21,-1
 400 -410 l 1,22,-1
 200 -410 l 1,23,-1
 200 1100 l 1,0,-1
EndSplineSet
Validated: 1
EndChar

StartChar: paragraph
Encoding: 182 182 120
Width: 1115
GlyphClass: 2
Flags: W
HStem: 0 21G<715 784 842 915> 704 807<413.907 651> 1442 69<784 842>
VStem: 150 634<859.744 1241.56> 715 69<0 790> 842 73<0 1442>
LayerCount: 2
Fore
SplineSet
915 0 m 1,0,-1
 842 0 l 1,1,-1
 842 1442 l 1,2,-1
 784 1442 l 1,3,-1
 784 0 l 1,4,-1
 715 0 l 1,5,-1
 715 790 l 1,6,7
 606 704 606 704 473 704 c 0,8,9
 316 704 316 704 225 815 c 0,10,11
 150 906 150 906 150 1035 c 0,12,13
 150 1243 150 1243 296 1381 c 0,14,15
 433 1511 433 1511 583 1511 c 0,16,17
 653 1511 653 1511 715 1481 c 1,18,-1
 715 1511 l 1,19,-1
 915 1511 l 1,20,-1
 915 0 l 1,0,-1
EndSplineSet
Validated: 1
EndChar

StartChar: periodcentered
Encoding: 183 183 121
Width: 552
GlyphClass: 2
Flags: W
HStem: 638 255<187.129 363.809>
VStem: 150 252<677.16 853.84>
LayerCount: 2
Fore
SplineSet
402 760 m 0,0,1
 402 712 402 712 366 674 c 0,2,3
 333 638 333 638 276 638 c 0,4,5
 222 638 222 638 186 676 c 0,6,7
 150 713 150 713 150 765 c 0,8,9
 150 818 150 818 186 855 c 0,10,11
 222 893 222 893 276 893 c 0,12,13
 327 893 327 893 365 856 c 1,14,15
 402 818 402 818 402 760 c 0,0,1
EndSplineSet
Validated: 1
EndChar

StartChar: cedilla
Encoding: 184 184 122
Width: 610
GlyphClass: 2
Flags: W
HStem: -410 656
VStem: 275 185<-213.679 73.8706>
LayerCount: 2
Fore
SplineSet
243 246 m 1,0,1
 460 126 460 126 460 -82 c 0,2,3
 460 -273 460 -273 314 -410 c 1,4,-1
 158 -276 l 1,5,6
 275 -214 275 -214 275 -70 c 128,-1,7
 275 74 275 74 150 145 c 1,8,-1
 243 246 l 1,0,1
EndSplineSet
Validated: 1
EndChar

StartChar: uni00B9
Encoding: 185 185 123
Width: 700
GlyphClass: 2
Flags: W
HStem: 1371 150<150 275>
VStem: 150 300<1371 1521> 275 175<715 1371>
LayerCount: 2
Fore
SplineSet
275 715 m 1,0,-1
 275 1371 l 1,1,-1
 150 1371 l 1,2,-1
 150 1521 l 1,3,-1
 450 1521 l 1,4,-1
 450 715 l 1,5,-1
 275 715 l 1,0,-1
EndSplineSet
Validated: 1
EndChar

StartChar: ordmasculine
Encoding: 186 186 124
Width: 1183
GlyphClass: 2
Flags: W
HStem: 693 150<150 1033> 894 127<493.013 689.192> 1404 127<525.305 721.191>
VStem: 291 163<1058.18 1329.75> 759 164<1091.61 1368.36>
LayerCount: 2
Fore
SplineSet
1033 693 m 1,0,-1
 150 693 l 1,1,-1
 150 843 l 1,2,-1
 1033 843 l 1,3,-1
 1033 693 l 1,0,-1
849 1041 m 0,4,5
 731 894 731 894 571 894 c 0,6,7
 445 894 445 894 368 978 c 128,-1,8
 291 1062 291 1062 291 1198 c 0,9,10
 291 1290 291 1290 354 1375 c 0,11,12
 469 1531 469 1531 642 1531 c 0,13,14
 769 1531 769 1531 851 1441 c 0,15,16
 923 1364 923 1364 923 1257 c 0,17,18
 923 1132 923 1132 849 1041 c 0,4,5
711 1088 m 0,19,20
 759 1143 759 1143 759 1234 c 0,21,22
 759 1296 759 1296 732 1344 c 0,23,24
 698 1404 698 1404 636 1404 c 0,25,26
 538 1404 538 1404 482 1304 c 0,27,28
 454 1254 454 1254 454 1190 c 0,29,30
 454 1131 454 1131 482 1082 c 0,31,32
 517 1021 517 1021 582 1021 c 0,33,34
 653 1021 653 1021 711 1088 c 0,19,20
EndSplineSet
Validated: 1
EndChar

StartChar: guillemotright
Encoding: 187 187 125
Width: 1409
GlyphClass: 2
Flags: W
HStem: 124 205<200 405 736 941> 1121 280<200 480 736 1016>
DStem2: 200 1401 200 1121 0.685814 -0.727776<203.777 744.063> 200 329 200 124 0.691073 0.722785<0 550.435> 736 1401 736 1121 0.689754 -0.724044<202.732 743.043> 736 329 736 124 0.691073 0.722785<0 550.435>
LayerCount: 2
Fore
SplineSet
200 124 m 1,0,-1
 200 329 l 1,1,-1
 575 732 l 1,2,-1
 200 1121 l 1,3,-1
 200 1401 l 1,4,-1
 723 846 l 1,5,-1
 723 671 l 1,6,-1
 200 124 l 1,0,-1
736 124 m 1,7,-1
 736 329 l 1,8,-1
 1111 732 l 1,9,-1
 736 1121 l 1,10,-1
 736 1401 l 1,11,-1
 1259 852 l 1,12,-1
 1259 671 l 1,13,-1
 736 124 l 1,7,-1
EndSplineSet
Validated: 1
EndChar

StartChar: onequarter
Encoding: 188 188 126
Width: 1559
GlyphClass: 2
Flags: W
HStem: 0 21G<207 394.171 1134 1309> 159 125<913 1134> 1371 150<150 275>
VStem: 150 300<1371 1521> 207 176<0 176> 275 175<715 1371> 1051 176<1335 1511> 1134 175<0 159 284 622>
DStem2: 207 0 383 0 0.487653 0.873038<85.8269 1730.74>
LayerCount: 2
Fore
SplineSet
207 0 m 1,0,-1
 1051 1511 l 1,1,-1
 1227 1511 l 1,2,-1
 383 0 l 1,3,-1
 207 0 l 1,0,-1
275 715 m 1,4,-1
 275 1371 l 1,5,-1
 150 1371 l 1,6,-1
 150 1521 l 1,7,-1
 450 1521 l 1,8,-1
 450 715 l 1,9,-1
 275 715 l 1,4,-1
1134 0 m 1,10,-1
 1134 159 l 1,11,-1
 720 159 l 1,12,13
 790 392 790 392 899 535 c 0,14,15
 1035 715 1035 715 1169 806 c 1,16,-1
 1309 806 l 1,17,-1
 1309 0 l 1,18,-1
 1134 0 l 1,10,-1
913 284 m 1,19,-1
 1134 284 l 1,20,-1
 1134 622 l 1,21,22
 1070 561 1070 561 1011 477 c 0,23,24
 941 378 941 378 913 284 c 1,19,-1
EndSplineSet
Validated: 1
EndChar

StartChar: onehalf
Encoding: 189 189 127
Width: 1689
GlyphClass: 2
Flags: W
HStem: 0 150<1081 1488> 678 138<1079.7 1282.45> 1371 150<150 275>
VStem: 150 300<1371 1521> 207 176<0 176> 275 175<715 1371> 1051 176<1335 1511> 1312 177<452.318 648.441>
DStem2: 207 0 383 0 0.487653 0.873038<85.8269 1730.74> 954 219 1081 150 0.803742 0.594978<61.0218 476.183>
LayerCount: 2
Fore
SplineSet
862 584 m 1,0,1
 911 688 911 688 1016 760 c 0,2,3
 1099 816 1099 816 1200 816 c 0,4,5
 1311 816 1311 816 1390 751 c 0,6,7
 1489 670 1489 670 1489 559 c 0,8,9
 1489 427 1489 427 1368 344 c 24,10,11
 1258 269 1258 269 1081 150 c 1,12,-1
 1488 150 l 1,13,-1
 1488 0 l 1,14,-1
 906 0 l 1,15,16
 870 36 870 36 870 89 c 0,17,18
 870 158 870 158 954 219 c 0,19,20
 954 219 954 219 1262 447 c 0,21,22
 1312 484 1312 484 1312 555 c 0,23,24
 1312 611 1312 611 1278 644.5 c 128,-1,25
 1244 678 1244 678 1186.5 678 c 128,-1,26
 1129 678 1129 678 1077 632 c 0,27,28
 1028 591 1028 591 1010 501 c 1,29,-1
 862 584 l 1,0,1
207 0 m 1,30,-1
 1051 1511 l 1,31,-1
 1227 1511 l 1,32,-1
 383 0 l 1,33,-1
 207 0 l 1,30,-1
275 715 m 1,34,-1
 275 1371 l 1,35,-1
 150 1371 l 1,36,-1
 150 1521 l 1,37,-1
 450 1521 l 1,38,-1
 450 715 l 1,39,-1
 275 715 l 1,34,-1
EndSplineSet
Validated: 1
EndChar

StartChar: threequarters
Encoding: 190 190 128
Width: 1785
GlyphClass: 2
Flags: W
HStem: 0 21G<433 620.171 1360 1535> 159 125<1139 1360> 704 134<344.945 555.805> 1160 121<413 515.775> 1394 137<432.239 539.208> 1491 20G<1265.83 1453>
VStem: 433 176<0 176> 540 167<1297.52 1393.73> 617 174<902.509 1135.66> 1277 176<1335 1511> 1360 175<0 159 284 622>
DStem2: 433 0 609 0 0.487653 0.873038<85.8269 1730.74>
LayerCount: 2
Fore
SplineSet
433 0 m 1,0,-1
 1277 1511 l 1,1,-1
 1453 1511 l 1,2,-1
 609 0 l 1,3,-1
 433 0 l 1,0,-1
1360 0 m 1,4,-1
 1360 159 l 1,5,-1
 946 159 l 1,6,7
 1016 392 1016 392 1125 535 c 0,8,9
 1261 715 1261 715 1395 806 c 1,10,-1
 1535 806 l 1,11,-1
 1535 0 l 1,12,-1
 1360 0 l 1,4,-1
1139 284 m 1,13,-1
 1360 284 l 1,14,-1
 1360 622 l 1,15,16
 1296 561 1296 561 1237 477 c 0,17,18
 1167 378 1167 378 1139 284 c 1,13,-1
268 1383 m 1,19,20
 364 1531 364 1531 512 1531 c 0,21,22
 600 1531 600 1531 644 1495 c 0,23,24
 707 1445 707 1445 707 1384 c 0,25,26
 707 1311 707 1311 659 1257 c 1,27,28
 791 1192 791 1192 791 1042 c 0,29,30
 791 906 791 906 676.5 805 c 128,-1,31
 562 704 562 704 423 704 c 0,32,33
 239 704 239 704 150 930 c 1,34,-1
 310 988 l 1,35,36
 322 838 322 838 441 838 c 0,37,38
 521 838 521 838 568 896 c 0,39,40
 617 952 617 952 617 1031 c 0,41,42
 617 1096 617 1096 590 1124 c 0,43,44
 554 1160 554 1160 413 1160 c 1,45,-1
 413 1281 l 1,46,47
 478 1281 478 1281 517 1302 c 0,48,49
 540 1316 540 1316 540 1349 c 0,50,51
 540 1394 540 1394 496 1394 c 0,52,53
 437 1394 437 1394 411 1298 c 1,54,-1
 268 1383 l 1,19,20
EndSplineSet
Validated: 1
EndChar

StartChar: questiondown
Encoding: 191 191 129
Width: 1372
GlyphClass: 2
Flags: W
HStem: -20 124<503.715 843.201> 1276 255<667.191 843.871>
VStem: 150 203<256.039 611.857> 629 252<1315.16 1491.84> 734 149<1055.34 1216.39>
LayerCount: 2
Fore
SplineSet
629 1409 m 0,0,1
 629 1457 629 1457 665 1495 c 0,2,3
 698 1531 698 1531 755 1531 c 0,4,5
 809 1531 809 1531 845 1493 c 0,6,7
 881 1456 881 1456 881 1404 c 0,8,9
 881 1351 881 1351 845 1314 c 0,10,11
 809 1276 809 1276 755 1276 c 0,12,13
 704 1276 704 1276 666 1313 c 1,14,15
 629 1351 629 1351 629 1409 c 0,0,1
1222 342 m 1,16,17
 1154 203 1154 203 999 90 c 0,18,19
 848 -20 848 -20 651 -20 c 0,20,21
 425 -20 425 -20 278 135 c 0,22,23
 150 271 150 271 150 455 c 0,24,25
 150 695 150 695 396 859 c 24,26,27
 420 875 420 875 698 1059 c 0,28,29
 734 1083 734 1083 734 1130 c 0,30,31
 734 1184 734 1184 682 1223 c 1,32,-1
 833 1223 l 1,33,34
 883 1167 883 1167 883 1101 c 0,35,36
 883 1026 883 1026 794 958 c 0,37,38
 598 805 598 805 493 723 c 0,39,40
 353 614 353 614 353 427 c 0,41,42
 353 307 353 307 421 220 c 0,43,44
 512 104 512 104 671 104 c 0,45,46
 814 104 814 104 924 208 c 0,47,48
 1025 303 1025 303 1067 427 c 1,49,-1
 1222 342 l 1,16,17
EndSplineSet
Validated: 1
EndChar

StartChar: Agrave
Encoding: 192 192 130
Width: 1537
GlyphClass: 2
Flags: W
HStem: 0 21G<5 183.448 1304.29 1532> 696 150<533 945> 1491 20G<662.185 874.815>
VStem: 5 170<0 170> 1313 219<0 219>
DStem2: 5 0 175 0 0.403327 0.915056<68.5656 824.023 987.094 987.094> 866 1511 736 1327 0.403327 -0.915056<115.938 640.375 803.85 1562.94>
LayerCount: 2
Fore
SplineSet
5 0 m 1,0,-1
 671 1511 l 1,1,-1
 866 1511 l 1,2,-1
 1532 0 l 1,3,-1
 1313 0 l 1,4,-1
 1010 696 l 1,5,-1
 469 696 l 1,6,-1
 175 0 l 1,7,-1
 5 0 l 1,0,-1
533 846 m 1,8,-1
 945 846 l 1,9,-1
 736 1327 l 1,10,-1
 533 846 l 1,8,-1
764 1592 m 1,11,-1
 474 1858 l 1,12,-1
 581 1966 l 1,13,-1
 846 1675 l 1,14,-1
 764 1592 l 1,11,-1
EndSplineSet
Validated: 1
EndChar

StartChar: Aacute
Encoding: 193 193 131
Width: 1537
GlyphClass: 2
Flags: W
HStem: 0 21G<5 183.448 1304.29 1532> 696 150<533 945> 1491 20G<662.185 874.815>
VStem: 5 170<0 170> 1313 219<0 219>
DStem2: 5 0 175 0 0.403327 0.915056<68.5656 824.023 987.094 987.094> 866 1511 736 1327 0.403327 -0.915056<115.938 640.375 803.85 1562.94>
LayerCount: 2
Fore
SplineSet
5 0 m 1,0,-1
 671 1511 l 1,1,-1
 866 1511 l 1,2,-1
 1532 0 l 1,3,-1
 1313 0 l 1,4,-1
 1010 696 l 1,5,-1
 469 696 l 1,6,-1
 175 0 l 1,7,-1
 5 0 l 1,0,-1
533 846 m 1,8,-1
 945 846 l 1,9,-1
 736 1327 l 1,10,-1
 533 846 l 1,8,-1
770 1592 m 1,11,-1
 688 1675 l 1,12,-1
 953 1966 l 1,13,-1
 1060 1858 l 1,14,-1
 770 1592 l 1,11,-1
EndSplineSet
Validated: 1
EndChar

StartChar: Acircumflex
Encoding: 194 194 132
Width: 1537
GlyphClass: 2
Flags: W
HStem: 0 21G<5 183.448 1304.29 1532> 696 150<533 945> 1491 20G<662.185 874.815>
VStem: 5 170<0 170> 1313 219<0 219>
DStem2: 5 0 175 0 0.403327 0.915056<68.5656 824.023 987.094 987.094> 866 1511 736 1327 0.403327 -0.915056<115.938 640.375 803.85 1562.94>
LayerCount: 2
Fore
SplineSet
5 0 m 1,0,-1
 671 1511 l 1,1,-1
 866 1511 l 1,2,-1
 1532 0 l 1,3,-1
 1313 0 l 1,4,-1
 1010 696 l 1,5,-1
 469 696 l 1,6,-1
 175 0 l 1,7,-1
 5 0 l 1,0,-1
533 846 m 1,8,-1
 945 846 l 1,9,-1
 736 1327 l 1,10,-1
 533 846 l 1,8,-1
584 1592 m 1,11,-1
 502 1675 l 1,12,-1
 767 1966 l 1,13,-1
 1032 1675 l 1,14,-1
 950 1592 l 1,15,-1
 766 1761 l 1,16,-1
 584 1592 l 1,11,-1
EndSplineSet
Validated: 1
EndChar

StartChar: Atilde
Encoding: 195 195 133
Width: 1537
GlyphClass: 2
Flags: W
HStem: 0 21G<5 183.448 1304.29 1532> 696 150<533 945> 1491 20G<662.185 874.815> 1640 138<788.454 981.537> 1752 138<549.987 751.3>
VStem: 5 170<0 170> 1313 219<0 219>
DStem2: 5 0 175 0 0.403327 0.915056<68.5656 824.023 987.094 987.094> 866 1511 736 1327 0.403327 -0.915056<115.938 640.375 803.85 1562.94>
LayerCount: 2
Fore
SplineSet
5 0 m 1,0,-1
 671 1511 l 1,1,-1
 866 1511 l 1,2,-1
 1532 0 l 1,3,-1
 1313 0 l 1,4,-1
 1010 696 l 1,5,-1
 469 696 l 1,6,-1
 175 0 l 1,7,-1
 5 0 l 1,0,-1
533 846 m 1,8,-1
 945 846 l 1,9,-1
 736 1327 l 1,10,-1
 533 846 l 1,8,-1
506 1809 m 1,11,12
 555 1890 555 1890 626 1890 c 0,13,14
 688 1890 688 1890 769 1835 c 0,15,16
 853 1778 853 1778 906 1778 c 0,17,18
 966 1778 966 1778 1026 1890 c 1,19,-1
 1026 1721 l 1,20,21
 976 1640 976 1640 906 1640 c 0,22,23
 840 1640 840 1640 767 1696 c 152,-1,24
 694 1752 694 1752 626 1752 c 0,25,26
 565 1752 565 1752 506 1640 c 1,27,-1
 506 1809 l 1,11,12
EndSplineSet
Validated: 1
EndChar

StartChar: Adieresis
Encoding: 196 196 134
Width: 1537
GlyphClass: 2
Flags: W
HStem: 0 21G<5 183.448 1304.29 1532> 696 150<533 945> 1491 20G<662.185 874.815> 1638 255<524.129 700.809 833.129 1008.81>
VStem: 5 170<0 170> 487 252<1677.16 1853.84> 795 252<1677.22 1854.9> 1313 219<0 219>
DStem2: 5 0 175 0 0.403327 0.915056<68.5656 824.023 987.094 987.094> 866 1511 736 1327 0.403327 -0.915056<115.938 640.375 803.85 1562.94>
LayerCount: 2
Fore
SplineSet
5 0 m 1,0,-1
 671 1511 l 1,1,-1
 866 1511 l 1,2,-1
 1532 0 l 1,3,-1
 1313 0 l 1,4,-1
 1010 696 l 1,5,-1
 469 696 l 1,6,-1
 175 0 l 1,7,-1
 5 0 l 1,0,-1
533 846 m 1,8,-1
 945 846 l 1,9,-1
 736 1327 l 1,10,-1
 533 846 l 1,8,-1
795 1766 m 0,11,12
 795 1818 795 1818 832 1855 c 1,13,14
 867 1893 867 1893 921 1893 c 0,15,16
 972 1893 972 1893 1010 1856 c 0,17,18
 1045 1821 1045 1821 1047 1767 c 1,19,20
 1047 1713 1047 1713 1010 1675 c 1,21,22
 972 1638 972 1638 921 1638 c 0,23,24
 868 1638 868 1638 832 1676 c 0,25,26
 795 1715 795 1715 795 1766 c 0,11,12
487 1766 m 0,27,28
 487 1818 487 1818 523 1855 c 0,29,30
 559 1893 559 1893 613 1893 c 0,31,32
 664 1893 664 1893 702 1856 c 0,33,34
 737 1821 737 1821 739 1767 c 1,35,36
 739 1713 739 1713 702 1675 c 1,37,38
 664 1638 664 1638 613 1638 c 0,39,40
 559 1638 559 1638 523 1676 c 0,41,42
 487 1713 487 1713 487 1766 c 0,27,28
EndSplineSet
Validated: 1
EndChar

StartChar: Aring
Encoding: 197 197 135
Width: 1537
GlyphClass: 2
Flags: W
HStem: 0 21G<5 183.448 1304.29 1532> 696 150<533 945> 1491 20G<662.185 874.815> 1596 104<702.026 835.18> 1856 110<709.66 833.646>
VStem: 5 170<0 170> 582 112<1707.33 1839.94> 850 114<1715.24 1839.92> 1313 219<0 219>
DStem2: 5 0 175 0 0.403327 0.915056<68.5656 824.023 987.094 987.094> 866 1511 736 1327 0.403327 -0.915056<115.938 640.375 803.85 1562.94>
LayerCount: 2
Fore
SplineSet
5 0 m 1,0,-1
 671 1511 l 1,1,-1
 866 1511 l 1,2,-1
 1532 0 l 1,3,-1
 1313 0 l 1,4,-1
 1010 696 l 1,5,-1
 469 696 l 1,6,-1
 175 0 l 1,7,-1
 5 0 l 1,0,-1
533 846 m 1,8,-1
 945 846 l 1,9,-1
 736 1327 l 1,10,-1
 533 846 l 1,8,-1
850 1775 m 0,11,12
 850 1810 850 1810 827 1833 c 129,-1,13
 804 1856 804 1856 772 1856 c 0,14,15
 739 1856 739 1856 717 1833 c 0,16,17
 694 1809 694 1809 694 1777 c 0,18,19
 694 1746 694 1746 717 1723 c 128,-1,20
 740 1700 740 1700 772 1700 c 0,21,22
 806 1700 806 1700 828 1723 c 128,-1,23
 850 1746 850 1746 850 1775 c 0,11,12
964 1773 m 0,24,25
 964 1703 964 1703 909 1648 c 0,26,27
 858 1596 858 1596 773 1596 c 0,28,29
 692 1596 692 1596 637 1651.5 c 128,-1,30
 582 1707 582 1707 582 1780 c 0,31,32
 582 1858 582 1858 637 1911 c 0,33,34
 694 1966 694 1966 773 1966 c 0,35,36
 850 1966 850 1966 908 1912 c 1,37,38
 964 1857 964 1857 964 1773 c 0,24,25
EndSplineSet
Validated: 1
EndChar

StartChar: AE
Encoding: 198 198 136
Width: 2578
GlyphClass: 2
Flags: W
HStem: -20 123<1579.81 2025.3> 0 21G<5 183.448 1304.29 1532> 696 150<533 945 1322 2116> 1408 123<1730.98 2174.49> 1491 20G<662.185 874.819>
VStem: 5 170<0 170>
DStem2: 5 0 175 0 0.403327 0.915056<68.5656 824.023 987.094 987.094> 866 1511 736 1327 0.403327 -0.915056<115.938 640.375>
LayerCount: 2
Fore
SplineSet
5 0 m 1,0,-1
 671 1511 l 1,1,-1
 866 1511 l 1,2,-1
 1131 910 l 1,3,4
 1197 1147 1197 1147 1400 1327 c 0,5,6
 1630 1531 1630 1531 1970 1531 c 0,7,8
 2297 1531 2297 1531 2498 1314 c 1,9,-1
 2339 1220 l 1,10,11
 2213 1408 2213 1408 1970 1408 c 0,12,13
 1718 1408 1718 1408 1520 1231 c 0,14,15
 1362 1089 1362 1089 1322 846 c 1,16,-1
 2116 846 l 1,17,-1
 2116 696 l 1,18,-1
 1309 696 l 1,19,20
 1309 433 1309 433 1433 270 c 0,21,22
 1561 103 1561 103 1787 103 c 0,23,24
 2038 103 2038 103 2237 280 c 0,25,26
 2307 342 2307 342 2354 425 c 1,27,-1
 2490 327 l 1,28,29
 2436 253 2436 253 2357 184 c 0,30,31
 2125 -20 2125 -20 1787 -20 c 0,32,33
 1642 -20 1642 -20 1522 22 c 1,34,-1
 1532 0 l 1,35,-1
 1313 0 l 1,36,-1
 1010 696 l 1,37,-1
 469 696 l 1,38,-1
 175 0 l 1,39,-1
 5 0 l 1,0,-1
533 846 m 1,40,-1
 945 846 l 1,41,-1
 736 1327 l 1,42,-1
 533 846 l 1,40,-1
EndSplineSet
Validated: 1
EndChar

StartChar: Ccedilla
Encoding: 199 199 137
Width: 1579
GlyphClass: 2
Flags: W
HStem: -410 21G<735.739 830> -19 122<839 1020.74> 1408 123<732.469 1175.49>
VStem: 100 210<415.995 948.509> 743 159<-266.297 -59.3302>
LayerCount: 2
Fore
SplineSet
1491 327 m 1,0,1
 1439 255 1439 255 1358 184 c 0,2,3
 1144 -5 1144 -5 839 -19 c 1,4,5
 902 -102 902 -102 902 -207 c 0,6,7
 902 -332 902 -332 758 -410 c 1,8,-1
 630 -295 l 1,9,10
 743 -268 743 -268 743 -179 c 0,11,12
 743 -93 743 -93 654 -10 c 1,13,14
 426 25 426 25 271 185 c 0,15,16
 100 362 100 362 100 668 c 0,17,18
 100 1061 100 1061 401 1327 c 0,19,20
 632 1531 632 1531 971 1531 c 0,21,22
 1298 1531 1298 1531 1499 1314 c 1,23,-1
 1340 1220 l 1,24,25
 1214 1408 1214 1408 971 1408 c 0,26,27
 720 1408 720 1408 521 1231 c 0,28,29
 310 1043 310 1043 310 671 c 0,30,31
 310 433 310 433 434 270 c 0,32,33
 561 103 561 103 788 103 c 0,34,35
 1039 104 1039 104 1238 280 c 0,36,37
 1308 342 1308 342 1355 425 c 1,38,-1
 1491 327 l 1,0,1
EndSplineSet
Validated: 1
EndChar

StartChar: Egrave
Encoding: 200 200 138
Width: 1579
GlyphClass: 2
Flags: W
HStem: -20 123<581.989 1026.3> 696 150<323 1117> 1408 123<731.969 1175.49>
VStem: 100 210<418.941 696 846 944.891>
LayerCount: 2
Fore
SplineSet
1491 327 m 1,0,1
 1438 255 1438 255 1358 184 c 0,2,3
 1126 -20 1126 -20 788 -20 c 0,4,5
 469 -20 469 -20 271 185 c 0,6,7
 100 362 100 362 100 668 c 0,8,9
 100 1061 100 1061 401 1327 c 0,10,11
 632 1531 632 1531 971 1531 c 0,12,13
 1298 1531 1298 1531 1499 1314 c 1,14,-1
 1340 1220 l 1,15,16
 1214 1408 1214 1408 971 1408 c 0,17,18
 718 1408 718 1408 521 1231 c 0,19,20
 363 1090 363 1090 323 846 c 1,21,-1
 1117 846 l 1,22,-1
 1117 696 l 1,23,-1
 310 696 l 1,24,25
 310 433 310 433 434 270 c 0,26,27
 562 103 562 103 788 103 c 0,28,29
 1039 103 1039 103 1238 280 c 0,30,31
 1308 342 1308 342 1355 425 c 1,32,-1
 1491 327 l 1,0,1
970 1592 m 1,33,-1
 680 1858 l 1,34,-1
 787 1966 l 1,35,-1
 1052 1675 l 1,36,-1
 970 1592 l 1,33,-1
EndSplineSet
Validated: 1
EndChar

StartChar: Eacute
Encoding: 201 201 139
Width: 1579
GlyphClass: 2
Flags: W
HStem: -20 123<581.989 1026.3> 696 150<323 1117> 1408 123<731.969 1175.49>
VStem: 100 210<418.941 696 846 944.891>
LayerCount: 2
Fore
SplineSet
1491 327 m 1,0,1
 1438 255 1438 255 1358 184 c 0,2,3
 1126 -20 1126 -20 788 -20 c 0,4,5
 469 -20 469 -20 271 185 c 0,6,7
 100 362 100 362 100 668 c 0,8,9
 100 1061 100 1061 401 1327 c 0,10,11
 632 1531 632 1531 971 1531 c 0,12,13
 1298 1531 1298 1531 1499 1314 c 1,14,-1
 1340 1220 l 1,15,16
 1214 1408 1214 1408 971 1408 c 0,17,18
 718 1408 718 1408 521 1231 c 0,19,20
 363 1090 363 1090 323 846 c 1,21,-1
 1117 846 l 1,22,-1
 1117 696 l 1,23,-1
 310 696 l 1,24,25
 310 433 310 433 434 270 c 0,26,27
 562 103 562 103 788 103 c 0,28,29
 1039 103 1039 103 1238 280 c 0,30,31
 1308 342 1308 342 1355 425 c 1,32,-1
 1491 327 l 1,0,1
969 1592 m 1,33,-1
 887 1675 l 1,34,-1
 1152 1966 l 1,35,-1
 1259 1858 l 1,36,-1
 969 1592 l 1,33,-1
EndSplineSet
Validated: 1
EndChar

StartChar: Ecircumflex
Encoding: 202 202 140
Width: 1579
GlyphClass: 2
Flags: W
HStem: -20 123<581.989 1026.3> 696 150<323 1117> 1408 123<731.969 1175.49>
VStem: 100 210<418.941 696 846 944.891>
LayerCount: 2
Fore
SplineSet
1491 327 m 1,0,1
 1438 255 1438 255 1358 184 c 0,2,3
 1126 -20 1126 -20 788 -20 c 0,4,5
 469 -20 469 -20 271 185 c 0,6,7
 100 362 100 362 100 668 c 0,8,9
 100 1061 100 1061 401 1327 c 0,10,11
 632 1531 632 1531 971 1531 c 0,12,13
 1298 1531 1298 1531 1499 1314 c 1,14,-1
 1340 1220 l 1,15,16
 1214 1408 1214 1408 971 1408 c 0,17,18
 718 1408 718 1408 521 1231 c 0,19,20
 363 1090 363 1090 323 846 c 1,21,-1
 1117 846 l 1,22,-1
 1117 696 l 1,23,-1
 310 696 l 1,24,25
 310 433 310 433 434 270 c 0,26,27
 562 103 562 103 788 103 c 0,28,29
 1039 103 1039 103 1238 280 c 0,30,31
 1308 342 1308 342 1355 425 c 1,32,-1
 1491 327 l 1,0,1
793 1592 m 1,33,-1
 711 1675 l 1,34,-1
 976 1966 l 1,35,-1
 1241 1675 l 1,36,-1
 1159 1592 l 1,37,-1
 975 1761 l 1,38,-1
 793 1592 l 1,33,-1
EndSplineSet
Validated: 1
EndChar

StartChar: Edieresis
Encoding: 203 203 141
Width: 1579
GlyphClass: 2
Flags: W
HStem: -20 123<581.989 1026.3> 696 150<323 1117> 1408 123<731.969 1175.49> 1638 255<731.129 907.809 1040.13 1215.81>
VStem: 100 210<418.941 696 846 944.891> 694 252<1677.16 1853.84> 1002 252<1677.22 1854.9>
LayerCount: 2
Fore
SplineSet
1491 327 m 1,0,1
 1438 255 1438 255 1358 184 c 0,2,3
 1126 -20 1126 -20 788 -20 c 0,4,5
 469 -20 469 -20 271 185 c 0,6,7
 100 362 100 362 100 668 c 0,8,9
 100 1061 100 1061 401 1327 c 0,10,11
 632 1531 632 1531 971 1531 c 0,12,13
 1298 1531 1298 1531 1499 1314 c 1,14,-1
 1340 1220 l 1,15,16
 1214 1408 1214 1408 971 1408 c 0,17,18
 718 1408 718 1408 521 1231 c 0,19,20
 363 1090 363 1090 323 846 c 1,21,-1
 1117 846 l 1,22,-1
 1117 696 l 1,23,-1
 310 696 l 1,24,25
 310 433 310 433 434 270 c 0,26,27
 562 103 562 103 788 103 c 0,28,29
 1039 103 1039 103 1238 280 c 0,30,31
 1308 342 1308 342 1355 425 c 1,32,-1
 1491 327 l 1,0,1
1002 1766 m 0,33,34
 1002 1818 1002 1818 1039 1855 c 1,35,36
 1074 1893 1074 1893 1128 1893 c 0,37,38
 1179 1893 1179 1893 1217 1856 c 0,39,40
 1252 1821 1252 1821 1254 1767 c 1,41,42
 1254 1713 1254 1713 1217 1675 c 1,43,44
 1179 1638 1179 1638 1128 1638 c 0,45,46
 1075 1638 1075 1638 1039 1676 c 0,47,48
 1002 1715 1002 1715 1002 1766 c 0,33,34
694 1766 m 0,49,50
 694 1818 694 1818 730 1855 c 0,51,52
 766 1893 766 1893 820 1893 c 0,53,54
 871 1893 871 1893 909 1856 c 0,55,56
 944 1821 944 1821 946 1767 c 1,57,58
 946 1713 946 1713 909 1675 c 1,59,60
 871 1638 871 1638 820 1638 c 0,61,62
 766 1638 766 1638 730 1676 c 0,63,64
 694 1713 694 1713 694 1766 c 0,49,50
EndSplineSet
Validated: 1
EndChar

StartChar: Igrave
Encoding: 204 204 142
Width: 600
GlyphClass: 2
Flags: W
HStem: 0 21G<200 400> 1491 20G<200 400>
VStem: 200 200<0 1511>
LayerCount: 2
Fore
SplineSet
294 1592 m 1,0,-1
 4 1858 l 1,1,-1
 111 1966 l 1,2,-1
 376 1675 l 1,3,-1
 294 1592 l 1,0,-1
200 0 m 1,4,-1
 200 1511 l 1,5,-1
 400 1511 l 1,6,-1
 400 0 l 1,7,-1
 200 0 l 1,4,-1
EndSplineSet
Validated: 1
EndChar

StartChar: Iacute
Encoding: 205 205 143
Width: 600
GlyphClass: 2
Flags: W
HStem: 0 21G<200 400> 1491 20G<200 400>
VStem: 200 200<0 1511>
LayerCount: 2
Fore
SplineSet
306 1592 m 1,0,-1
 224 1675 l 1,1,-1
 489 1966 l 1,2,-1
 596 1858 l 1,3,-1
 306 1592 l 1,0,-1
200 0 m 1,4,-1
 200 1511 l 1,5,-1
 400 1511 l 1,6,-1
 400 0 l 1,7,-1
 200 0 l 1,4,-1
EndSplineSet
Validated: 1
EndChar

StartChar: Icircumflex
Encoding: 206 206 144
Width: 600
GlyphClass: 2
Flags: W
HStem: 0 21G<200 400> 1491 20G<200 400>
VStem: 200 200<0 1511>
LayerCount: 2
Fore
SplineSet
200 0 m 1,0,-1
 200 1511 l 1,1,-1
 400 1511 l 1,2,-1
 400 0 l 1,3,-1
 200 0 l 1,0,-1
117 1592 m 1,4,-1
 35 1675 l 1,5,-1
 300 1966 l 1,6,-1
 565 1675 l 1,7,-1
 483 1592 l 1,8,-1
 299 1761 l 1,9,-1
 117 1592 l 1,4,-1
EndSplineSet
Validated: 1
EndChar

StartChar: Idieresis
Encoding: 207 207 145
Width: 600
GlyphClass: 2
Flags: W
HStem: 0 21G<200 400> 1491 20G<200 400> 1638 255<57.1294 233.809 366.129 541.809>
VStem: 20 252<1677.16 1853.84> 200 200<0 1511> 328 252<1677.22 1854.9>
LayerCount: 2
Fore
SplineSet
200 0 m 1,0,-1
 200 1511 l 1,1,-1
 400 1511 l 1,2,-1
 400 0 l 1,3,-1
 200 0 l 1,0,-1
328 1766 m 0,4,5
 328 1818 328 1818 365 1855 c 1,6,7
 400 1893 400 1893 454 1893 c 0,8,9
 505 1893 505 1893 543 1856 c 0,10,11
 578 1821 578 1821 580 1767 c 1,12,13
 580 1713 580 1713 543 1675 c 1,14,15
 505 1638 505 1638 454 1638 c 0,16,17
 401 1638 401 1638 365 1676 c 0,18,19
 328 1715 328 1715 328 1766 c 0,4,5
20 1766 m 0,20,21
 20 1818 20 1818 56 1855 c 0,22,23
 92 1893 92 1893 146 1893 c 0,24,25
 197 1893 197 1893 235 1856 c 0,26,27
 270 1821 270 1821 272 1767 c 1,28,29
 272 1713 272 1713 235 1675 c 1,30,31
 197 1638 197 1638 146 1638 c 0,32,33
 92 1638 92 1638 56 1676 c 0,34,35
 20 1713 20 1713 20 1766 c 0,20,21
EndSplineSet
Validated: 1
EndChar

StartChar: Eth
Encoding: 208 208 146
Width: 1642
GlyphClass: 2
Flags: W
HStem: -20 108<537.048 884.877> 0 21G<200 400> 696 150<90 200 400 862> 1407 124<623.054 1067.9> 1491 20G<200 400>
VStem: 200 200<0 696 846 1201.69 1357 1511> 1342 200<580.357 1104.27>
LayerCount: 2
Fore
SplineSet
200 0 m 1,0,-1
 200 696 l 1,1,-1
 90 696 l 1,2,-1
 90 846 l 1,3,-1
 200 846 l 1,4,-1
 200 1511 l 1,5,-1
 400 1511 l 1,6,-1
 400 1357 l 1,7,8
 464 1423 464 1423 529 1455 c 0,9,10
 683 1531 683 1531 874 1531 c 0,11,12
 1184 1531 1184 1531 1372 1324 c 0,13,14
 1542 1137 1542 1137 1542 843 c 0,15,16
 1542 501 1542 501 1278 239 c 0,17,18
 1017 -20 1017 -20 703 -20 c 0,19,20
 522 -20 522 -20 448 130 c 1,21,22
 580 88 580 88 667 88 c 0,23,24
 920 88 920 88 1118 294 c 0,25,26
 1342 527 1342 527 1342 843 c 0,27,28
 1342 1087 1342 1087 1224 1238 c 0,29,30
 1092 1407 1092 1407 855 1407 c 0,31,32
 668 1407 668 1407 559 1326 c 0,33,34
 400 1207 400 1207 400 1030 c 2,35,-1
 400 846 l 1,36,-1
 862 846 l 1,37,-1
 862 696 l 1,38,-1
 400 696 l 1,39,-1
 400 0 l 1,40,-1
 200 0 l 1,0,-1
EndSplineSet
Validated: 1
EndChar

StartChar: Ntilde
Encoding: 209 209 147
Width: 1571
GlyphClass: 2
Flags: W
HStem: 0 21G<200 400 1171 1371> 1407 124<657.86 1042.03> 1491 20G<200 400> 1640 138<854.454 1047.54> 1752 138<615.987 817.3>
VStem: 200 200<0 1156.61 1333 1511> 1171 200<0 1275.62>
LayerCount: 2
Fore
SplineSet
572 1809 m 1,0,1
 621 1890 621 1890 692 1890 c 0,2,3
 754 1890 754 1890 835 1835 c 0,4,5
 919 1778 919 1778 972 1778 c 0,6,7
 1032 1778 1032 1778 1092 1890 c 1,8,-1
 1092 1721 l 1,9,10
 1042 1640 1042 1640 972 1640 c 0,11,12
 906 1640 906 1640 833 1696 c 152,-1,13
 760 1752 760 1752 692 1752 c 0,14,15
 631 1752 631 1752 572 1640 c 1,16,-1
 572 1809 l 1,0,1
200 0 m 1,17,-1
 200 1511 l 1,18,-1
 400 1511 l 1,19,-1
 400 1333 l 1,20,21
 484 1418 484 1418 617 1475 c 0,22,23
 748 1531 748 1531 888 1531 c 0,24,25
 1121 1531 1121 1531 1248 1409 c 24,26,27
 1371 1289 1371 1289 1371 1104 c 2,28,-1
 1371 0 l 1,29,-1
 1171 0 l 1,30,-1
 1171 1102 l 2,31,32
 1171 1238 1171 1238 1093 1320 c 0,33,34
 1011 1407 1011 1407 871 1407 c 0,35,36
 684 1407 684 1407 549 1292 c 0,37,38
 400 1163 400 1163 400 944 c 2,39,-1
 400 0 l 1,40,-1
 200 0 l 1,17,-1
EndSplineSet
Validated: 1
EndChar

StartChar: Ograve
Encoding: 210 210 148
Width: 1759
GlyphClass: 2
Flags: W
HStem: -20 123<581.989 1026.78> 1408 123<732.219 1177.01>
VStem: 100 210<415.995 948.509> 1449 210<562.491 1095.01>
LayerCount: 2
Fore
SplineSet
788 -20 m 0,0,1
 469 -20 469 -20 271 185 c 0,2,3
 100 362 100 362 100 668 c 0,4,5
 100 1061 100 1061 401 1327 c 0,6,7
 632 1531 632 1531 971 1531 c 0,8,9
 1290 1531 1290 1531 1488 1326 c 0,10,11
 1659 1149 1659 1149 1659 843 c 0,12,13
 1659 450 1659 450 1358 184 c 0,14,15
 1127 -20 1127 -20 788 -20 c 0,0,1
788 103 m 0,16,17
 1040 104 1040 104 1238 280 c 0,18,19
 1449 468 1449 468 1449 840 c 0,20,21
 1449 1078 1449 1078 1325 1241 c 0,22,23
 1197 1408 1197 1408 971 1408 c 0,24,25
 719 1407 719 1407 521 1231 c 0,26,27
 310 1043 310 1043 310 671 c 0,28,29
 310 433 310 433 434 270 c 0,30,31
 562 103 562 103 788 103 c 0,16,17
970 1592 m 1,32,-1
 680 1858 l 1,33,-1
 787 1966 l 1,34,-1
 1052 1675 l 1,35,-1
 970 1592 l 1,32,-1
EndSplineSet
Validated: 1
EndChar

StartChar: Oacute
Encoding: 211 211 149
Width: 1759
GlyphClass: 2
Flags: W
HStem: -20 123<581.989 1026.78> 1408 123<732.219 1177.01>
VStem: 100 210<415.995 948.509> 1449 210<562.491 1095.01>
LayerCount: 2
Fore
SplineSet
788 -20 m 0,0,1
 469 -20 469 -20 271 185 c 0,2,3
 100 362 100 362 100 668 c 0,4,5
 100 1061 100 1061 401 1327 c 0,6,7
 632 1531 632 1531 971 1531 c 0,8,9
 1290 1531 1290 1531 1488 1326 c 0,10,11
 1659 1149 1659 1149 1659 843 c 0,12,13
 1659 450 1659 450 1358 184 c 0,14,15
 1127 -20 1127 -20 788 -20 c 0,0,1
788 103 m 0,16,17
 1040 104 1040 104 1238 280 c 0,18,19
 1449 468 1449 468 1449 840 c 0,20,21
 1449 1078 1449 1078 1325 1241 c 0,22,23
 1197 1408 1197 1408 971 1408 c 0,24,25
 719 1407 719 1407 521 1231 c 0,26,27
 310 1043 310 1043 310 671 c 0,28,29
 310 433 310 433 434 270 c 0,30,31
 562 103 562 103 788 103 c 0,16,17
969 1592 m 1,32,-1
 887 1675 l 1,33,-1
 1152 1966 l 1,34,-1
 1259 1858 l 1,35,-1
 969 1592 l 1,32,-1
EndSplineSet
Validated: 1
EndChar

StartChar: Ocircumflex
Encoding: 212 212 150
Width: 1759
GlyphClass: 2
Flags: W
HStem: -20 123<581.989 1026.78> 1408 123<732.219 1177.01>
VStem: 100 210<415.995 948.509> 1449 210<562.491 1095.01>
LayerCount: 2
Fore
SplineSet
788 -20 m 0,0,1
 469 -20 469 -20 271 185 c 0,2,3
 100 362 100 362 100 668 c 0,4,5
 100 1061 100 1061 401 1327 c 0,6,7
 632 1531 632 1531 971 1531 c 0,8,9
 1290 1531 1290 1531 1488 1326 c 0,10,11
 1659 1149 1659 1149 1659 843 c 0,12,13
 1659 450 1659 450 1358 184 c 0,14,15
 1127 -20 1127 -20 788 -20 c 0,0,1
788 103 m 0,16,17
 1040 104 1040 104 1238 280 c 0,18,19
 1449 468 1449 468 1449 840 c 0,20,21
 1449 1078 1449 1078 1325 1241 c 0,22,23
 1197 1408 1197 1408 971 1408 c 0,24,25
 719 1407 719 1407 521 1231 c 0,26,27
 310 1043 310 1043 310 671 c 0,28,29
 310 433 310 433 434 270 c 0,30,31
 562 103 562 103 788 103 c 0,16,17
793 1592 m 1,32,-1
 711 1675 l 1,33,-1
 976 1966 l 1,34,-1
 1241 1675 l 1,35,-1
 1159 1592 l 1,36,-1
 975 1761 l 1,37,-1
 793 1592 l 1,32,-1
EndSplineSet
Validated: 1
EndChar

StartChar: Otilde
Encoding: 213 213 151
Width: 1759
GlyphClass: 2
Flags: W
HStem: -20 123<581.989 1026.78> 1408 123<732.219 1177.01> 1640 138<987.454 1180.54> 1752 138<748.987 950.3>
VStem: 100 210<415.995 948.509> 1449 210<562.491 1095.01>
LayerCount: 2
Fore
SplineSet
788 -20 m 0,0,1
 469 -20 469 -20 271 185 c 0,2,3
 100 362 100 362 100 668 c 0,4,5
 100 1061 100 1061 401 1327 c 0,6,7
 632 1531 632 1531 971 1531 c 0,8,9
 1290 1531 1290 1531 1488 1326 c 0,10,11
 1659 1149 1659 1149 1659 843 c 0,12,13
 1659 450 1659 450 1358 184 c 0,14,15
 1127 -20 1127 -20 788 -20 c 0,0,1
788 103 m 0,16,17
 1040 104 1040 104 1238 280 c 0,18,19
 1449 468 1449 468 1449 840 c 0,20,21
 1449 1078 1449 1078 1325 1241 c 0,22,23
 1197 1408 1197 1408 971 1408 c 0,24,25
 719 1407 719 1407 521 1231 c 0,26,27
 310 1043 310 1043 310 671 c 0,28,29
 310 433 310 433 434 270 c 0,30,31
 562 103 562 103 788 103 c 0,16,17
705 1809 m 1,32,33
 754 1890 754 1890 825 1890 c 0,34,35
 887 1890 887 1890 968 1835 c 0,36,37
 1052 1778 1052 1778 1105 1778 c 0,38,39
 1165 1778 1165 1778 1225 1890 c 1,40,-1
 1225 1721 l 1,41,42
 1175 1640 1175 1640 1105 1640 c 0,43,44
 1039 1640 1039 1640 966 1696 c 152,-1,45
 893 1752 893 1752 825 1752 c 0,46,47
 764 1752 764 1752 705 1640 c 1,48,-1
 705 1809 l 1,32,33
EndSplineSet
Validated: 1
EndChar

StartChar: Odieresis
Encoding: 214 214 152
Width: 1759
GlyphClass: 2
Flags: W
HStem: -20 123<581.989 1026.78> 1408 123<732.219 1177.01> 1638 255<731.129 907.809 1040.13 1215.81>
VStem: 100 210<415.995 948.509> 694 252<1677.16 1853.84> 1002 252<1677.22 1854.9> 1449 210<562.491 1095.01>
LayerCount: 2
Fore
SplineSet
788 -20 m 0,0,1
 469 -20 469 -20 271 185 c 0,2,3
 100 362 100 362 100 668 c 0,4,5
 100 1061 100 1061 401 1327 c 0,6,7
 632 1531 632 1531 971 1531 c 0,8,9
 1290 1531 1290 1531 1488 1326 c 0,10,11
 1659 1149 1659 1149 1659 843 c 0,12,13
 1659 450 1659 450 1358 184 c 0,14,15
 1127 -20 1127 -20 788 -20 c 0,0,1
788 103 m 0,16,17
 1040 104 1040 104 1238 280 c 0,18,19
 1449 468 1449 468 1449 840 c 0,20,21
 1449 1078 1449 1078 1325 1241 c 0,22,23
 1197 1408 1197 1408 971 1408 c 0,24,25
 719 1407 719 1407 521 1231 c 0,26,27
 310 1043 310 1043 310 671 c 0,28,29
 310 433 310 433 434 270 c 0,30,31
 562 103 562 103 788 103 c 0,16,17
1002 1766 m 0,32,33
 1002 1818 1002 1818 1039 1855 c 1,34,35
 1074 1893 1074 1893 1128 1893 c 0,36,37
 1179 1893 1179 1893 1217 1856 c 0,38,39
 1252 1821 1252 1821 1254 1767 c 1,40,41
 1254 1713 1254 1713 1217 1675 c 1,42,43
 1179 1638 1179 1638 1128 1638 c 0,44,45
 1075 1638 1075 1638 1039 1676 c 0,46,47
 1002 1715 1002 1715 1002 1766 c 0,32,33
694 1766 m 0,48,49
 694 1818 694 1818 730 1855 c 0,50,51
 766 1893 766 1893 820 1893 c 0,52,53
 871 1893 871 1893 909 1856 c 0,54,55
 944 1821 944 1821 946 1767 c 1,56,57
 946 1713 946 1713 909 1675 c 1,58,59
 871 1638 871 1638 820 1638 c 0,60,61
 766 1638 766 1638 730 1676 c 0,62,63
 694 1713 694 1713 694 1766 c 0,48,49
EndSplineSet
Validated: 1
EndChar

StartChar: multiply
Encoding: 215 215 153
Width: 1031
GlyphClass: 2
Flags: W
HStem: 662 213<408.5 621.5>
VStem: 409 213<661.5 874.5>
DStem2: 256 1134 150 1027 0.707107 -0.707107<0.707107 366.281 517.602 883.176> 150 509 256 403 0.70654 0.707673<0 366.161 516.895 883.055>
LayerCount: 2
Fore
SplineSet
256 1134 m 1,0,-1
 515 875 l 1,1,-1
 774 1134 l 1,2,-1
 881 1027 l 1,3,-1
 622 768 l 1,4,-1
 881 509 l 1,5,-1
 774 403 l 1,6,-1
 515 662 l 1,7,-1
 256 403 l 1,8,-1
 150 509 l 1,9,-1
 409 768 l 1,10,-1
 150 1027 l 1,11,-1
 256 1134 l 1,0,-1
EndSplineSet
Validated: 1
EndChar

StartChar: Oslash
Encoding: 216 216 154
Width: 1759
GlyphClass: 2
Flags: W
HStem: -20 123<620.68 1026.53> 0 21G<368 551> 1408 123<732.469 1136.4> 1491 20G<1205 1388>
VStem: 100 210<416.229 948.509> 1449 210<562.491 1094.76>
DStem2: 410 75 544 0 0.487653 0.873038<-0.132313 2.60005 157.155 1489.73 1643.6 1644.78>
LayerCount: 2
Fore
SplineSet
544 0 m 1,0,-1
 368 0 l 1,1,-1
 410 75 l 1,2,3
 334 120 334 120 271 185 c 0,4,5
 100 361 100 361 100 668 c 0,6,7
 100 1061 100 1061 401 1327 c 0,8,9
 632 1531 632 1531 971 1531 c 0,10,11
 1098 1531 1098 1531 1205 1499 c 1,12,-1
 1212 1511 l 1,13,-1
 1388 1511 l 1,14,-1
 1347 1437 l 1,15,16
 1424 1392 1424 1392 1488 1326 c 0,17,18
 1659 1149 1659 1149 1659 843 c 0,19,20
 1659 450 1659 450 1358 184 c 0,21,22
 1127 -20 1127 -20 788 -20 c 0,23,24
 660 -20 660 -20 551 13 c 1,25,-1
 544 0 l 1,0,-1
788 103 m 0,26,27
 1039 103 1039 103 1238 280 c 0,28,29
 1449 468 1449 468 1449 840 c 0,30,31
 1449 1077 1449 1077 1325 1241 c 0,32,33
 1300 1274 1300 1274 1270 1301 c 1,34,-1
 618 132 l 1,35,36
 694 103 694 103 788 103 c 0,26,27
487 212 m 1,37,-1
 1139 1380 l 1,38,39
 1063 1408 1063 1408 971 1408 c 0,40,41
 720 1408 720 1408 521 1231 c 0,42,43
 310 1043 310 1043 310 671 c 0,44,45
 310 435 310 435 434 270 c 0,46,47
 458 238 458 238 487 212 c 1,37,-1
EndSplineSet
Validated: 1
EndChar

StartChar: Ugrave
Encoding: 217 217 155
Width: 1571
GlyphClass: 2
Flags: W
HStem: -20 124<528.967 913.14> 0 21G<1171 1371> 1491 20G<200 400 1171 1371>
VStem: 200 200<235.375 1511> 1171 200<0 178 354.385 1511>
LayerCount: 2
Fore
SplineSet
776 1592 m 1,0,-1
 486 1858 l 1,1,-1
 593 1966 l 1,2,-1
 858 1675 l 1,3,-1
 776 1592 l 1,0,-1
200 1511 m 1,4,-1
 400 1511 l 1,5,-1
 400 409 l 2,6,7
 400 273 400 273 478 191 c 0,8,9
 560 104 560 104 700 104 c 0,10,11
 887 104 887 104 1022 219 c 0,12,13
 1171 348 1171 348 1171 567 c 2,14,-1
 1171 1511 l 1,15,-1
 1371 1511 l 1,16,-1
 1371 0 l 1,17,-1
 1171 0 l 1,18,-1
 1171 178 l 1,19,20
 1087 93 1087 93 954 36 c 0,21,22
 823 -20 823 -20 683 -20 c 0,23,24
 450 -20 450 -20 323 102 c 24,25,26
 200 222 200 222 200 407 c 2,27,-1
 200 1511 l 1,4,-1
EndSplineSet
Validated: 1
EndChar

StartChar: Uacute
Encoding: 218 218 156
Width: 1571
GlyphClass: 2
Flags: W
HStem: -20 124<528.967 913.14> 0 21G<1171 1371> 1491 20G<200 400 1171 1371>
VStem: 200 200<235.375 1511> 1171 200<0 178 354.385 1511>
LayerCount: 2
Fore
SplineSet
808 1592 m 1,0,-1
 726 1675 l 1,1,-1
 991 1966 l 1,2,-1
 1098 1858 l 1,3,-1
 808 1592 l 1,0,-1
200 1511 m 1,4,-1
 400 1511 l 1,5,-1
 400 409 l 2,6,7
 400 273 400 273 478 191 c 0,8,9
 560 104 560 104 700 104 c 0,10,11
 887 104 887 104 1022 219 c 0,12,13
 1171 348 1171 348 1171 567 c 2,14,-1
 1171 1511 l 1,15,-1
 1371 1511 l 1,16,-1
 1371 0 l 1,17,-1
 1171 0 l 1,18,-1
 1171 178 l 1,19,20
 1087 93 1087 93 954 36 c 0,21,22
 823 -20 823 -20 683 -20 c 0,23,24
 450 -20 450 -20 323 102 c 24,25,26
 200 222 200 222 200 407 c 2,27,-1
 200 1511 l 1,4,-1
EndSplineSet
Validated: 1
EndChar

StartChar: Ucircumflex
Encoding: 219 219 157
Width: 1571
GlyphClass: 2
Flags: W
HStem: -20 124<528.967 913.14> 0 21G<1171 1371> 1491 20G<200 400 1171 1371>
VStem: 200 200<235.375 1511> 1171 200<0 178 354.385 1511>
LayerCount: 2
Fore
SplineSet
608 1592 m 1,0,-1
 526 1675 l 1,1,-1
 791 1966 l 1,2,-1
 1056 1675 l 1,3,-1
 974 1592 l 1,4,-1
 790 1761 l 1,5,-1
 608 1592 l 1,0,-1
200 1511 m 1,6,-1
 400 1511 l 1,7,-1
 400 409 l 2,8,9
 400 273 400 273 478 191 c 0,10,11
 560 104 560 104 700 104 c 0,12,13
 887 104 887 104 1022 219 c 0,14,15
 1171 348 1171 348 1171 567 c 2,16,-1
 1171 1511 l 1,17,-1
 1371 1511 l 1,18,-1
 1371 0 l 1,19,-1
 1171 0 l 1,20,-1
 1171 178 l 1,21,22
 1087 93 1087 93 954 36 c 0,23,24
 823 -20 823 -20 683 -20 c 0,25,26
 450 -20 450 -20 323 102 c 24,27,28
 200 222 200 222 200 407 c 2,29,-1
 200 1511 l 1,6,-1
EndSplineSet
Validated: 1
EndChar

StartChar: Udieresis
Encoding: 220 220 158
Width: 1571
GlyphClass: 2
Flags: W
HStem: -20 124<528.967 913.14> 0 21G<1171 1371> 1491 20G<200 400 1171 1371> 1638 255<543.129 719.809 852.129 1027.81>
VStem: 200 200<235.375 1511> 506 252<1677.16 1853.84> 814 252<1677.22 1854.9> 1171 200<0 178 354.385 1511>
LayerCount: 2
Fore
SplineSet
814 1766 m 0,0,1
 814 1818 814 1818 851 1855 c 1,2,3
 886 1893 886 1893 940 1893 c 0,4,5
 991 1893 991 1893 1029 1856 c 0,6,7
 1064 1821 1064 1821 1066 1767 c 1,8,9
 1066 1713 1066 1713 1029 1675 c 1,10,11
 991 1638 991 1638 940 1638 c 0,12,13
 887 1638 887 1638 851 1676 c 0,14,15
 814 1715 814 1715 814 1766 c 0,0,1
506 1766 m 0,16,17
 506 1818 506 1818 542 1855 c 0,18,19
 578 1893 578 1893 632 1893 c 0,20,21
 683 1893 683 1893 721 1856 c 0,22,23
 756 1821 756 1821 758 1767 c 1,24,25
 758 1713 758 1713 721 1675 c 1,26,27
 683 1638 683 1638 632 1638 c 0,28,29
 578 1638 578 1638 542 1676 c 0,30,31
 506 1713 506 1713 506 1766 c 0,16,17
200 1511 m 1,32,-1
 400 1511 l 1,33,-1
 400 409 l 2,34,35
 400 273 400 273 478 191 c 0,36,37
 560 104 560 104 700 104 c 0,38,39
 887 104 887 104 1022 219 c 0,40,41
 1171 348 1171 348 1171 567 c 2,42,-1
 1171 1511 l 1,43,-1
 1371 1511 l 1,44,-1
 1371 0 l 1,45,-1
 1171 0 l 1,46,-1
 1171 178 l 1,47,48
 1087 93 1087 93 954 36 c 0,49,50
 823 -20 823 -20 683 -20 c 0,51,52
 450 -20 450 -20 323 102 c 24,53,54
 200 222 200 222 200 407 c 2,55,-1
 200 1511 l 1,32,-1
EndSplineSet
Validated: 1
EndChar

StartChar: Yacute
Encoding: 221 221 159
Width: 1372
GlyphClass: 2
Flags: W
HStem: 0 21G<573 773> 1491 20G<5 239.128 1185.51 1367>
VStem: 5 224<1287 1511> 573 200<0 416> 1196 171<1340 1511>
DStem2: 229 1511 5 1511 0.460459 -0.887681<0 1051.36> 704 573 773 416 0.476826 0.878998<0 1059.1>
LayerCount: 2
Fore
SplineSet
573 0 m 1,0,-1
 573 416 l 1,1,-1
 5 1511 l 1,2,-1
 229 1511 l 1,3,-1
 704 573 l 1,4,-1
 1196 1511 l 1,5,-1
 1367 1511 l 1,6,-1
 773 416 l 1,7,-1
 773 0 l 1,8,-1
 573 0 l 1,0,-1
705 1592 m 1,9,-1
 623 1675 l 1,10,-1
 888 1966 l 1,11,-1
 995 1858 l 1,12,-1
 705 1592 l 1,9,-1
EndSplineSet
Validated: 1
EndChar

StartChar: Thorn
Encoding: 222 222 160
Width: 1450
GlyphClass: 2
Flags: W
HStem: 0 21G<200 400> 167 108<543.706 878.714> 1225 124<656.644 991.988> 1491 20G<200 400>
VStem: 200 200<0 975.999 1150 1511> 1140 210<590.166 1063.5>
LayerCount: 2
Fore
SplineSet
200 0 m 1,0,-1
 200 1511 l 1,1,-1
 400 1511 l 1,2,-1
 400 1150 l 1,3,4
 486 1242 486 1242 598 1293 c 0,5,6
 721 1349 721 1349 853 1349 c 0,7,8
 1071 1349 1071 1349 1224 1191 c 24,9,10
 1350 1061 1350 1061 1350 851 c 0,11,12
 1350 517 1350 517 1104 310 c 0,13,14
 934 167 934 167 727 167 c 0,15,16
 522 167 522 167 448 317 c 1,17,18
 583 275 583 275 691 275 c 0,19,20
 873 275 873 275 992 406 c 0,21,22
 1140 569 1140 569 1140 837 c 0,23,24
 1140 1007 1140 1007 1072 1104 c 256,25,26
 987 1225 987 1225 832 1225 c 0,27,28
 687 1225 687 1225 547 1108 c 0,29,30
 400 985 400 985 400 762 c 2,31,-1
 400 0 l 1,32,-1
 200 0 l 1,0,-1
EndSplineSet
Validated: 1
EndChar

StartChar: germandbls
Encoding: 223 223 161
Width: 1326
GlyphClass: 2
Flags: W
HStem: -20 116<512.545 788.466> 0 21G<200 400> 906 128<620 788.163> 1408 123<558.684 827.215>
VStem: 200 200<0 1201.05> 874 188<1112.37 1368.36> 1016 210<356.947 764.688>
LayerCount: 2
Fore
SplineSet
200 0 m 1,0,-1
 200 944 l 2,1,2
 200 1251 200 1251 399 1418 c 0,3,4
 534 1531 534 1531 742 1531 c 0,5,6
 882 1531 882 1531 977 1449 c 0,7,8
 1062 1375 1062 1375 1062 1270 c 0,9,10
 1062 1089 1062 1089 890 1004 c 1,11,12
 1041 969 1041 969 1128 858 c 0,13,14
 1226 733 1226 733 1226 568 c 0,15,16
 1226 329 1226 329 1022 148 c 0,17,18
 831 -20 831 -20 620 -20 c 0,19,20
 498 -20 498 -20 459 130 c 1,21,22
 544 96 544 96 619 96 c 0,23,24
 786 96 786 96 910 242 c 0,25,26
 1016 368 1016 368 1016 544 c 0,27,28
 1016 735 1016 735 929 825 c 0,29,30
 852 905 852 905 620 906 c 1,31,-1
 620 1034 l 1,32,33
 753 1034 753 1034 821 1103 c 0,34,35
 874 1157 874 1157 874 1262 c 0,36,37
 874 1339 874 1339 823 1374 c 0,38,39
 775 1408 775 1408 714 1408 c 0,40,41
 592 1408 592 1408 505 1320 c 0,42,43
 400 1214 400 1214 400 944 c 2,44,-1
 400 0 l 1,45,-1
 200 0 l 1,0,-1
EndSplineSet
Validated: 1
EndChar

StartChar: agrave
Encoding: 224 224 162
Width: 1297
GlyphClass: 2
Flags: W
HStem: -20 123<455.111 735.674> 0 21G<897 1097> 996 124<551.276 841.755>
VStem: 100 210<265.899 708.34> 897 200<0 933.586>
LayerCount: 2
Fore
SplineSet
1097 0 m 1,0,-1
 897 0 l 1,1,-1
 897 815 l 2,2,3
 897 890 897 890 858 935 c 0,4,5
 806 996 806 996 730 996 c 0,6,7
 568 996 568 996 454 879 c 0,8,9
 310 731 310 731 310 488 c 0,10,11
 310 305 310 305 374 222 c 0,12,13
 466 103 466 103 616 103 c 0,14,15
 744 103 744 103 840 282 c 1,16,17
 840 -20 840 -20 597 -20 c 0,18,19
 352 -20 352 -20 226 133 c 128,-1,20
 100 286 100 286 100 488 c 0,21,22
 100 752 100 752 332 966 c 0,23,24
 499 1120 499 1120 747 1120 c 0,25,26
 878 1120 878 1120 976 1038 c 0,27,28
 1097 937 1097 937 1097 751 c 2,29,-1
 1097 0 l 1,0,-1
745 1210 m 1,30,-1
 455 1476 l 1,31,-1
 562 1584 l 1,32,-1
 827 1293 l 1,33,-1
 745 1210 l 1,30,-1
EndSplineSet
Validated: 1
EndChar

StartChar: aacute
Encoding: 225 225 163
Width: 1297
GlyphClass: 2
Flags: W
HStem: -20 123<455.111 735.674> 0 21G<897 1097> 996 124<551.276 841.755>
VStem: 100 210<265.899 708.34> 897 200<0 933.586>
LayerCount: 2
Fore
SplineSet
1097 0 m 1,0,-1
 897 0 l 1,1,-1
 897 815 l 2,2,3
 897 890 897 890 858 935 c 0,4,5
 806 996 806 996 730 996 c 0,6,7
 568 996 568 996 454 879 c 0,8,9
 310 731 310 731 310 488 c 0,10,11
 310 305 310 305 374 222 c 0,12,13
 466 103 466 103 616 103 c 0,14,15
 744 103 744 103 840 282 c 1,16,17
 840 -20 840 -20 597 -20 c 0,18,19
 352 -20 352 -20 226 133 c 128,-1,20
 100 286 100 286 100 488 c 0,21,22
 100 752 100 752 332 966 c 0,23,24
 499 1120 499 1120 747 1120 c 0,25,26
 878 1120 878 1120 976 1038 c 0,27,28
 1097 937 1097 937 1097 751 c 2,29,-1
 1097 0 l 1,0,-1
746 1210 m 1,30,-1
 664 1293 l 1,31,-1
 929 1584 l 1,32,-1
 1036 1476 l 1,33,-1
 746 1210 l 1,30,-1
EndSplineSet
Validated: 1
EndChar

StartChar: acircumflex
Encoding: 226 226 164
Width: 1297
GlyphClass: 2
Flags: W
HStem: -20 123<455.111 735.674> 0 21G<897 1097> 996 124<551.276 841.755>
VStem: 100 210<265.899 708.34> 897 200<0 933.586>
LayerCount: 2
Fore
SplineSet
1097 0 m 1,0,-1
 897 0 l 1,1,-1
 897 815 l 2,2,3
 897 890 897 890 858 935 c 0,4,5
 806 996 806 996 730 996 c 0,6,7
 568 996 568 996 454 879 c 0,8,9
 310 731 310 731 310 488 c 0,10,11
 310 305 310 305 374 222 c 0,12,13
 466 103 466 103 616 103 c 0,14,15
 744 103 744 103 840 282 c 1,16,17
 840 -20 840 -20 597 -20 c 0,18,19
 352 -20 352 -20 226 133 c 128,-1,20
 100 286 100 286 100 488 c 0,21,22
 100 752 100 752 332 966 c 0,23,24
 499 1120 499 1120 747 1120 c 0,25,26
 878 1120 878 1120 976 1038 c 0,27,28
 1097 937 1097 937 1097 751 c 2,29,-1
 1097 0 l 1,0,-1
578 1210 m 1,30,-1
 496 1293 l 1,31,-1
 761 1584 l 1,32,-1
 1026 1293 l 1,33,-1
 944 1210 l 1,34,-1
 760 1379 l 1,35,-1
 578 1210 l 1,30,-1
EndSplineSet
Validated: 1
EndChar

StartChar: atilde
Encoding: 227 227 165
Width: 1297
GlyphClass: 2
Flags: W
HStem: -20 123<455.111 735.674> 0 21G<897 1097> 996 124<551.276 841.755> 1277 138<780.454 973.537> 1389 138<541.987 743.3>
VStem: 100 210<265.899 708.34> 897 200<0 933.586>
LayerCount: 2
Fore
SplineSet
1097 0 m 1,0,-1
 897 0 l 1,1,-1
 897 815 l 2,2,3
 897 890 897 890 858 935 c 0,4,5
 806 996 806 996 730 996 c 0,6,7
 568 996 568 996 454 879 c 0,8,9
 310 731 310 731 310 488 c 0,10,11
 310 305 310 305 374 222 c 0,12,13
 466 103 466 103 616 103 c 0,14,15
 744 103 744 103 840 282 c 1,16,17
 840 -20 840 -20 597 -20 c 0,18,19
 352 -20 352 -20 226 133 c 128,-1,20
 100 286 100 286 100 488 c 0,21,22
 100 752 100 752 332 966 c 0,23,24
 499 1120 499 1120 747 1120 c 0,25,26
 878 1120 878 1120 976 1038 c 0,27,28
 1097 937 1097 937 1097 751 c 2,29,-1
 1097 0 l 1,0,-1
498 1446 m 1,30,31
 547 1527 547 1527 618 1527 c 0,32,33
 680 1527 680 1527 761 1472 c 0,34,35
 845 1415 845 1415 898 1415 c 0,36,37
 958 1415 958 1415 1018 1527 c 1,38,-1
 1018 1358 l 1,39,40
 968 1277 968 1277 898 1277 c 0,41,42
 832 1277 832 1277 759 1333 c 152,-1,43
 686 1389 686 1389 618 1389 c 0,44,45
 557 1389 557 1389 498 1277 c 1,46,-1
 498 1446 l 1,30,31
EndSplineSet
Validated: 1
EndChar

StartChar: adieresis
Encoding: 228 228 166
Width: 1297
GlyphClass: 2
Flags: W
HStem: -20 123<455.111 735.674> 0 21G<897 1097> 996 124<551.276 841.755> 1276 255<513.129 689.809 822.129 997.809>
VStem: 100 210<265.899 708.34> 476 252<1315.16 1491.84> 784 252<1315.22 1492.9> 897 200<0 933.586>
LayerCount: 2
Fore
SplineSet
1097 0 m 1,0,-1
 897 0 l 1,1,-1
 897 815 l 2,2,3
 897 890 897 890 858 935 c 0,4,5
 806 996 806 996 730 996 c 0,6,7
 568 996 568 996 454 879 c 0,8,9
 310 731 310 731 310 488 c 0,10,11
 310 305 310 305 374 222 c 0,12,13
 466 103 466 103 616 103 c 0,14,15
 744 103 744 103 840 282 c 1,16,17
 840 -20 840 -20 597 -20 c 0,18,19
 352 -20 352 -20 226 133 c 128,-1,20
 100 286 100 286 100 488 c 0,21,22
 100 752 100 752 332 966 c 0,23,24
 499 1120 499 1120 747 1120 c 0,25,26
 878 1120 878 1120 976 1038 c 0,27,28
 1097 937 1097 937 1097 751 c 2,29,-1
 1097 0 l 1,0,-1
784 1404 m 0,30,31
 784 1456 784 1456 821 1493 c 1,32,33
 856 1531 856 1531 910 1531 c 0,34,35
 961 1531 961 1531 999 1494 c 0,36,37
 1034 1459 1034 1459 1036 1405 c 1,38,39
 1036 1351 1036 1351 999 1313 c 1,40,41
 961 1276 961 1276 910 1276 c 0,42,43
 857 1276 857 1276 821 1314 c 0,44,45
 784 1353 784 1353 784 1404 c 0,30,31
476 1404 m 0,46,47
 476 1456 476 1456 512 1493 c 0,48,49
 548 1531 548 1531 602 1531 c 0,50,51
 653 1531 653 1531 691 1494 c 0,52,53
 726 1459 726 1459 728 1405 c 1,54,55
 728 1351 728 1351 691 1313 c 1,56,57
 653 1276 653 1276 602 1276 c 0,58,59
 548 1276 548 1276 512 1314 c 0,60,61
 476 1351 476 1351 476 1404 c 0,46,47
EndSplineSet
Validated: 1
EndChar

StartChar: aring
Encoding: 229 229 167
Width: 1297
GlyphClass: 2
Flags: W
HStem: -20 123<455.111 735.674> 0 21G<897 1097> 996 124<551.276 841.755> 1210 104<675.026 808.18> 1470 110<682.66 806.646>
VStem: 100 210<265.899 708.34> 555 112<1321.33 1453.94> 823 114<1329.24 1453.92> 897 200<0 933.586>
LayerCount: 2
Fore
SplineSet
1097 0 m 1,0,-1
 897 0 l 1,1,-1
 897 815 l 2,2,3
 897 890 897 890 858 935 c 0,4,5
 806 996 806 996 730 996 c 0,6,7
 568 996 568 996 454 879 c 0,8,9
 310 731 310 731 310 488 c 0,10,11
 310 305 310 305 374 222 c 0,12,13
 466 103 466 103 616 103 c 0,14,15
 744 103 744 103 840 282 c 1,16,17
 840 -20 840 -20 597 -20 c 0,18,19
 352 -20 352 -20 226 133 c 128,-1,20
 100 286 100 286 100 488 c 0,21,22
 100 752 100 752 332 966 c 0,23,24
 499 1120 499 1120 747 1120 c 0,25,26
 878 1120 878 1120 976 1038 c 0,27,28
 1097 937 1097 937 1097 751 c 2,29,-1
 1097 0 l 1,0,-1
823 1389 m 0,30,31
 823 1424 823 1424 800 1447 c 129,-1,32
 777 1470 777 1470 745 1470 c 0,33,34
 712 1470 712 1470 690 1447 c 0,35,36
 667 1423 667 1423 667 1391 c 0,37,38
 667 1360 667 1360 690 1337 c 128,-1,39
 713 1314 713 1314 745 1314 c 0,40,41
 779 1314 779 1314 801 1337 c 128,-1,42
 823 1360 823 1360 823 1389 c 0,30,31
937 1387 m 0,43,44
 937 1317 937 1317 882 1262 c 0,45,46
 831 1210 831 1210 746 1210 c 0,47,48
 665 1210 665 1210 610 1265.5 c 128,-1,49
 555 1321 555 1321 555 1394 c 0,50,51
 555 1472 555 1472 610 1525 c 0,52,53
 667 1580 667 1580 746 1580 c 0,54,55
 823 1580 823 1580 881 1526 c 1,56,57
 937 1471 937 1471 937 1387 c 0,43,44
EndSplineSet
Validated: 1
EndChar

StartChar: ae
Encoding: 230 230 168
Width: 1982
GlyphClass: 2
Flags: W
HStem: -20 123<455.111 735.674 1257.43 1588.95> 0 21G<897 1097> 487 150<1125 1660> 996 124<551.276 841.989 1346.33 1680.29>
VStem: 100 210<265.899 708.34> 897 200<0 70 284.192 487>
LayerCount: 2
Fore
SplineSet
1097 0 m 1,0,-1
 897 0 l 1,1,-1
 897 815 l 2,2,3
 897 890 897 890 858 935 c 0,4,5
 806 996 806 996 730 996 c 0,6,7
 568 996 568 996 454 879 c 0,8,9
 310 731 310 731 310 488 c 0,10,11
 310 305 310 305 374 222 c 0,12,13
 466 103 466 103 616 103 c 0,14,15
 744 103 744 103 840 282 c 1,16,17
 840 -20 840 -20 597 -20 c 0,18,19
 352 -20 352 -20 226 133 c 128,-1,20
 100 286 100 286 100 488 c 0,21,22
 100 752 100 752 332 966 c 0,23,24
 499 1120 499 1120 747 1120 c 0,25,26
 879 1120 879 1120 976 1038 c 0,27,28
 1040 984 1040 984 1070 907 c 1,29,30
 1098 936 1098 936 1130 965 c 0,31,32
 1301 1120 1301 1120 1545 1120 c 0,33,34
 1763 1120 1763 1120 1902 980 c 1,35,-1
 1764 876 l 1,36,37
 1666 997 1666 997 1526 997 c 0,38,39
 1354 997 1354 997 1242 866 c 0,40,41
 1156 765 1156 765 1125 637 c 1,42,-1
 1660 637 l 1,43,-1
 1660 487 l 1,44,-1
 1108 487 l 1,45,46
 1108 297 1108 297 1190 206 c 0,47,48
 1281 104 1281 104 1412 104 c 0,49,50
 1584 104 1584 104 1698 234 c 0,51,52
 1741 284 1741 284 1770 341 c 1,53,-1
 1899 226 l 1,54,55
 1866 185 1866 185 1810 135 c 0,56,57
 1636 -20 1636 -20 1395 -20 c 0,58,59
 1222 -20 1222 -20 1097 70 c 1,60,-1
 1097 0 l 1,0,-1
EndSplineSet
Validated: 1
EndChar

StartChar: ccedilla
Encoding: 231 231 169
Width: 1184
GlyphClass: 2
Flags: W
HStem: -410 21G<567.739 662> 997 123<549.308 882.293>
VStem: 100 210<261.956 715.338> 575 159<-266.297 -59.6791>
LayerCount: 2
Fore
SplineSet
1101 226 m 1,0,1
 1068 185 1068 185 1012 135 c 0,2,3
 865 4 865 4 669 -16 c 1,4,5
 734 -101 734 -101 734 -207 c 0,6,7
 734 -332 734 -332 590 -410 c 1,8,-1
 462 -295 l 1,9,10
 575 -268 575 -268 575 -179 c 0,11,12
 575 -93 575 -93 486 -10 c 1,13,14
 334 20 334 20 227 133 c 0,15,16
 100 267 100 267 100 497 c 0,17,18
 100 759 100 759 332 965 c 0,19,20
 506 1120 506 1120 747 1120 c 0,21,22
 965 1120 965 1120 1104 980 c 1,23,-1
 966 876 l 1,24,25
 868 997 868 997 728 997 c 0,26,27
 557 997 557 997 444 866 c 0,28,29
 310 710 310 710 310 479 c 0,30,31
 310 297 310 297 392 206 c 0,32,33
 483 104 483 104 614 104 c 0,34,35
 787 104 787 104 900 234 c 0,36,37
 943 284 943 284 972 341 c 1,38,-1
 1101 226 l 1,0,1
EndSplineSet
Validated: 1
EndChar

StartChar: egrave
Encoding: 232 232 170
Width: 1184
GlyphClass: 2
Flags: W
HStem: -20 124<458.623 794.27> 487 150<327 862> 997 123<549.064 882.293>
VStem: 100 210<263.148 487>
LayerCount: 2
Fore
SplineSet
1101 226 m 1,0,1
 1068 185 1068 185 1012 135 c 0,2,3
 838 -20 838 -20 597 -20 c 0,4,5
 372 -20 372 -20 227 133 c 0,6,7
 100 267 100 267 100 497 c 0,8,9
 100 759 100 759 332 965 c 0,10,11
 506 1120 506 1120 747 1120 c 0,12,13
 965 1120 965 1120 1104 980 c 1,14,-1
 966 876 l 1,15,16
 868 997 868 997 728 997 c 0,17,18
 556 997 556 997 444 866 c 0,19,20
 358 765 358 765 327 637 c 1,21,-1
 862 637 l 1,22,-1
 862 487 l 1,23,-1
 310 487 l 1,24,25
 310 297 310 297 392 206 c 0,26,27
 483 104 483 104 614 104 c 0,28,29
 786 104 786 104 900 234 c 0,30,31
 943 284 943 284 972 341 c 1,32,-1
 1101 226 l 1,0,1
745 1210 m 1,33,-1
 455 1476 l 1,34,-1
 562 1584 l 1,35,-1
 827 1293 l 1,36,-1
 745 1210 l 1,33,-1
EndSplineSet
Validated: 1
EndChar

StartChar: eacute
Encoding: 233 233 171
Width: 1184
GlyphClass: 2
Flags: W
HStem: -20 124<458.623 794.27> 487 150<327 862> 997 123<549.064 882.293>
VStem: 100 210<263.148 487>
LayerCount: 2
Fore
SplineSet
1101 226 m 1,0,1
 1068 185 1068 185 1012 135 c 0,2,3
 838 -20 838 -20 597 -20 c 0,4,5
 372 -20 372 -20 227 133 c 0,6,7
 100 267 100 267 100 497 c 0,8,9
 100 759 100 759 332 965 c 0,10,11
 506 1120 506 1120 747 1120 c 0,12,13
 965 1120 965 1120 1104 980 c 1,14,-1
 966 876 l 1,15,16
 868 997 868 997 728 997 c 0,17,18
 556 997 556 997 444 866 c 0,19,20
 358 765 358 765 327 637 c 1,21,-1
 862 637 l 1,22,-1
 862 487 l 1,23,-1
 310 487 l 1,24,25
 310 297 310 297 392 206 c 0,26,27
 483 104 483 104 614 104 c 0,28,29
 786 104 786 104 900 234 c 0,30,31
 943 284 943 284 972 341 c 1,32,-1
 1101 226 l 1,0,1
746 1210 m 1,33,-1
 664 1293 l 1,34,-1
 929 1584 l 1,35,-1
 1036 1476 l 1,36,-1
 746 1210 l 1,33,-1
EndSplineSet
Validated: 1
EndChar

StartChar: ecircumflex
Encoding: 234 234 172
Width: 1184
GlyphClass: 2
Flags: W
HStem: -20 124<458.623 794.27> 487 150<327 862> 997 123<549.064 882.293>
VStem: 100 210<263.148 487>
LayerCount: 2
Fore
SplineSet
1101 226 m 1,0,1
 1068 185 1068 185 1012 135 c 0,2,3
 838 -20 838 -20 597 -20 c 0,4,5
 372 -20 372 -20 227 133 c 0,6,7
 100 267 100 267 100 497 c 0,8,9
 100 759 100 759 332 965 c 0,10,11
 506 1120 506 1120 747 1120 c 0,12,13
 965 1120 965 1120 1104 980 c 1,14,-1
 966 876 l 1,15,16
 868 997 868 997 728 997 c 0,17,18
 556 997 556 997 444 866 c 0,19,20
 358 765 358 765 327 637 c 1,21,-1
 862 637 l 1,22,-1
 862 487 l 1,23,-1
 310 487 l 1,24,25
 310 297 310 297 392 206 c 0,26,27
 483 104 483 104 614 104 c 0,28,29
 786 104 786 104 900 234 c 0,30,31
 943 284 943 284 972 341 c 1,32,-1
 1101 226 l 1,0,1
578 1210 m 1,33,-1
 496 1293 l 1,34,-1
 761 1584 l 1,35,-1
 1026 1293 l 1,36,-1
 944 1210 l 1,37,-1
 760 1379 l 1,38,-1
 578 1210 l 1,33,-1
EndSplineSet
Validated: 1
EndChar

StartChar: edieresis
Encoding: 235 235 173
Width: 1184
GlyphClass: 2
Flags: W
HStem: -20 124<458.623 794.27> 487 150<327 862> 997 123<549.064 882.293> 1276 255<513.129 689.809 822.129 997.809>
VStem: 100 210<263.148 487> 476 252<1315.16 1491.84> 784 252<1315.22 1492.9>
LayerCount: 2
Fore
SplineSet
1101 226 m 1,0,1
 1068 185 1068 185 1012 135 c 0,2,3
 838 -20 838 -20 597 -20 c 0,4,5
 372 -20 372 -20 227 133 c 0,6,7
 100 267 100 267 100 497 c 0,8,9
 100 759 100 759 332 965 c 0,10,11
 506 1120 506 1120 747 1120 c 0,12,13
 965 1120 965 1120 1104 980 c 1,14,-1
 966 876 l 1,15,16
 868 997 868 997 728 997 c 0,17,18
 556 997 556 997 444 866 c 0,19,20
 358 765 358 765 327 637 c 1,21,-1
 862 637 l 1,22,-1
 862 487 l 1,23,-1
 310 487 l 1,24,25
 310 297 310 297 392 206 c 0,26,27
 483 104 483 104 614 104 c 0,28,29
 786 104 786 104 900 234 c 0,30,31
 943 284 943 284 972 341 c 1,32,-1
 1101 226 l 1,0,1
784 1404 m 0,33,34
 784 1456 784 1456 821 1493 c 1,35,36
 856 1531 856 1531 910 1531 c 0,37,38
 961 1531 961 1531 999 1494 c 0,39,40
 1034 1459 1034 1459 1036 1405 c 1,41,42
 1036 1351 1036 1351 999 1313 c 1,43,44
 961 1276 961 1276 910 1276 c 0,45,46
 857 1276 857 1276 821 1314 c 0,47,48
 784 1353 784 1353 784 1404 c 0,33,34
476 1404 m 0,49,50
 476 1456 476 1456 512 1493 c 0,51,52
 548 1531 548 1531 602 1531 c 0,53,54
 653 1531 653 1531 691 1494 c 0,55,56
 726 1459 726 1459 728 1405 c 1,57,58
 728 1351 728 1351 691 1313 c 1,59,60
 653 1276 653 1276 602 1276 c 0,61,62
 548 1276 548 1276 512 1314 c 0,63,64
 476 1351 476 1351 476 1404 c 0,49,50
EndSplineSet
Validated: 1
EndChar

StartChar: igrave
Encoding: 236 236 174
Width: 600
GlyphClass: 2
Flags: W
HStem: 0 130<419.959 566> 1080 20G<200 400>
VStem: 200 200<163.631 1100>
LayerCount: 2
Fore
SplineSet
294 1210 m 1,0,-1
 4 1476 l 1,1,-1
 111 1584 l 1,2,-1
 376 1293 l 1,3,-1
 294 1210 l 1,0,-1
566 0 m 1,4,5
 363 0 363 0 287 50 c 0,6,7
 200 107 200 107 200 229 c 2,8,-1
 200 1100 l 1,9,-1
 400 1100 l 1,10,-1
 400 229 l 2,11,12
 400 183 400 183 419 163 c 0,13,14
 449 130 449 130 566 130 c 1,15,-1
 566 0 l 1,4,5
EndSplineSet
Validated: 1
EndChar

StartChar: iacute
Encoding: 237 237 175
Width: 600
GlyphClass: 2
Flags: W
HStem: 0 130<419.959 566> 1080 20G<200 400>
VStem: 200 200<163.631 1100>
LayerCount: 2
Fore
SplineSet
306 1210 m 1,0,-1
 224 1293 l 1,1,-1
 489 1584 l 1,2,-1
 596 1476 l 1,3,-1
 306 1210 l 1,0,-1
566 0 m 1,4,5
 363 0 363 0 287 50 c 0,6,7
 200 107 200 107 200 229 c 2,8,-1
 200 1100 l 1,9,-1
 400 1100 l 1,10,-1
 400 229 l 2,11,12
 400 183 400 183 419 163 c 0,13,14
 449 130 449 130 566 130 c 1,15,-1
 566 0 l 1,4,5
EndSplineSet
Validated: 1
EndChar

StartChar: icircumflex
Encoding: 238 238 176
Width: 600
GlyphClass: 2
Flags: W
HStem: 0 130<419.959 566> 1080 20G<200 400>
VStem: 200 200<163.631 1100>
LayerCount: 2
Fore
SplineSet
566 0 m 1,0,1
 363 0 363 0 287 50 c 0,2,3
 200 107 200 107 200 229 c 2,4,-1
 200 1100 l 1,5,-1
 400 1100 l 1,6,-1
 400 229 l 2,7,8
 400 183 400 183 419 163 c 0,9,10
 449 130 449 130 566 130 c 1,11,-1
 566 0 l 1,0,1
117 1210 m 1,12,-1
 35 1293 l 1,13,-1
 300 1584 l 1,14,-1
 565 1293 l 1,15,-1
 483 1210 l 1,16,-1
 299 1379 l 1,17,-1
 117 1210 l 1,12,-1
EndSplineSet
Validated: 1
EndChar

StartChar: idieresis
Encoding: 239 239 177
Width: 600
GlyphClass: 2
Flags: W
HStem: 0 130<419.959 566> 1080 20G<200 400> 1276 255<57.1294 233.809 366.129 541.809>
VStem: 20 252<1315.16 1491.84> 200 200<163.631 1100> 328 252<1315.22 1492.9>
LayerCount: 2
Fore
SplineSet
328 1404 m 0,0,1
 328 1456 328 1456 365 1493 c 1,2,3
 400 1531 400 1531 454 1531 c 0,4,5
 505 1531 505 1531 543 1494 c 0,6,7
 578 1459 578 1459 580 1405 c 1,8,9
 580 1351 580 1351 543 1313 c 1,10,11
 505 1276 505 1276 454 1276 c 0,12,13
 401 1276 401 1276 365 1314 c 0,14,15
 328 1353 328 1353 328 1404 c 0,0,1
20 1404 m 0,16,17
 20 1456 20 1456 56 1493 c 0,18,19
 92 1531 92 1531 146 1531 c 0,20,21
 197 1531 197 1531 235 1494 c 0,22,23
 270 1459 270 1459 272 1405 c 1,24,25
 272 1351 272 1351 235 1313 c 1,26,27
 197 1276 197 1276 146 1276 c 0,28,29
 92 1276 92 1276 56 1314 c 0,30,31
 20 1351 20 1351 20 1404 c 0,16,17
566 0 m 1,32,33
 363 0 363 0 287 50 c 0,34,35
 200 107 200 107 200 229 c 2,36,-1
 200 1100 l 1,37,-1
 400 1100 l 1,38,-1
 400 229 l 2,39,40
 400 183 400 183 419 163 c 0,41,42
 449 130 449 130 566 130 c 1,43,-1
 566 0 l 1,32,33
EndSplineSet
Validated: 1
EndChar

StartChar: eth
Encoding: 240 240 178
Width: 1324
GlyphClass: 2
Flags: W
HStem: -20 123<421.45 725.759> 846 124<507.782 772.564> 1118 21G<604.735 656.8> 1405 126<582 662.938> 1490 20G<1049.5 1100.26>
VStem: 100 210<221.658 632.83> 964 210<436.174 1032.97>
DStem2: 551 1254 614 1118 0.903602 0.428374<0 176.704 412.912 596.277>
LayerCount: 2
Fore
SplineSet
582 1531 m 1,0,1
 750 1506 750 1506 869 1403 c 1,2,-1
 1091 1510 l 1,3,-1
 1154 1374 l 1,4,-1
 989 1294 l 1,5,6
 1174 1062 1174 1062 1174 746 c 0,7,8
 1174 355 1174 355 942 135 c 0,9,10
 779 -20 779 -20 547 -20 c 0,11,12
 330 -20 330 -20 217 109 c 0,13,14
 100 241 100 241 100 437 c 0,15,16
 100 648 100 648 282 816 c 0,17,18
 449 970 449 970 647 970 c 0,19,20
 808 970 808 970 808 814 c 1,21,22
 750 846 750 846 680 846 c 0,23,24
 533 846 533 846 432 746 c 0,25,26
 310 624 310 624 310 453 c 0,27,28
 310 296 310 296 356 219 c 0,29,30
 426 103 426 103 566 103 c 0,31,32
 716 103 716 103 830 234 c 0,33,34
 964 388 964 388 964 766 c 0,35,36
 964 1047 964 1047 828 1218 c 1,37,-1
 614 1118 l 1,38,-1
 551 1254 l 1,39,-1
 711 1329 l 1,40,41
 650 1374 650 1374 582 1405 c 1,42,-1
 582 1531 l 1,0,1
EndSplineSet
Validated: 1
EndChar

StartChar: ntilde
Encoding: 241 241 179
Width: 1382
GlyphClass: 2
Flags: W
HStem: 0 21G<200 400 982 1182> 982 138<615.721 918.847> 1080 20G<200 400> 1277 138<780.454 973.537> 1389 138<541.987 743.3>
VStem: 200 200<0 779.121 942 1100> 982 200<0 915>
LayerCount: 2
Fore
SplineSet
498 1446 m 1,0,1
 547 1527 547 1527 618 1527 c 0,2,3
 680 1527 680 1527 761 1472 c 0,4,5
 845 1415 845 1415 898 1415 c 0,6,7
 958 1415 958 1415 1018 1527 c 1,8,-1
 1018 1358 l 1,9,10
 968 1277 968 1277 898 1277 c 0,11,12
 832 1277 832 1277 759 1333 c 152,-1,13
 686 1389 686 1389 618 1389 c 0,14,15
 557 1389 557 1389 498 1277 c 1,16,-1
 498 1446 l 1,0,1
200 0 m 1,17,-1
 200 1100 l 1,18,-1
 400 1100 l 1,19,-1
 400 942 l 1,20,21
 476 1013 476 1013 576 1063 c 0,22,23
 688 1120 688 1120 832 1120 c 0,24,25
 956 1120 956 1120 1058 1037 c 0,26,27
 1182 936 1182 936 1182 751 c 2,28,-1
 1182 0 l 1,29,-1
 982 0 l 1,30,-1
 982 751 l 2,31,32
 982 876 982 876 926 931 c 0,33,34
 874 982 874 982 799 982 c 0,35,36
 658 982 658 982 540 890 c 0,37,38
 400 781 400 781 400 591 c 2,39,-1
 400 0 l 1,40,-1
 200 0 l 1,17,-1
EndSplineSet
Validated: 1
EndChar

StartChar: ograve
Encoding: 242 242 180
Width: 1344
GlyphClass: 2
Flags: W
HStem: -20 124<461.964 794.758> 997 123<549.796 881.692>
VStem: 100 210<261.956 715.584> 1034 210<384.662 837.458>
LayerCount: 2
Fore
SplineSet
597 -20 m 0,0,1
 372 -20 372 -20 227 133 c 24,2,3
 100 267 100 267 100 497 c 0,4,5
 100 759 100 759 332 965 c 0,6,7
 506 1120 506 1120 747 1120 c 0,8,9
 972 1120 972 1120 1117 967 c 24,10,11
 1244 833 1244 833 1244 603 c 0,12,13
 1244 341 1244 341 1012 135 c 0,14,15
 838 -20 838 -20 597 -20 c 0,0,1
614 104 m 0,16,17
 788 104 788 104 900 234 c 0,18,19
 1034 390 1034 390 1034 621 c 0,20,21
 1034 800 1034 800 952 894 c 0,22,23
 859 997 859 997 728 997 c 0,24,25
 559 997 559 997 444 866 c 0,26,27
 310 711 310 711 310 479 c 0,28,29
 310 297 310 297 392 206 c 0,30,31
 484 104 484 104 614 104 c 0,16,17
745 1210 m 1,32,-1
 455 1476 l 1,33,-1
 562 1584 l 1,34,-1
 827 1293 l 1,35,-1
 745 1210 l 1,32,-1
EndSplineSet
Validated: 1
EndChar

StartChar: oacute
Encoding: 243 243 181
Width: 1344
GlyphClass: 2
Flags: W
HStem: -20 124<461.964 794.758> 997 123<549.796 881.692>
VStem: 100 210<261.956 715.584> 1034 210<384.662 837.458>
LayerCount: 2
Fore
SplineSet
597 -20 m 0,0,1
 372 -20 372 -20 227 133 c 24,2,3
 100 267 100 267 100 497 c 0,4,5
 100 759 100 759 332 965 c 0,6,7
 506 1120 506 1120 747 1120 c 0,8,9
 972 1120 972 1120 1117 967 c 24,10,11
 1244 833 1244 833 1244 603 c 0,12,13
 1244 341 1244 341 1012 135 c 0,14,15
 838 -20 838 -20 597 -20 c 0,0,1
614 104 m 0,16,17
 788 104 788 104 900 234 c 0,18,19
 1034 390 1034 390 1034 621 c 0,20,21
 1034 800 1034 800 952 894 c 0,22,23
 859 997 859 997 728 997 c 0,24,25
 559 997 559 997 444 866 c 0,26,27
 310 711 310 711 310 479 c 0,28,29
 310 297 310 297 392 206 c 0,30,31
 484 104 484 104 614 104 c 0,16,17
746 1210 m 1,32,-1
 664 1293 l 1,33,-1
 929 1584 l 1,34,-1
 1036 1476 l 1,35,-1
 746 1210 l 1,32,-1
EndSplineSet
Validated: 1
EndChar

StartChar: ocircumflex
Encoding: 244 244 182
Width: 1344
GlyphClass: 2
Flags: W
HStem: -20 124<461.964 794.758> 997 123<549.796 881.692>
VStem: 100 210<261.956 715.584> 1034 210<384.662 837.458>
LayerCount: 2
Fore
SplineSet
597 -20 m 0,0,1
 372 -20 372 -20 227 133 c 24,2,3
 100 267 100 267 100 497 c 0,4,5
 100 759 100 759 332 965 c 0,6,7
 506 1120 506 1120 747 1120 c 0,8,9
 972 1120 972 1120 1117 967 c 24,10,11
 1244 833 1244 833 1244 603 c 0,12,13
 1244 341 1244 341 1012 135 c 0,14,15
 838 -20 838 -20 597 -20 c 0,0,1
614 104 m 0,16,17
 788 104 788 104 900 234 c 0,18,19
 1034 390 1034 390 1034 621 c 0,20,21
 1034 800 1034 800 952 894 c 0,22,23
 859 997 859 997 728 997 c 0,24,25
 559 997 559 997 444 866 c 0,26,27
 310 711 310 711 310 479 c 0,28,29
 310 297 310 297 392 206 c 0,30,31
 484 104 484 104 614 104 c 0,16,17
578 1210 m 1,32,-1
 496 1293 l 1,33,-1
 761 1584 l 1,34,-1
 1026 1293 l 1,35,-1
 944 1210 l 1,36,-1
 760 1379 l 1,37,-1
 578 1210 l 1,32,-1
EndSplineSet
Validated: 1
EndChar

StartChar: otilde
Encoding: 245 245 183
Width: 1344
GlyphClass: 2
Flags: W
HStem: -20 124<461.964 794.758> 997 123<549.796 881.692> 1277 138<780.454 973.537> 1389 138<541.987 743.3>
VStem: 100 210<261.956 715.584> 1034 210<384.662 837.458>
LayerCount: 2
Fore
SplineSet
597 -20 m 0,0,1
 372 -20 372 -20 227 133 c 24,2,3
 100 267 100 267 100 497 c 0,4,5
 100 759 100 759 332 965 c 0,6,7
 506 1120 506 1120 747 1120 c 0,8,9
 972 1120 972 1120 1117 967 c 24,10,11
 1244 833 1244 833 1244 603 c 0,12,13
 1244 341 1244 341 1012 135 c 0,14,15
 838 -20 838 -20 597 -20 c 0,0,1
614 104 m 0,16,17
 788 104 788 104 900 234 c 0,18,19
 1034 390 1034 390 1034 621 c 0,20,21
 1034 800 1034 800 952 894 c 0,22,23
 859 997 859 997 728 997 c 0,24,25
 559 997 559 997 444 866 c 0,26,27
 310 711 310 711 310 479 c 0,28,29
 310 297 310 297 392 206 c 0,30,31
 484 104 484 104 614 104 c 0,16,17
498 1446 m 1,32,33
 547 1527 547 1527 618 1527 c 0,34,35
 680 1527 680 1527 761 1472 c 0,36,37
 845 1415 845 1415 898 1415 c 0,38,39
 958 1415 958 1415 1018 1527 c 1,40,-1
 1018 1358 l 1,41,42
 968 1277 968 1277 898 1277 c 0,43,44
 832 1277 832 1277 759 1333 c 152,-1,45
 686 1389 686 1389 618 1389 c 0,46,47
 557 1389 557 1389 498 1277 c 1,48,-1
 498 1446 l 1,32,33
EndSplineSet
Validated: 1
EndChar

StartChar: odieresis
Encoding: 246 246 184
Width: 1344
GlyphClass: 2
Flags: W
HStem: -20 124<461.964 794.758> 997 123<549.796 881.692> 1276 255<513.129 689.809 822.129 997.809>
VStem: 100 210<261.956 715.584> 476 252<1315.16 1491.84> 784 252<1315.22 1492.9> 1034 210<384.662 837.458>
LayerCount: 2
Fore
SplineSet
597 -20 m 0,0,1
 372 -20 372 -20 227 133 c 24,2,3
 100 267 100 267 100 497 c 0,4,5
 100 759 100 759 332 965 c 0,6,7
 506 1120 506 1120 747 1120 c 0,8,9
 972 1120 972 1120 1117 967 c 24,10,11
 1244 833 1244 833 1244 603 c 0,12,13
 1244 341 1244 341 1012 135 c 0,14,15
 838 -20 838 -20 597 -20 c 0,0,1
614 104 m 0,16,17
 788 104 788 104 900 234 c 0,18,19
 1034 390 1034 390 1034 621 c 0,20,21
 1034 800 1034 800 952 894 c 0,22,23
 859 997 859 997 728 997 c 0,24,25
 559 997 559 997 444 866 c 0,26,27
 310 711 310 711 310 479 c 0,28,29
 310 297 310 297 392 206 c 0,30,31
 484 104 484 104 614 104 c 0,16,17
784 1404 m 0,32,33
 784 1456 784 1456 821 1493 c 1,34,35
 856 1531 856 1531 910 1531 c 0,36,37
 961 1531 961 1531 999 1494 c 0,38,39
 1034 1459 1034 1459 1036 1405 c 1,40,41
 1036 1351 1036 1351 999 1313 c 1,42,43
 961 1276 961 1276 910 1276 c 0,44,45
 857 1276 857 1276 821 1314 c 0,46,47
 784 1353 784 1353 784 1404 c 0,32,33
476 1404 m 0,48,49
 476 1456 476 1456 512 1493 c 0,50,51
 548 1531 548 1531 602 1531 c 0,52,53
 653 1531 653 1531 691 1494 c 0,54,55
 726 1459 726 1459 728 1405 c 1,56,57
 728 1351 728 1351 691 1313 c 1,58,59
 653 1276 653 1276 602 1276 c 0,60,61
 548 1276 548 1276 512 1314 c 0,62,63
 476 1351 476 1351 476 1404 c 0,48,49
EndSplineSet
Validated: 1
EndChar

StartChar: divide
Encoding: 247 247 185
Width: 1183
GlyphClass: 2
Flags: W
HStem: 292 255<504.129 680.809> 693 150<150 1033> 948 255<502.129 678.809>
VStem: 467 252<331.16 507.84 987.16 1163.84>
LayerCount: 2
Fore
SplineSet
717 1070 m 0,0,1
 717 1022 717 1022 681 984 c 0,2,3
 648 948 648 948 591 948 c 0,4,5
 537 948 537 948 501 986 c 0,6,7
 465 1023 465 1023 465 1075 c 0,8,9
 465 1128 465 1128 501 1165 c 0,10,11
 537 1203 537 1203 591 1203 c 0,12,13
 642 1203 642 1203 680 1166 c 1,14,15
 717 1128 717 1128 717 1070 c 0,0,1
719 414 m 0,16,17
 719 366 719 366 683 328 c 0,18,19
 650 292 650 292 593 292 c 0,20,21
 539 292 539 292 503 330 c 0,22,23
 467 367 467 367 467 419 c 0,24,25
 467 472 467 472 503 509 c 0,26,27
 539 547 539 547 593 547 c 0,28,29
 644 547 644 547 682 510 c 1,30,31
 719 472 719 472 719 414 c 0,16,17
1033 693 m 1,32,-1
 150 693 l 1,33,-1
 150 843 l 1,34,-1
 1033 843 l 1,35,-1
 1033 693 l 1,32,-1
EndSplineSet
Validated: 1
EndChar

StartChar: oslash
Encoding: 248 248 186
Width: 1344
GlyphClass: 2
Flags: W
HStem: -20 124<520.642 794.758> 997 123<549.796 824.156>
VStem: 100 210<261.956 715.338> 1034 210<384.908 836.994>
DStem2: 392 206 519 119 0.488657 0.872476<0 873.528>
LayerCount: 2
Fore
SplineSet
614 104 m 0,0,1
 788 104 788 104 900 234 c 0,2,3
 1034 390 1034 390 1034 621 c 0,4,5
 1034 799 1034 799 953 893 c 1,6,-1
 519 119 l 1,7,8
 564 104 564 104 614 104 c 0,0,1
276 0 m 1,9,-1
 311 62 l 1,10,11
 266 92 266 92 227 133 c 0,12,13
 100 267 100 267 100 497 c 0,14,15
 100 758 100 758 332 965 c 0,16,17
 506 1120 506 1120 747 1120 c 0,18,19
 826 1120 826 1120 896 1101 c 1,20,-1
 1069 1101 l 1,21,-1
 1034 1038 l 1,22,23
 1078 1008 1078 1008 1117 967 c 0,24,25
 1244 833 1244 833 1244 603 c 0,26,27
 1244 342 1244 342 1012 135 c 0,28,29
 838 -20 838 -20 597 -20 c 0,30,31
 516 -20 516 -20 445 -0 c 1,32,-1
 276 0 l 1,9,-1
392 206 m 1,33,-1
 826 981 l 1,34,35
 780 997 780 997 728 997 c 0,36,37
 559 997 559 997 444 866 c 0,38,39
 310 711 310 711 310 479 c 0,40,41
 310 297 310 297 392 206 c 1,33,-1
EndSplineSet
Validated: 1
EndChar

StartChar: ugrave
Encoding: 249 249 187
Width: 1382
GlyphClass: 2
Flags: W
HStem: -20 138<463.153 766.279> 0 21G<982 1182> 1080 20G<200 400 982 1182>
VStem: 200 200<185 1100> 982 200<0 158 320.879 1100>
LayerCount: 2
Fore
SplineSet
673 1210 m 1,0,-1
 383 1476 l 1,1,-1
 490 1584 l 1,2,-1
 755 1293 l 1,3,-1
 673 1210 l 1,0,-1
200 1100 m 1,4,-1
 400 1100 l 1,5,-1
 400 349 l 2,6,7
 400 224 400 224 456 169 c 0,8,9
 508 118 508 118 583 118 c 0,10,11
 724 118 724 118 842 210 c 0,12,13
 982 319 982 319 982 509 c 2,14,-1
 982 1100 l 1,15,-1
 1182 1100 l 1,16,-1
 1182 0 l 1,17,-1
 982 0 l 1,18,-1
 982 158 l 1,19,20
 906 87 906 87 806 37 c 0,21,22
 694 -20 694 -20 550 -20 c 0,23,24
 426 -20 426 -20 324 63 c 0,25,26
 200 164 200 164 200 349 c 2,27,-1
 200 1100 l 1,4,-1
EndSplineSet
Validated: 1
EndChar

StartChar: uacute
Encoding: 250 250 188
Width: 1382
GlyphClass: 2
Flags: W
HStem: -20 138<463.153 766.279> 0 21G<982 1182> 1080 20G<200 400 982 1182>
VStem: 200 200<185 1100> 982 200<0 158 320.879 1100>
LayerCount: 2
Fore
SplineSet
696 1210 m 1,0,-1
 614 1293 l 1,1,-1
 879 1584 l 1,2,-1
 986 1476 l 1,3,-1
 696 1210 l 1,0,-1
200 1100 m 1,4,-1
 400 1100 l 1,5,-1
 400 349 l 2,6,7
 400 224 400 224 456 169 c 0,8,9
 508 118 508 118 583 118 c 0,10,11
 724 118 724 118 842 210 c 0,12,13
 982 319 982 319 982 509 c 2,14,-1
 982 1100 l 1,15,-1
 1182 1100 l 1,16,-1
 1182 0 l 1,17,-1
 982 0 l 1,18,-1
 982 158 l 1,19,20
 906 87 906 87 806 37 c 0,21,22
 694 -20 694 -20 550 -20 c 0,23,24
 426 -20 426 -20 324 63 c 0,25,26
 200 164 200 164 200 349 c 2,27,-1
 200 1100 l 1,4,-1
EndSplineSet
Validated: 1
EndChar

StartChar: ucircumflex
Encoding: 251 251 189
Width: 1382
GlyphClass: 2
Flags: W
HStem: -20 138<463.153 766.279> 0 21G<982 1182> 1080 20G<200 400 982 1182>
VStem: 200 200<185 1100> 982 200<0 158 320.879 1100>
LayerCount: 2
Fore
SplineSet
494 1210 m 1,0,-1
 412 1293 l 1,1,-1
 677 1584 l 1,2,-1
 942 1293 l 1,3,-1
 860 1210 l 1,4,-1
 676 1379 l 1,5,-1
 494 1210 l 1,0,-1
200 1100 m 1,6,-1
 400 1100 l 1,7,-1
 400 349 l 2,8,9
 400 224 400 224 456 169 c 0,10,11
 508 118 508 118 583 118 c 0,12,13
 724 118 724 118 842 210 c 0,14,15
 982 319 982 319 982 509 c 2,16,-1
 982 1100 l 1,17,-1
 1182 1100 l 1,18,-1
 1182 0 l 1,19,-1
 982 0 l 1,20,-1
 982 158 l 1,21,22
 906 87 906 87 806 37 c 0,23,24
 694 -20 694 -20 550 -20 c 0,25,26
 426 -20 426 -20 324 63 c 0,27,28
 200 164 200 164 200 349 c 2,29,-1
 200 1100 l 1,6,-1
EndSplineSet
Validated: 1
EndChar

StartChar: udieresis
Encoding: 252 252 190
Width: 1382
GlyphClass: 2
Flags: W
HStem: -20 138<463.153 766.279> 0 21G<982 1182> 1080 20G<200 400 982 1182> 1276 255<451.129 627.809 760.129 935.809>
VStem: 200 200<185 1100> 414 252<1315.16 1491.84> 722 252<1315.22 1492.9> 982 200<0 158 320.879 1100>
LayerCount: 2
Fore
SplineSet
722 1404 m 0,0,1
 722 1456 722 1456 759 1493 c 1,2,3
 794 1531 794 1531 848 1531 c 0,4,5
 899 1531 899 1531 937 1494 c 0,6,7
 972 1459 972 1459 974 1405 c 1,8,9
 974 1351 974 1351 937 1313 c 1,10,11
 899 1276 899 1276 848 1276 c 0,12,13
 795 1276 795 1276 759 1314 c 0,14,15
 722 1353 722 1353 722 1404 c 0,0,1
414 1404 m 0,16,17
 414 1456 414 1456 450 1493 c 0,18,19
 486 1531 486 1531 540 1531 c 0,20,21
 591 1531 591 1531 629 1494 c 0,22,23
 664 1459 664 1459 666 1405 c 1,24,25
 666 1351 666 1351 629 1313 c 1,26,27
 591 1276 591 1276 540 1276 c 0,28,29
 486 1276 486 1276 450 1314 c 0,30,31
 414 1351 414 1351 414 1404 c 0,16,17
200 1100 m 1,32,-1
 400 1100 l 1,33,-1
 400 349 l 2,34,35
 400 224 400 224 456 169 c 0,36,37
 508 118 508 118 583 118 c 0,38,39
 724 118 724 118 842 210 c 0,40,41
 982 319 982 319 982 509 c 2,42,-1
 982 1100 l 1,43,-1
 1182 1100 l 1,44,-1
 1182 0 l 1,45,-1
 982 0 l 1,46,-1
 982 158 l 1,47,48
 906 87 906 87 806 37 c 0,49,50
 694 -20 694 -20 550 -20 c 0,51,52
 426 -20 426 -20 324 63 c 0,53,54
 200 164 200 164 200 349 c 2,55,-1
 200 1100 l 1,32,-1
EndSplineSet
Validated: 1
EndChar

StartChar: yacute
Encoding: 253 253 191
Width: 1382
GlyphClass: 2
Flags: W
HStem: -410 123<398.216 729.898> -20 138<463.212 767.188> 1080 20G<200 400 982 1182>
VStem: 200 200<185 1100> 982 200<320.879 1100>
LayerCount: 2
Fore
SplineSet
200 1100 m 1,0,-1
 400 1100 l 1,1,-1
 400 349 l 2,2,3
 400 223 400 223 456 169 c 0,4,5
 509 118 509 118 583 118 c 0,6,7
 724 118 724 118 842 210 c 0,8,9
 982 319 982 319 982 509 c 2,10,-1
 982 1100 l 1,11,-1
 1182 1100 l 1,12,-1
 1182 282 l 2,13,14
 1182 -27 1182 -27 993 -207 c 0,15,16
 780 -410 780 -410 536 -410 c 0,17,18
 346 -410 346 -410 182 -271 c 1,19,-1
 309 -163 l 1,20,21
 413 -287 413 -287 552 -287 c 0,22,23
 717 -287 717 -287 833 -160 c 0,24,25
 958 -21 958 -21 976 160 c 1,26,27
 909 85 909 85 806 37 c 0,28,29
 687 -20 687 -20 550 -20 c 0,30,31
 426 -20 426 -20 324 63 c 0,32,33
 200 164 200 164 200 349 c 2,34,-1
 200 1100 l 1,0,-1
685 1210 m 1,35,-1
 603 1293 l 1,36,-1
 868 1584 l 1,37,-1
 975 1476 l 1,38,-1
 685 1210 l 1,35,-1
EndSplineSet
Validated: 1
EndChar

StartChar: thorn
Encoding: 254 254 192
Width: 1297
GlyphClass: 2
Flags: W
HStem: -410 21G<200 400> -20 124<484.853 748.569> 996 124<565.914 853.168> 1491 20G<200 400>
VStem: 200 200<-410 795.575 942 1511> 987 210<392.16 842.166>
LayerCount: 2
Fore
SplineSet
200 1511 m 1,0,-1
 400 1511 l 1,1,-1
 400 942 l 1,2,3
 439 1009 439 1009 497 1054 c 0,4,5
 582 1120 582 1120 700 1120 c 0,6,7
 928 1120 928 1120 1071 967 c 0,8,9
 1197 832 1197 832 1197 612 c 0,10,11
 1197 348 1197 348 965 134 c 0,12,13
 798 -20 798 -20 610 -20 c 24,14,15
 449 -20 449 -20 449 136 c 1,16,17
 509 104 509 104 577 104 c 0,18,19
 731 104 731 104 843 221 c 24,20,21
 987 372 987 372 987 610 c 0,22,23
 987 776 987 776 923 878 c 0,24,25
 849 996 849 996 698 996 c 0,26,27
 584 996 584 996 498 884 c 0,28,29
 400 755 400 755 400 591 c 2,30,-1
 400 -410 l 1,31,-1
 200 -410 l 1,32,-1
 200 1511 l 1,0,-1
EndSplineSet
Validated: 1
EndChar

StartChar: ydieresis
Encoding: 255 255 193
Width: 1382
GlyphClass: 2
Flags: W
HStem: -410 123<398.216 729.898> -20 138<463.212 767.188> 1080 20G<200 400 982 1182> 1276 255<451.129 627.809 760.129 935.809>
VStem: 200 200<185 1100> 414 252<1315.16 1491.84> 722 252<1315.22 1492.9> 982 200<320.879 1100>
LayerCount: 2
Fore
SplineSet
200 1100 m 1,0,-1
 400 1100 l 1,1,-1
 400 349 l 2,2,3
 400 223 400 223 456 169 c 0,4,5
 509 118 509 118 583 118 c 0,6,7
 724 118 724 118 842 210 c 0,8,9
 982 319 982 319 982 509 c 2,10,-1
 982 1100 l 1,11,-1
 1182 1100 l 1,12,-1
 1182 282 l 2,13,14
 1182 -27 1182 -27 993 -207 c 0,15,16
 780 -410 780 -410 536 -410 c 0,17,18
 346 -410 346 -410 182 -271 c 1,19,-1
 309 -163 l 1,20,21
 413 -287 413 -287 552 -287 c 0,22,23
 717 -287 717 -287 833 -160 c 0,24,25
 958 -21 958 -21 976 160 c 1,26,27
 909 85 909 85 806 37 c 0,28,29
 687 -20 687 -20 550 -20 c 0,30,31
 426 -20 426 -20 324 63 c 0,32,33
 200 164 200 164 200 349 c 2,34,-1
 200 1100 l 1,0,-1
722 1404 m 0,35,36
 722 1456 722 1456 759 1493 c 1,37,38
 794 1531 794 1531 848 1531 c 0,39,40
 899 1531 899 1531 937 1494 c 0,41,42
 972 1459 972 1459 974 1405 c 1,43,44
 974 1351 974 1351 937 1313 c 1,45,46
 899 1276 899 1276 848 1276 c 0,47,48
 795 1276 795 1276 759 1314 c 0,49,50
 722 1353 722 1353 722 1404 c 0,35,36
414 1404 m 0,51,52
 414 1456 414 1456 450 1493 c 0,53,54
 486 1531 486 1531 540 1531 c 0,55,56
 591 1531 591 1531 629 1494 c 0,57,58
 664 1459 664 1459 666 1405 c 1,59,60
 666 1351 666 1351 629 1313 c 1,61,62
 591 1276 591 1276 540 1276 c 0,63,64
 486 1276 486 1276 450 1314 c 0,65,66
 414 1351 414 1351 414 1404 c 0,51,52
EndSplineSet
Validated: 1
EndChar

StartChar: Amacron
Encoding: 256 256 194
Width: 1537
GlyphClass: 2
Flags: W
HStem: 0 21G<5 183.448 1304.29 1532> 696 150<533 945> 1491 20G<662.185 874.815> 1689 152<498 1018>
VStem: 5 170<0 170> 1313 219<0 219>
DStem2: 5 0 175 0 0.403327 0.915056<68.5656 824.023 987.094 987.094> 866 1511 736 1327 0.403327 -0.915056<115.938 640.375 803.85 1562.94>
LayerCount: 2
Fore
SplineSet
5 0 m 1,0,-1
 671 1511 l 1,1,-1
 866 1511 l 1,2,-1
 1532 0 l 1,3,-1
 1313 0 l 1,4,-1
 1010 696 l 1,5,-1
 469 696 l 1,6,-1
 175 0 l 1,7,-1
 5 0 l 1,0,-1
533 846 m 1,8,-1
 945 846 l 1,9,-1
 736 1327 l 1,10,-1
 533 846 l 1,8,-1
498 1689 m 1,11,-1
 498 1841 l 1,12,-1
 1018 1841 l 1,13,-1
 1018 1689 l 1,14,-1
 498 1689 l 1,11,-1
EndSplineSet
Validated: 1
EndChar

StartChar: amacron
Encoding: 257 257 195
Width: 1297
GlyphClass: 2
Flags: W
HStem: -20 123<455.111 735.674> 0 21G<897 1097> 996 124<551.276 841.755> 1328 152<482 1002>
VStem: 100 210<265.899 708.34> 897 200<0 933.586>
LayerCount: 2
Fore
SplineSet
1097 0 m 1,0,-1
 897 0 l 1,1,-1
 897 815 l 2,2,3
 897 890 897 890 858 935 c 0,4,5
 806 996 806 996 730 996 c 0,6,7
 568 996 568 996 454 879 c 0,8,9
 310 731 310 731 310 488 c 0,10,11
 310 305 310 305 374 222 c 0,12,13
 466 103 466 103 616 103 c 0,14,15
 744 103 744 103 840 282 c 1,16,17
 840 -20 840 -20 597 -20 c 0,18,19
 352 -20 352 -20 226 133 c 128,-1,20
 100 286 100 286 100 488 c 0,21,22
 100 752 100 752 332 966 c 0,23,24
 499 1120 499 1120 747 1120 c 0,25,26
 878 1120 878 1120 976 1038 c 0,27,28
 1097 937 1097 937 1097 751 c 2,29,-1
 1097 0 l 1,0,-1
482 1328 m 1,30,-1
 482 1480 l 1,31,-1
 1002 1480 l 1,32,-1
 1002 1328 l 1,33,-1
 482 1328 l 1,30,-1
EndSplineSet
Validated: 1
EndChar

StartChar: Abreve
Encoding: 258 258 196
Width: 1537
GlyphClass: 2
Flags: W
HStem: 0 21G<5 183.448 1304.29 1532> 696 150<533 945> 1491 20G<662.185 874.815> 1678 130<591.462 937.043> 1753 152<503 655 871 1023>
VStem: 5 170<0 170> 1313 219<0 219>
DStem2: 5 0 175 0 0.403327 0.915056<68.5656 824.023 987.094 987.094> 866 1511 736 1327 0.403327 -0.915056<115.938 640.375 803.85 1562.94>
LayerCount: 2
Fore
SplineSet
5 0 m 1,0,-1
 671 1511 l 1,1,-1
 866 1511 l 1,2,-1
 1532 0 l 1,3,-1
 1313 0 l 1,4,-1
 1010 696 l 1,5,-1
 469 696 l 1,6,-1
 175 0 l 1,7,-1
 5 0 l 1,0,-1
533 846 m 1,8,-1
 945 846 l 1,9,-1
 736 1327 l 1,10,-1
 533 846 l 1,8,-1
503 1905 m 1,11,12
 638 1808 638 1808 766 1808 c 0,13,14
 892 1808 892 1808 1023 1905 c 17,15,-1
 1023 1753 l 9,16,17
 915 1678 915 1678 768 1678 c 0,18,19
 597 1678 597 1678 503 1753 c 1,20,-1
 503 1905 l 1,11,12
EndSplineSet
Validated: 1
EndChar

StartChar: abreve
Encoding: 259 259 197
Width: 1297
GlyphClass: 2
Flags: W
HStem: -20 123<455.111 735.674> 0 21G<897 1097> 996 124<551.276 841.755> 1308 130<571.462 917.043> 1383 152<483 635 851 1003>
VStem: 100 210<265.899 708.34> 897 200<0 933.586>
LayerCount: 2
Fore
SplineSet
1097 0 m 1,0,-1
 897 0 l 1,1,-1
 897 815 l 2,2,3
 897 890 897 890 858 935 c 0,4,5
 806 996 806 996 730 996 c 0,6,7
 568 996 568 996 454 879 c 0,8,9
 310 731 310 731 310 488 c 0,10,11
 310 305 310 305 374 222 c 0,12,13
 466 103 466 103 616 103 c 0,14,15
 744 103 744 103 840 282 c 1,16,17
 840 -20 840 -20 597 -20 c 0,18,19
 352 -20 352 -20 226 133 c 128,-1,20
 100 286 100 286 100 488 c 0,21,22
 100 752 100 752 332 966 c 0,23,24
 499 1120 499 1120 747 1120 c 0,25,26
 878 1120 878 1120 976 1038 c 0,27,28
 1097 937 1097 937 1097 751 c 2,29,-1
 1097 0 l 1,0,-1
483 1535 m 1,30,31
 618 1438 618 1438 746 1438 c 0,32,33
 872 1438 872 1438 1003 1535 c 17,34,-1
 1003 1383 l 9,35,36
 895 1308 895 1308 748 1308 c 0,37,38
 577 1308 577 1308 483 1383 c 1,39,-1
 483 1535 l 1,30,31
EndSplineSet
Validated: 1
EndChar

StartChar: Aogonek
Encoding: 260 260 198
Width: 1537
GlyphClass: 2
Flags: W
HStem: -410 21G<1149 1243.26> 0 21G<5 183.448> 696 150<533 945> 1491 20G<662.185 874.815>
VStem: 5 170<0 170> 1077 159<-266.297 -59.5181>
DStem2: 5 0 175 0 0.403327 0.915056<68.5656 824.023 987.094 1509.11> 866 1511 736 1327 0.403327 -0.915056<115.938 640.375 803.85 1461.7>
LayerCount: 2
Fore
SplineSet
533 846 m 1,0,-1
 945 846 l 1,1,-1
 736 1327 l 1,2,-1
 533 846 l 1,0,-1
5 0 m 1,3,-1
 671 1511 l 1,4,-1
 866 1511 l 1,5,-1
 1532 0 l 1,6,-1
 1337 -0 l 1,7,8
 1236 -87 1236 -87 1236 -179 c 0,9,10
 1236 -268 1236 -268 1349 -295 c 1,11,-1
 1221 -410 l 1,12,13
 1077 -332 1077 -332 1077 -207 c 0,14,15
 1077 -23 1077 -23 1271 95 c 1,16,-1
 1273 93 l 1,17,-1
 1010 696 l 1,18,-1
 469 696 l 1,19,-1
 175 0 l 1,20,-1
 5 0 l 1,3,-1
EndSplineSet
Validated: 1
EndChar

StartChar: aogonek
Encoding: 261 261 199
Width: 1297
GlyphClass: 2
Flags: W
HStem: -410 21G<888 982.261> -20 123<455.111 735.674> 996 124<551.276 841.755>
VStem: 100 210<265.899 708.34> 816 159<-266.297 -59.8599> 897 200<0 933.586>
LayerCount: 2
Fore
SplineSet
1097 0 m 1,0,-1
 1076 -0 l 1,1,2
 975 -87 975 -87 975 -179 c 0,3,4
 975 -268 975 -268 1088 -295 c 1,5,-1
 960 -410 l 1,6,7
 816 -332 816 -332 816 -207 c 0,8,9
 816 -91 816 -91 897 0 c 1,10,-1
 897 815 l 2,11,12
 897 890 897 890 858 935 c 0,13,14
 806 996 806 996 730 996 c 0,15,16
 568 996 568 996 454 879 c 0,17,18
 310 731 310 731 310 488 c 0,19,20
 310 305 310 305 374 222 c 0,21,22
 466 103 466 103 616 103 c 0,23,24
 744 103 744 103 840 282 c 1,25,26
 840 -20 840 -20 597 -20 c 0,27,28
 352 -20 352 -20 226 133 c 128,-1,29
 100 286 100 286 100 488 c 0,30,31
 100 752 100 752 332 966 c 0,32,33
 499 1120 499 1120 747 1120 c 0,34,35
 878 1120 878 1120 976 1038 c 0,36,37
 1097 937 1097 937 1097 751 c 2,38,-1
 1097 0 l 1,0,-1
EndSplineSet
Validated: 1
EndChar

StartChar: Cacute
Encoding: 262 262 200
Width: 1579
GlyphClass: 2
Flags: W
HStem: -20 123<581.989 1021.85> 1408 123<732.719 1175.49>
VStem: 100 210<415.995 948.509>
LayerCount: 2
Fore
SplineSet
1491 327 m 1,0,1
 1440 256 1440 256 1358 184 c 0,2,3
 1127 -20 1127 -20 788 -20 c 0,4,5
 469 -20 469 -20 271 185 c 0,6,7
 100 362 100 362 100 668 c 0,8,9
 100 1061 100 1061 401 1327 c 0,10,11
 632 1531 632 1531 971 1531 c 0,12,13
 1298 1531 1298 1531 1499 1314 c 9,14,-1
 1340 1220 l 17,15,16
 1214 1408 1214 1408 971 1408 c 0,17,18
 721 1408 721 1408 521 1231 c 0,19,20
 310 1043 310 1043 310 671 c 0,21,22
 310 433 310 433 434 270 c 0,23,24
 562 103 562 103 788 103 c 0,25,26
 1039 104 1039 104 1238 280 c 0,27,28
 1308 342 1308 342 1355 425 c 1,29,-1
 1491 327 l 1,0,1
969 1592 m 1,30,-1
 887 1675 l 1,31,-1
 1152 1966 l 1,32,-1
 1259 1858 l 1,33,-1
 969 1592 l 1,30,-1
EndSplineSet
Validated: 1
EndChar

StartChar: cacute
Encoding: 263 263 201
Width: 1184
GlyphClass: 2
Flags: W
HStem: -20 124<458.623 794.514> 997 123<549.064 882.293>
VStem: 100 210<261.956 715.584>
LayerCount: 2
Fore
SplineSet
1101 226 m 17,0,1
 1068 185 1068 185 1012 135 c 0,2,3
 838 -20 838 -20 597 -20 c 0,4,5
 372 -20 372 -20 227 133 c 24,6,7
 100 267 100 267 100 497 c 0,8,9
 100 759 100 759 332 965 c 0,10,11
 506 1120 506 1120 747 1120 c 0,12,13
 965 1120 965 1120 1104 980 c 1,14,-1
 966 876 l 1,15,16
 868 997 868 997 728 997 c 24,17,18
 556 997 556 997 444 866 c 0,19,20
 310 711 310 711 310 479 c 0,21,22
 310 297 310 297 392 206 c 0,23,24
 483 104 483 104 614 104 c 0,25,26
 787 104 787 104 900 234 c 0,27,28
 943 284 943 284 972 341 c 9,29,-1
 1101 226 l 17,0,1
746 1210 m 1,30,-1
 664 1293 l 1,31,-1
 929 1584 l 1,32,-1
 1036 1476 l 1,33,-1
 746 1210 l 1,30,-1
EndSplineSet
Validated: 1
EndChar

StartChar: Ccircumflex
Encoding: 264 264 202
Width: 1579
GlyphClass: 2
Flags: W
HStem: -20 123<581.989 1021.85> 1408 123<732.719 1175.49>
VStem: 100 210<415.995 948.509>
LayerCount: 2
Fore
SplineSet
1491 327 m 1,0,1
 1440 256 1440 256 1358 184 c 0,2,3
 1127 -20 1127 -20 788 -20 c 0,4,5
 469 -20 469 -20 271 185 c 0,6,7
 100 362 100 362 100 668 c 0,8,9
 100 1061 100 1061 401 1327 c 0,10,11
 632 1531 632 1531 971 1531 c 0,12,13
 1298 1531 1298 1531 1499 1314 c 9,14,-1
 1340 1220 l 17,15,16
 1214 1408 1214 1408 971 1408 c 0,17,18
 721 1408 721 1408 521 1231 c 0,19,20
 310 1043 310 1043 310 671 c 0,21,22
 310 433 310 433 434 270 c 0,23,24
 562 103 562 103 788 103 c 0,25,26
 1039 104 1039 104 1238 280 c 0,27,28
 1308 342 1308 342 1355 425 c 1,29,-1
 1491 327 l 1,0,1
793 1592 m 1,30,-1
 711 1675 l 1,31,-1
 976 1966 l 1,32,-1
 1241 1675 l 1,33,-1
 1159 1592 l 1,34,-1
 975 1761 l 1,35,-1
 793 1592 l 1,30,-1
EndSplineSet
Validated: 1
EndChar

StartChar: ccircumflex
Encoding: 265 265 203
Width: 1184
GlyphClass: 2
Flags: W
HStem: -20 124<458.623 794.514> 997 123<549.064 882.293>
VStem: 100 210<261.956 715.584>
LayerCount: 2
Fore
SplineSet
1101 226 m 17,0,1
 1068 185 1068 185 1012 135 c 0,2,3
 838 -20 838 -20 597 -20 c 0,4,5
 372 -20 372 -20 227 133 c 24,6,7
 100 267 100 267 100 497 c 0,8,9
 100 759 100 759 332 965 c 0,10,11
 506 1120 506 1120 747 1120 c 0,12,13
 965 1120 965 1120 1104 980 c 1,14,-1
 966 876 l 1,15,16
 868 997 868 997 728 997 c 24,17,18
 556 997 556 997 444 866 c 0,19,20
 310 711 310 711 310 479 c 0,21,22
 310 297 310 297 392 206 c 0,23,24
 483 104 483 104 614 104 c 0,25,26
 787 104 787 104 900 234 c 0,27,28
 943 284 943 284 972 341 c 9,29,-1
 1101 226 l 17,0,1
578 1210 m 1,30,-1
 496 1293 l 1,31,-1
 761 1584 l 1,32,-1
 1026 1293 l 1,33,-1
 944 1210 l 1,34,-1
 760 1379 l 1,35,-1
 578 1210 l 1,30,-1
EndSplineSet
Validated: 1
EndChar

StartChar: Cdotaccent
Encoding: 266 266 204
Width: 1579
GlyphClass: 2
Flags: W
HStem: -20 123<581.989 1021.85> 1408 123<732.719 1175.49> 1638 255<882.129 1057.81>
VStem: 100 210<415.995 948.509> 844 252<1677.22 1854.81>
LayerCount: 2
Fore
SplineSet
1491 327 m 1,0,1
 1440 256 1440 256 1358 184 c 0,2,3
 1127 -20 1127 -20 788 -20 c 0,4,5
 469 -20 469 -20 271 185 c 0,6,7
 100 362 100 362 100 668 c 0,8,9
 100 1061 100 1061 401 1327 c 0,10,11
 632 1531 632 1531 971 1531 c 0,12,13
 1298 1531 1298 1531 1499 1314 c 9,14,-1
 1340 1220 l 17,15,16
 1214 1408 1214 1408 971 1408 c 0,17,18
 721 1408 721 1408 521 1231 c 0,19,20
 310 1043 310 1043 310 671 c 0,21,22
 310 433 310 433 434 270 c 0,23,24
 562 103 562 103 788 103 c 0,25,26
 1039 104 1039 104 1238 280 c 0,27,28
 1308 342 1308 342 1355 425 c 1,29,-1
 1491 327 l 1,0,1
844 1766 m 0,30,31
 844 1818 844 1818 881 1855 c 1,32,33
 916 1893 916 1893 970 1893 c 0,34,35
 1022 1893 1022 1893 1059 1856 c 0,36,37
 1096 1818 1096 1818 1096 1766 c 0,38,39
 1096 1713 1096 1713 1059 1675 c 1,40,41
 1021 1638 1021 1638 970 1638 c 0,42,43
 917 1638 917 1638 881 1676 c 0,44,45
 844 1715 844 1715 844 1766 c 0,30,31
EndSplineSet
Validated: 1
EndChar

StartChar: cdotaccent
Encoding: 267 267 205
Width: 1184
GlyphClass: 2
Flags: W
HStem: -20 124<458.623 794.514> 997 123<549.064 882.293> 1276 255<658.129 833.809>
VStem: 100 210<261.956 715.584> 620 252<1315.22 1492.81>
LayerCount: 2
Fore
SplineSet
1101 226 m 17,0,1
 1068 185 1068 185 1012 135 c 0,2,3
 838 -20 838 -20 597 -20 c 0,4,5
 372 -20 372 -20 227 133 c 24,6,7
 100 267 100 267 100 497 c 0,8,9
 100 759 100 759 332 965 c 0,10,11
 506 1120 506 1120 747 1120 c 0,12,13
 965 1120 965 1120 1104 980 c 1,14,-1
 966 876 l 1,15,16
 868 997 868 997 728 997 c 24,17,18
 556 997 556 997 444 866 c 0,19,20
 310 711 310 711 310 479 c 0,21,22
 310 297 310 297 392 206 c 0,23,24
 483 104 483 104 614 104 c 0,25,26
 787 104 787 104 900 234 c 0,27,28
 943 284 943 284 972 341 c 9,29,-1
 1101 226 l 17,0,1
620 1404 m 0,30,31
 620 1456 620 1456 657 1493 c 1,32,33
 692 1531 692 1531 746 1531 c 0,34,35
 798 1531 798 1531 835 1494 c 0,36,37
 872 1456 872 1456 872 1404 c 0,38,39
 872 1351 872 1351 835 1313 c 1,40,41
 797 1276 797 1276 746 1276 c 0,42,43
 693 1276 693 1276 657 1314 c 0,44,45
 620 1353 620 1353 620 1404 c 0,30,31
EndSplineSet
Validated: 1
EndChar

StartChar: Ccaron
Encoding: 268 268 206
Width: 1579
GlyphClass: 2
Flags: W
HStem: -20 123<581.989 1021.85> 1408 123<732.719 1175.49>
VStem: 100 210<415.995 948.509>
LayerCount: 2
Fore
SplineSet
1491 327 m 1,0,1
 1440 256 1440 256 1358 184 c 0,2,3
 1127 -20 1127 -20 788 -20 c 0,4,5
 469 -20 469 -20 271 185 c 0,6,7
 100 362 100 362 100 668 c 0,8,9
 100 1061 100 1061 401 1327 c 0,10,11
 632 1531 632 1531 971 1531 c 0,12,13
 1298 1531 1298 1531 1499 1314 c 9,14,-1
 1340 1220 l 17,15,16
 1214 1408 1214 1408 971 1408 c 0,17,18
 721 1408 721 1408 521 1231 c 0,19,20
 310 1043 310 1043 310 671 c 0,21,22
 310 433 310 433 434 270 c 0,23,24
 562 103 562 103 788 103 c 0,25,26
 1039 104 1039 104 1238 280 c 0,27,28
 1308 342 1308 342 1355 425 c 1,29,-1
 1491 327 l 1,0,1
1159 1966 m 1,30,-1
 1241 1883 l 1,31,-1
 976 1592 l 1,32,-1
 711 1883 l 1,33,-1
 793 1966 l 1,34,-1
 977 1797 l 1,35,-1
 1159 1966 l 1,30,-1
EndSplineSet
Validated: 1
EndChar

StartChar: ccaron
Encoding: 269 269 207
Width: 1184
GlyphClass: 2
Flags: W
HStem: -20 124<458.623 794.514> 997 123<549.064 882.293>
VStem: 100 210<261.956 715.584>
LayerCount: 2
Fore
SplineSet
1101 226 m 17,0,1
 1068 185 1068 185 1012 135 c 0,2,3
 838 -20 838 -20 597 -20 c 0,4,5
 372 -20 372 -20 227 133 c 24,6,7
 100 267 100 267 100 497 c 0,8,9
 100 759 100 759 332 965 c 0,10,11
 506 1120 506 1120 747 1120 c 0,12,13
 965 1120 965 1120 1104 980 c 1,14,-1
 966 876 l 1,15,16
 868 997 868 997 728 997 c 24,17,18
 556 997 556 997 444 866 c 0,19,20
 310 711 310 711 310 479 c 0,21,22
 310 297 310 297 392 206 c 0,23,24
 483 104 483 104 614 104 c 0,25,26
 787 104 787 104 900 234 c 0,27,28
 943 284 943 284 972 341 c 9,29,-1
 1101 226 l 17,0,1
933 1584 m 1,30,-1
 1015 1501 l 1,31,-1
 750 1210 l 1,32,-1
 485 1501 l 1,33,-1
 567 1584 l 1,34,-1
 751 1415 l 1,35,-1
 933 1584 l 1,30,-1
EndSplineSet
Validated: 1
EndChar

StartChar: Dcaron
Encoding: 270 270 208
Width: 1642
GlyphClass: 2
Flags: W
HStem: -20 108<537.048 885.125> 0 21G<200 400> 1407 124<623.054 1067.9> 1491 20G<200 400>
VStem: 200 200<0 1201.69 1357 1511> 1342 200<580.111 1104.27>
LayerCount: 2
Fore
SplineSet
200 0 m 1,0,-1
 200 1511 l 1,1,-1
 400 1511 l 1,2,-1
 400 1357 l 1,3,4
 464 1423 464 1423 529 1455 c 0,5,6
 683 1531 683 1531 874 1531 c 0,7,8
 1184 1531 1184 1531 1372 1324 c 0,9,10
 1542 1137 1542 1137 1542 843 c 0,11,12
 1542 501 1542 501 1278 239 c 0,13,14
 1017 -20 1017 -20 703 -20 c 0,15,16
 522 -20 522 -20 448 130 c 1,17,18
 580 88 580 88 667 88 c 0,19,20
 921 88 921 88 1118 294 c 0,21,22
 1342 526 1342 526 1342 843 c 0,23,24
 1342 1087 1342 1087 1224 1238 c 0,25,26
 1092 1407 1092 1407 855 1407 c 0,27,28
 668 1407 668 1407 559 1326 c 0,29,30
 400 1207 400 1207 400 1030 c 2,31,-1
 400 0 l 1,32,-1
 200 0 l 1,0,-1
1057 1966 m 1,33,-1
 1139 1883 l 1,34,-1
 874 1592 l 1,35,-1
 609 1883 l 1,36,-1
 691 1966 l 1,37,-1
 875 1797 l 1,38,-1
 1057 1966 l 1,33,-1
EndSplineSet
Validated: 1
EndChar

StartChar: dcaron
Encoding: 271 271 209
Width: 1297
GlyphClass: 2
Flags: W
HStem: -20 124<443.832 731.086> 0 21G<897 1097> 996 124<548.431 812.147> 1491 20G<897 1097 1251.78 1311.96>
VStem: 100 210<257.834 707.84> 897 200<0 158 304.425 1511>
LayerCount: 2
Fore
SplineSet
1097 0 m 1,0,-1
 897 0 l 1,1,-1
 897 158 l 1,2,3
 858 91 858 91 800 46 c 0,4,5
 715 -20 715 -20 597 -20 c 0,6,7
 369 -20 369 -20 226 133 c 0,8,9
 100 268 100 268 100 488 c 0,10,11
 100 752 100 752 332 966 c 0,12,13
 499 1120 499 1120 687 1120 c 24,14,15
 848 1120 848 1120 848 964 c 1,16,17
 788 996 788 996 720 996 c 0,18,19
 566 996 566 996 454 879 c 24,20,21
 310 728 310 728 310 490 c 0,22,23
 310 324 310 324 374 222 c 0,24,25
 448 104 448 104 599 104 c 0,26,27
 713 104 713 104 799 216 c 0,28,29
 897 345 897 345 897 509 c 2,30,-1
 897 1511 l 1,31,-1
 1097 1511 l 1,32,-1
 1097 0 l 1,0,-1
1250 1095 m 1,33,-1
 1141 1135 l 1,34,-1
 1258 1511 l 1,35,-1
 1401 1458 l 1,36,-1
 1250 1095 l 1,33,-1
EndSplineSet
Validated: 1
EndChar

StartChar: Dcroat
Encoding: 272 272 210
Width: 1642
GlyphClass: 2
Flags: W
HStem: -20 108<537.048 884.877> 0 21G<200 400> 696 150<90 200 400 862> 1407 124<623.054 1067.9> 1491 20G<200 400>
VStem: 200 200<0 696 846 1201.69 1357 1511> 1342 200<580.357 1104.27>
LayerCount: 2
Fore
SplineSet
200 0 m 1,0,-1
 200 696 l 1,1,-1
 90 696 l 1,2,-1
 90 846 l 1,3,-1
 200 846 l 1,4,-1
 200 1511 l 1,5,-1
 400 1511 l 1,6,-1
 400 1357 l 1,7,8
 464 1423 464 1423 529 1455 c 0,9,10
 683 1531 683 1531 874 1531 c 0,11,12
 1184 1531 1184 1531 1372 1324 c 0,13,14
 1542 1137 1542 1137 1542 843 c 0,15,16
 1542 501 1542 501 1278 239 c 0,17,18
 1017 -20 1017 -20 703 -20 c 0,19,20
 522 -20 522 -20 448 130 c 1,21,22
 580 88 580 88 667 88 c 0,23,24
 920 88 920 88 1118 294 c 0,25,26
 1342 527 1342 527 1342 843 c 0,27,28
 1342 1087 1342 1087 1224 1238 c 0,29,30
 1092 1407 1092 1407 855 1407 c 0,31,32
 668 1407 668 1407 559 1326 c 0,33,34
 400 1207 400 1207 400 1030 c 2,35,-1
 400 846 l 1,36,-1
 862 846 l 1,37,-1
 862 696 l 1,38,-1
 400 696 l 1,39,-1
 400 0 l 1,40,-1
 200 0 l 1,0,-1
EndSplineSet
Validated: 1
EndChar

StartChar: dcroat
Encoding: 273 273 211
Width: 1297
GlyphClass: 2
Flags: W
HStem: -20 124<443.832 731.086> 0 21G<897 1097> 996 124<548.431 812.147> 1230 150<698 897 1097 1207> 1491 20G<897 1097>
VStem: 100 210<257.834 707.84> 897 200<0 158 304.425 1230 1380 1511>
LayerCount: 2
Fore
SplineSet
1097 0 m 1,0,-1
 897 0 l 1,1,-1
 897 158 l 1,2,3
 858 91 858 91 800 46 c 0,4,5
 715 -20 715 -20 597 -20 c 0,6,7
 369 -20 369 -20 226 133 c 0,8,9
 100 268 100 268 100 488 c 0,10,11
 100 752 100 752 332 966 c 0,12,13
 499 1120 499 1120 687 1120 c 0,14,15
 848 1120 848 1120 848 964 c 1,16,17
 788 996 788 996 720 996 c 0,18,19
 566 996 566 996 454 879 c 0,20,21
 310 728 310 728 310 490 c 0,22,23
 310 324 310 324 374 222 c 0,24,25
 448 104 448 104 599 104 c 0,26,27
 713 104 713 104 799 216 c 0,28,29
 897 345 897 345 897 509 c 2,30,-1
 897 1230 l 1,31,-1
 698 1229 l 1,32,-1
 698 1379 l 1,33,-1
 897 1380 l 1,34,-1
 897 1511 l 1,35,-1
 1097 1511 l 1,36,-1
 1097 1380 l 1,37,-1
 1207 1380 l 1,38,-1
 1207 1230 l 1,39,-1
 1097 1230 l 1,40,-1
 1097 0 l 1,0,-1
EndSplineSet
Validated: 1
EndChar

StartChar: Emacron
Encoding: 274 274 212
Width: 1579
GlyphClass: 2
Flags: W
HStem: -20 123<581.989 1026.3> 696 150<323 1117> 1408 123<731.969 1175.49> 1689 152<705 1225>
VStem: 100 210<418.941 696 846 944.891>
LayerCount: 2
Fore
SplineSet
1491 327 m 1,0,1
 1438 255 1438 255 1358 184 c 0,2,3
 1126 -20 1126 -20 788 -20 c 0,4,5
 469 -20 469 -20 271 185 c 0,6,7
 100 362 100 362 100 668 c 0,8,9
 100 1061 100 1061 401 1327 c 0,10,11
 632 1531 632 1531 971 1531 c 0,12,13
 1298 1531 1298 1531 1499 1314 c 1,14,-1
 1340 1220 l 1,15,16
 1214 1408 1214 1408 971 1408 c 0,17,18
 718 1408 718 1408 521 1231 c 0,19,20
 363 1090 363 1090 323 846 c 1,21,-1
 1117 846 l 1,22,-1
 1117 696 l 1,23,-1
 310 696 l 1,24,25
 310 433 310 433 434 270 c 0,26,27
 562 103 562 103 788 103 c 0,28,29
 1039 103 1039 103 1238 280 c 0,30,31
 1308 342 1308 342 1355 425 c 1,32,-1
 1491 327 l 1,0,1
705 1689 m 1,33,-1
 705 1841 l 1,34,-1
 1225 1841 l 1,35,-1
 1225 1689 l 1,36,-1
 705 1689 l 1,33,-1
EndSplineSet
Validated: 1
EndChar

StartChar: emacron
Encoding: 275 275 213
Width: 1184
GlyphClass: 2
Flags: W
HStem: -20 124<458.623 794.27> 487 150<327 862> 997 123<549.064 882.293> 1328 152<482 1002>
VStem: 100 210<263.148 487>
LayerCount: 2
Fore
SplineSet
1101 226 m 1,0,1
 1068 185 1068 185 1012 135 c 0,2,3
 838 -20 838 -20 597 -20 c 0,4,5
 372 -20 372 -20 227 133 c 0,6,7
 100 267 100 267 100 497 c 0,8,9
 100 759 100 759 332 965 c 0,10,11
 506 1120 506 1120 747 1120 c 0,12,13
 965 1120 965 1120 1104 980 c 1,14,-1
 966 876 l 1,15,16
 868 997 868 997 728 997 c 0,17,18
 556 997 556 997 444 866 c 0,19,20
 358 765 358 765 327 637 c 1,21,-1
 862 637 l 1,22,-1
 862 487 l 1,23,-1
 310 487 l 1,24,25
 310 297 310 297 392 206 c 0,26,27
 483 104 483 104 614 104 c 0,28,29
 786 104 786 104 900 234 c 0,30,31
 943 284 943 284 972 341 c 1,32,-1
 1101 226 l 1,0,1
482 1328 m 1,33,-1
 482 1480 l 1,34,-1
 1002 1480 l 1,35,-1
 1002 1328 l 1,36,-1
 482 1328 l 1,33,-1
EndSplineSet
Validated: 1
EndChar

StartChar: Ebreve
Encoding: 276 276 214
Width: 1579
GlyphClass: 2
Flags: W
HStem: -20 123<581.989 1026.3> 696 150<323 1117> 1408 123<731.969 1175.49> 1678 130<793.462 1139.04> 1753 152<705 857 1073 1225>
VStem: 100 210<418.941 696 846 944.891>
LayerCount: 2
Fore
SplineSet
1491 327 m 1,0,1
 1438 255 1438 255 1358 184 c 0,2,3
 1126 -20 1126 -20 788 -20 c 0,4,5
 469 -20 469 -20 271 185 c 0,6,7
 100 362 100 362 100 668 c 0,8,9
 100 1061 100 1061 401 1327 c 0,10,11
 632 1531 632 1531 971 1531 c 0,12,13
 1298 1531 1298 1531 1499 1314 c 1,14,-1
 1340 1220 l 1,15,16
 1214 1408 1214 1408 971 1408 c 0,17,18
 718 1408 718 1408 521 1231 c 0,19,20
 363 1090 363 1090 323 846 c 1,21,-1
 1117 846 l 1,22,-1
 1117 696 l 1,23,-1
 310 696 l 1,24,25
 310 433 310 433 434 270 c 0,26,27
 562 103 562 103 788 103 c 0,28,29
 1039 103 1039 103 1238 280 c 0,30,31
 1308 342 1308 342 1355 425 c 1,32,-1
 1491 327 l 1,0,1
705 1905 m 1,33,34
 840 1808 840 1808 968 1808 c 0,35,36
 1094 1808 1094 1808 1225 1905 c 17,37,-1
 1225 1753 l 9,38,39
 1117 1678 1117 1678 970 1678 c 0,40,41
 799 1678 799 1678 705 1753 c 1,42,-1
 705 1905 l 1,33,34
EndSplineSet
Validated: 1
EndChar

StartChar: ebreve
Encoding: 277 277 215
Width: 1184
GlyphClass: 2
Flags: W
HStem: -20 124<458.623 794.27> 487 150<327 862> 997 123<549.064 882.293> 1308 130<571.462 917.043> 1383 152<483 635 851 1003>
VStem: 100 210<263.148 487>
LayerCount: 2
Fore
SplineSet
1101 226 m 1,0,1
 1068 185 1068 185 1012 135 c 0,2,3
 838 -20 838 -20 597 -20 c 0,4,5
 372 -20 372 -20 227 133 c 0,6,7
 100 267 100 267 100 497 c 0,8,9
 100 759 100 759 332 965 c 0,10,11
 506 1120 506 1120 747 1120 c 0,12,13
 965 1120 965 1120 1104 980 c 1,14,-1
 966 876 l 1,15,16
 868 997 868 997 728 997 c 0,17,18
 556 997 556 997 444 866 c 0,19,20
 358 765 358 765 327 637 c 1,21,-1
 862 637 l 1,22,-1
 862 487 l 1,23,-1
 310 487 l 1,24,25
 310 297 310 297 392 206 c 0,26,27
 483 104 483 104 614 104 c 0,28,29
 786 104 786 104 900 234 c 0,30,31
 943 284 943 284 972 341 c 1,32,-1
 1101 226 l 1,0,1
483 1535 m 1,33,34
 618 1438 618 1438 746 1438 c 0,35,36
 872 1438 872 1438 1003 1535 c 17,37,-1
 1003 1383 l 9,38,39
 895 1308 895 1308 748 1308 c 0,40,41
 577 1308 577 1308 483 1383 c 1,42,-1
 483 1535 l 1,33,34
EndSplineSet
Validated: 1
EndChar

StartChar: Edotaccent
Encoding: 278 278 216
Width: 1579
GlyphClass: 2
Flags: W
HStem: -20 123<581.989 1026.3> 696 150<323 1117> 1408 123<731.969 1175.49> 1638 255<882.129 1057.81>
VStem: 100 210<418.941 696 846 944.891> 844 252<1677.22 1854.81>
LayerCount: 2
Fore
SplineSet
1491 327 m 1,0,1
 1438 255 1438 255 1358 184 c 0,2,3
 1126 -20 1126 -20 788 -20 c 0,4,5
 469 -20 469 -20 271 185 c 0,6,7
 100 362 100 362 100 668 c 0,8,9
 100 1061 100 1061 401 1327 c 0,10,11
 632 1531 632 1531 971 1531 c 0,12,13
 1298 1531 1298 1531 1499 1314 c 1,14,-1
 1340 1220 l 1,15,16
 1214 1408 1214 1408 971 1408 c 0,17,18
 718 1408 718 1408 521 1231 c 0,19,20
 363 1090 363 1090 323 846 c 1,21,-1
 1117 846 l 1,22,-1
 1117 696 l 1,23,-1
 310 696 l 1,24,25
 310 433 310 433 434 270 c 0,26,27
 562 103 562 103 788 103 c 0,28,29
 1039 103 1039 103 1238 280 c 0,30,31
 1308 342 1308 342 1355 425 c 1,32,-1
 1491 327 l 1,0,1
844 1766 m 0,33,34
 844 1818 844 1818 881 1855 c 1,35,36
 916 1893 916 1893 970 1893 c 0,37,38
 1022 1893 1022 1893 1059 1856 c 0,39,40
 1096 1818 1096 1818 1096 1766 c 0,41,42
 1096 1713 1096 1713 1059 1675 c 1,43,44
 1021 1638 1021 1638 970 1638 c 0,45,46
 917 1638 917 1638 881 1676 c 0,47,48
 844 1715 844 1715 844 1766 c 0,33,34
EndSplineSet
Validated: 1
EndChar

StartChar: edotaccent
Encoding: 279 279 217
Width: 1184
GlyphClass: 2
Flags: W
HStem: -20 124<458.623 794.27> 487 150<327 862> 997 123<549.064 882.293> 1276 255<658.129 833.809>
VStem: 100 210<263.148 487> 620 252<1315.22 1492.81>
LayerCount: 2
Fore
SplineSet
1101 226 m 1,0,1
 1068 185 1068 185 1012 135 c 0,2,3
 838 -20 838 -20 597 -20 c 0,4,5
 372 -20 372 -20 227 133 c 0,6,7
 100 267 100 267 100 497 c 0,8,9
 100 759 100 759 332 965 c 0,10,11
 506 1120 506 1120 747 1120 c 0,12,13
 965 1120 965 1120 1104 980 c 1,14,-1
 966 876 l 1,15,16
 868 997 868 997 728 997 c 0,17,18
 556 997 556 997 444 866 c 0,19,20
 358 765 358 765 327 637 c 1,21,-1
 862 637 l 1,22,-1
 862 487 l 1,23,-1
 310 487 l 1,24,25
 310 297 310 297 392 206 c 0,26,27
 483 104 483 104 614 104 c 0,28,29
 786 104 786 104 900 234 c 0,30,31
 943 284 943 284 972 341 c 1,32,-1
 1101 226 l 1,0,1
620 1404 m 0,33,34
 620 1456 620 1456 657 1493 c 1,35,36
 692 1531 692 1531 746 1531 c 0,37,38
 798 1531 798 1531 835 1494 c 0,39,40
 872 1456 872 1456 872 1404 c 0,41,42
 872 1351 872 1351 835 1313 c 1,43,44
 797 1276 797 1276 746 1276 c 0,45,46
 693 1276 693 1276 657 1314 c 0,47,48
 620 1353 620 1353 620 1404 c 0,33,34
EndSplineSet
Validated: 1
EndChar

StartChar: Eogonek
Encoding: 280 280 218
Width: 1579
GlyphClass: 2
Flags: W
HStem: -410 21G<1147.5 1243.26> -20 123<581.739 1026.01> 696 150<323 1117> 1408 123<732.219 1175.49>
VStem: 100 210<418.941 696 846 944.891> 1074 158<-243.316 31.6288>
LayerCount: 2
Fore
SplineSet
1491 327 m 1,0,1
 1438 254 1438 254 1358 184 c 0,2,3
 1232 72 1232 72 1232 -110 c 0,4,5
 1232 -245 1232 -245 1349 -295 c 1,6,-1
 1221 -410 l 1,7,8
 1074 -332 1074 -332 1074 -158 c 0,9,10
 1074 -56 1074 -56 1111 35 c 1,11,12
 964 -20 964 -20 788 -20 c 0,13,14
 469 -20 469 -20 271 185 c 0,15,16
 100 362 100 362 100 668 c 0,17,18
 100 1061 100 1061 401 1327 c 0,19,20
 632 1531 632 1531 971 1531 c 0,21,22
 1298 1531 1298 1531 1499 1314 c 1,23,-1
 1340 1220 l 1,24,25
 1214 1408 1214 1408 971 1408 c 0,26,27
 719 1408 719 1408 521 1231 c 0,28,29
 363 1089 363 1089 323 846 c 1,30,-1
 1117 846 l 1,31,-1
 1117 696 l 1,32,-1
 310 696 l 1,33,34
 310 433 310 433 434 270 c 0,35,36
 561 103 561 103 788 103 c 0,37,38
 1039 103 1039 103 1238 280 c 0,39,40
 1308 342 1308 342 1355 425 c 1,41,-1
 1491 327 l 1,0,1
EndSplineSet
Validated: 1
EndChar

StartChar: eogonek
Encoding: 281 281 219
Width: 1184
GlyphClass: 2
Flags: W
HStem: -410 21G<854.5 950.261> -20 124<458.623 793.54> 487 150<327 862> 997 123<549.064 882.293>
VStem: 100 210<263.148 487> 781 149<-239.619 12.1074>
LayerCount: 2
Fore
SplineSet
1101 226 m 1,0,1
 1068 185 1068 185 1012 135 c 1,2,3
 930 40 930 40 930 -103.5 c 128,-1,4
 930 -247 930 -247 1056 -295 c 1,5,-1
 928 -410 l 1,6,7
 781 -332 781 -332 781 -158 c 0,8,9
 781 -68 781 -68 809 14 c 1,10,11
 711 -20 711 -20 597 -20 c 0,12,13
 372 -20 372 -20 227 133 c 0,14,15
 100 267 100 267 100 497 c 0,16,17
 100 759 100 759 332 965 c 0,18,19
 506 1120 506 1120 747 1120 c 0,20,21
 965 1120 965 1120 1104 980 c 1,22,-1
 966 876 l 1,23,24
 868 997 868 997 728 997 c 0,25,26
 556 997 556 997 444 866 c 0,27,28
 358 765 358 765 327 637 c 1,29,-1
 862 637 l 1,30,-1
 862 487 l 1,31,-1
 310 487 l 1,32,33
 310 297 310 297 392 206 c 0,34,35
 483 104 483 104 614 104 c 0,36,37
 786 104 786 104 900 234 c 0,38,39
 943 284 943 284 972 341 c 1,40,-1
 1101 226 l 1,0,1
EndSplineSet
Validated: 1
EndChar

StartChar: Ecaron
Encoding: 282 282 220
Width: 1579
GlyphClass: 2
Flags: W
HStem: -20 123<581.989 1026.3> 696 150<323 1117> 1408 123<731.969 1175.49>
VStem: 100 210<418.941 696 846 944.891>
LayerCount: 2
Fore
SplineSet
1491 327 m 1,0,1
 1438 255 1438 255 1358 184 c 0,2,3
 1126 -20 1126 -20 788 -20 c 0,4,5
 469 -20 469 -20 271 185 c 0,6,7
 100 362 100 362 100 668 c 0,8,9
 100 1061 100 1061 401 1327 c 0,10,11
 632 1531 632 1531 971 1531 c 0,12,13
 1298 1531 1298 1531 1499 1314 c 1,14,-1
 1340 1220 l 1,15,16
 1214 1408 1214 1408 971 1408 c 0,17,18
 718 1408 718 1408 521 1231 c 0,19,20
 363 1090 363 1090 323 846 c 1,21,-1
 1117 846 l 1,22,-1
 1117 696 l 1,23,-1
 310 696 l 1,24,25
 310 433 310 433 434 270 c 0,26,27
 562 103 562 103 788 103 c 0,28,29
 1039 103 1039 103 1238 280 c 0,30,31
 1308 342 1308 342 1355 425 c 1,32,-1
 1491 327 l 1,0,1
1159 1966 m 1,33,-1
 1241 1883 l 1,34,-1
 976 1592 l 1,35,-1
 711 1883 l 1,36,-1
 793 1966 l 1,37,-1
 977 1797 l 1,38,-1
 1159 1966 l 1,33,-1
EndSplineSet
Validated: 1
EndChar

StartChar: ecaron
Encoding: 283 283 221
Width: 1184
GlyphClass: 2
Flags: W
HStem: -20 124<458.623 794.27> 487 150<327 862> 997 123<549.064 882.293>
VStem: 100 210<263.148 487>
LayerCount: 2
Fore
SplineSet
1101 226 m 1,0,1
 1068 185 1068 185 1012 135 c 0,2,3
 838 -20 838 -20 597 -20 c 0,4,5
 372 -20 372 -20 227 133 c 0,6,7
 100 267 100 267 100 497 c 0,8,9
 100 759 100 759 332 965 c 0,10,11
 506 1120 506 1120 747 1120 c 0,12,13
 965 1120 965 1120 1104 980 c 1,14,-1
 966 876 l 1,15,16
 868 997 868 997 728 997 c 0,17,18
 556 997 556 997 444 866 c 0,19,20
 358 765 358 765 327 637 c 1,21,-1
 862 637 l 1,22,-1
 862 487 l 1,23,-1
 310 487 l 1,24,25
 310 297 310 297 392 206 c 0,26,27
 483 104 483 104 614 104 c 0,28,29
 786 104 786 104 900 234 c 0,30,31
 943 284 943 284 972 341 c 1,32,-1
 1101 226 l 1,0,1
933 1584 m 1,33,-1
 1015 1501 l 1,34,-1
 750 1210 l 1,35,-1
 485 1501 l 1,36,-1
 567 1584 l 1,37,-1
 751 1415 l 1,38,-1
 933 1584 l 1,33,-1
EndSplineSet
Validated: 1
EndChar

StartChar: Gcircumflex
Encoding: 284 284 222
Width: 1759
GlyphClass: 2
Flags: W
HStem: -20 123<581.989 1026.78> 696 150<1015 1440> 1408 123<732.469 1175.24>
VStem: 100 210<415.995 948.509>
LayerCount: 2
Fore
SplineSet
1659 846 m 1,0,1
 1659 450 1659 450 1358 184 c 0,2,3
 1127 -20 1127 -20 788 -20 c 0,4,5
 469 -20 469 -20 271 185 c 0,6,7
 100 362 100 362 100 668 c 0,8,9
 100 1061 100 1061 401 1327 c 0,10,11
 632 1531 632 1531 971 1531 c 0,12,13
 1298 1531 1298 1531 1499 1314 c 9,14,-1
 1340 1220 l 17,15,16
 1213 1408 1213 1408 971 1408 c 0,17,18
 720 1408 720 1408 521 1231 c 0,19,20
 310 1043 310 1043 310 671 c 0,21,22
 310 433 310 433 434 270 c 0,23,24
 562 103 562 103 788 103 c 0,25,26
 1040 104 1040 104 1238 280 c 0,27,28
 1406 430 1406 430 1440 696 c 1,29,-1
 1015 696 l 1,30,-1
 1015 846 l 1,31,-1
 1659 846 l 1,0,1
793 1592 m 1,32,-1
 711 1675 l 1,33,-1
 976 1966 l 1,34,-1
 1241 1675 l 1,35,-1
 1159 1592 l 1,36,-1
 975 1761 l 1,37,-1
 793 1592 l 1,32,-1
EndSplineSet
Validated: 1
EndChar

StartChar: gcircumflex
Encoding: 285 285 223
Width: 1297
GlyphClass: 2
Flags: W
HStem: -410 123<313.216 644.898> -20 123<455.111 735.674> 996 124<551.276 841.755>
VStem: 100 210<265.899 708.34> 897 200<17.3047 933.586>
LayerCount: 2
Fore
SplineSet
97 -271 m 1,0,-1
 224 -163 l 1,1,2
 328 -287 328 -287 467 -287 c 0,3,4
 632 -287 632 -287 748 -160 c 0,5,6
 897 1 897 1 897 282 c 2,7,-1
 897 815 l 2,8,9
 897 890 897 890 858 935 c 0,10,11
 806 996 806 996 730 996 c 0,12,13
 568 996 568 996 454 879 c 0,14,15
 310 731 310 731 310 488 c 0,16,17
 310 305 310 305 374 222 c 0,18,19
 466 103 466 103 616 103 c 0,20,21
 744 103 744 103 840 282 c 1,22,23
 840 -20 840 -20 597 -20 c 0,24,25
 352 -20 352 -20 226 133 c 128,-1,26
 100 286 100 286 100 488 c 0,27,28
 100 752 100 752 332 966 c 0,29,30
 499 1120 499 1120 747 1120 c 0,31,32
 878 1120 878 1120 976 1038 c 0,33,34
 1097 937 1097 937 1097 751 c 2,35,-1
 1097 282 l 2,36,37
 1097 -27 1097 -27 908 -207 c 0,38,39
 695 -410 695 -410 451 -410 c 0,40,41
 261 -410 261 -410 97 -271 c 1,0,-1
578 1210 m 1,42,-1
 496 1293 l 1,43,-1
 761 1584 l 1,44,-1
 1026 1293 l 1,45,-1
 944 1210 l 1,46,-1
 760 1379 l 1,47,-1
 578 1210 l 1,42,-1
EndSplineSet
Validated: 1
EndChar

StartChar: Gbreve
Encoding: 286 286 224
Width: 1759
GlyphClass: 2
Flags: W
HStem: -20 123<581.989 1026.78> 696 150<1015 1440> 1408 123<732.469 1175.24> 1678 130<793.462 1139.04> 1753 152<705 857 1073 1225>
VStem: 100 210<415.995 948.509>
LayerCount: 2
Fore
SplineSet
1659 846 m 1,0,1
 1659 450 1659 450 1358 184 c 0,2,3
 1127 -20 1127 -20 788 -20 c 0,4,5
 469 -20 469 -20 271 185 c 0,6,7
 100 362 100 362 100 668 c 0,8,9
 100 1061 100 1061 401 1327 c 0,10,11
 632 1531 632 1531 971 1531 c 0,12,13
 1298 1531 1298 1531 1499 1314 c 9,14,-1
 1340 1220 l 17,15,16
 1213 1408 1213 1408 971 1408 c 0,17,18
 720 1408 720 1408 521 1231 c 0,19,20
 310 1043 310 1043 310 671 c 0,21,22
 310 433 310 433 434 270 c 0,23,24
 562 103 562 103 788 103 c 0,25,26
 1040 104 1040 104 1238 280 c 0,27,28
 1406 430 1406 430 1440 696 c 1,29,-1
 1015 696 l 1,30,-1
 1015 846 l 1,31,-1
 1659 846 l 1,0,1
705 1905 m 1,32,33
 840 1808 840 1808 968 1808 c 0,34,35
 1094 1808 1094 1808 1225 1905 c 17,36,-1
 1225 1753 l 9,37,38
 1117 1678 1117 1678 970 1678 c 0,39,40
 799 1678 799 1678 705 1753 c 1,41,-1
 705 1905 l 1,32,33
EndSplineSet
Validated: 1
EndChar

StartChar: gbreve
Encoding: 287 287 225
Width: 1297
GlyphClass: 2
Flags: W
HStem: -410 123<313.216 644.898> -20 123<455.111 735.674> 996 124<551.276 841.755> 1308 130<571.462 917.043> 1383 152<483 635 851 1003>
VStem: 100 210<265.899 708.34> 897 200<17.3047 933.586>
LayerCount: 2
Fore
SplineSet
97 -271 m 1,0,-1
 224 -163 l 1,1,2
 328 -287 328 -287 467 -287 c 0,3,4
 632 -287 632 -287 748 -160 c 0,5,6
 897 1 897 1 897 282 c 2,7,-1
 897 815 l 2,8,9
 897 890 897 890 858 935 c 0,10,11
 806 996 806 996 730 996 c 0,12,13
 568 996 568 996 454 879 c 0,14,15
 310 731 310 731 310 488 c 0,16,17
 310 305 310 305 374 222 c 0,18,19
 466 103 466 103 616 103 c 0,20,21
 744 103 744 103 840 282 c 1,22,23
 840 -20 840 -20 597 -20 c 0,24,25
 352 -20 352 -20 226 133 c 128,-1,26
 100 286 100 286 100 488 c 0,27,28
 100 752 100 752 332 966 c 0,29,30
 499 1120 499 1120 747 1120 c 0,31,32
 878 1120 878 1120 976 1038 c 0,33,34
 1097 937 1097 937 1097 751 c 2,35,-1
 1097 282 l 2,36,37
 1097 -27 1097 -27 908 -207 c 0,38,39
 695 -410 695 -410 451 -410 c 0,40,41
 261 -410 261 -410 97 -271 c 1,0,-1
483 1535 m 1,42,43
 618 1438 618 1438 746 1438 c 0,44,45
 872 1438 872 1438 1003 1535 c 17,46,-1
 1003 1383 l 9,47,48
 895 1308 895 1308 748 1308 c 0,49,50
 577 1308 577 1308 483 1383 c 1,51,-1
 483 1535 l 1,42,43
EndSplineSet
Validated: 1
EndChar

StartChar: Gdotaccent
Encoding: 288 288 226
Width: 1759
GlyphClass: 2
Flags: W
HStem: -20 123<581.989 1026.78> 696 150<1015 1440> 1408 123<732.469 1175.24> 1638 255<882.129 1057.81>
VStem: 100 210<415.995 948.509> 844 252<1677.22 1854.81>
LayerCount: 2
Fore
SplineSet
1659 846 m 1,0,1
 1659 450 1659 450 1358 184 c 0,2,3
 1127 -20 1127 -20 788 -20 c 0,4,5
 469 -20 469 -20 271 185 c 0,6,7
 100 362 100 362 100 668 c 0,8,9
 100 1061 100 1061 401 1327 c 0,10,11
 632 1531 632 1531 971 1531 c 0,12,13
 1298 1531 1298 1531 1499 1314 c 9,14,-1
 1340 1220 l 17,15,16
 1213 1408 1213 1408 971 1408 c 0,17,18
 720 1408 720 1408 521 1231 c 0,19,20
 310 1043 310 1043 310 671 c 0,21,22
 310 433 310 433 434 270 c 0,23,24
 562 103 562 103 788 103 c 0,25,26
 1040 104 1040 104 1238 280 c 0,27,28
 1406 430 1406 430 1440 696 c 1,29,-1
 1015 696 l 1,30,-1
 1015 846 l 1,31,-1
 1659 846 l 1,0,1
844 1766 m 0,32,33
 844 1818 844 1818 881 1855 c 1,34,35
 916 1893 916 1893 970 1893 c 0,36,37
 1022 1893 1022 1893 1059 1856 c 0,38,39
 1096 1818 1096 1818 1096 1766 c 0,40,41
 1096 1713 1096 1713 1059 1675 c 1,42,43
 1021 1638 1021 1638 970 1638 c 0,44,45
 917 1638 917 1638 881 1676 c 0,46,47
 844 1715 844 1715 844 1766 c 0,32,33
EndSplineSet
Validated: 1
EndChar

